<mxfile host="app.diagrams.net" modified="2022-02-05T14:34:41.027Z" agent="5.0 (Macintosh; Intel Mac OS X 10_15_7) AppleWebKit/537.36 (KHTML, like Gecko) Chrome/97.0.4692.99 Safari/537.36 Edg/97.0.1072.76" etag="2O0COj5kfQ7MarjN86RA" version="15.8.6" type="github">
  <diagram id="ZUJMxKs18EU6UKbht7FP" name="Page-1">
    <mxGraphModel dx="818" dy="527" grid="1" gridSize="10" guides="1" tooltips="1" connect="1" arrows="1" fold="1" page="1" pageScale="1" pageWidth="827" pageHeight="1169" math="0" shadow="0">
      <root>
        <mxCell id="0" />
        <mxCell id="1" parent="0" />
        <mxCell id="ri0S8g7SwmVit0heJ2vo-1" value="" style="shape=image;verticalLabelPosition=bottom;labelBackgroundColor=#ffffff;verticalAlign=top;aspect=fixed;imageAspect=0;image=data:image/png,iVBORw0KGgoAAAANSUhEUgAABIEAAAQACAQAAADc04E3AAAABGdBTUEAALGPC/xhBQAAACBjSFJNAAB6JgAAgIQAAPoAAACA6AAAdTAAAOpgAAA6mAAAF3CculE8AAAAAmJLR0QA/4ePzL8AAAAHdElNRQfmAgUOIBm6plAFAAAAAW9yTlQBz6J3mgAAgABJREFUeNrsnXWcFWX7h68NuksQQVJFEQtbsMAWG1swUV8De22xfmKLjS02tpigGGCDHSid0rGw7MLG/ftjnj2cXc7uyZl7Zs5znc/nfWV34vvMnjPnnjvBYrFYLBaLBeBYJIHXVG2ZmSFfW4DFYrFYLBaf0BaABZTUskUjOpCDaEtNH2sCWRzq8j/2rPKTL3mCUm1ZFovFYvEQxwQawE81bvEsp1OfVizVlmqxZIIcTmB6DFfnNE4iV1ucxWKxWDzjcQRhs1q2uBVB2FFbqMWSCfbm+1oivj9zsLZAi8VisXjE2wgV1Klli3MRhJHkaUu1WNJja941pk45o9iCFpHXVrxAufndeHbTFmqxWCwW12nNHCROiGsPyhCED2iiLddiSZV2PE6pMXLGxXRqbscH5vcVvEkPbcEWi8VicZHG/IAgfBRnu4NZhSD8RidtyRZL8jSkwLyFhb8YWMuWe/BlxE80mi7awi0Wi8XiCnX5GEH4nZZxt+3JDARhCX21ZVssyZDLIBYYs2YeQxKI5/bnF7P9OkayifYCLBaLxZJhcnkNQZhDx4S2b2Uej0s4VVu6xZIo/fnVmDNrGJ5wJDeXgcbmFwqT2M9isVgsQWAEgrCYrRLeox6jTKLEcHK05Vss8diFL4wZs56HaZPk3vW5nKVm//mca3tKWSwWS2BpzSL+5Ate52GG8QyCsIqdkjpGDjdSgSC8TH3tBVksNdOFV8xbVXiTLVM8SjNuY405yj8MtJa/xWKxBJLdN2qBUsy+KRznRIoRhG9skoTFn7TkXkrMm/zraj2gk2dTHmW9OdoP9NNenMVisViS5lST31lpAJVxdIpH2p2FCMJMttVelMVSlfpcyXLzFv+XYzPkt+nOqxGf0lh6ay/SYrFYLElxM4KwGw3YnF04lD5pHKsTv5lA2iHay7JYKsnlFGYZQ2UxF9ba7zN5duKTSNegV9lCe7EWi8ViSZB6pgNQ/PL3xGhiusiVMUR7aRYLwP5MNiZKEbfT1JVz9DMfI2E9j7Gp9pItFovFEpccU8v1RwaPmccDCML72ouzeEceLWhBPW0ZG7FtpK9zOc/QwcUz5XAcUyJl9rfTTHvpFovFYqmVG01soFtGj7oJgvC09uKSwVb0pEMj3uLAjX5aSHnkv4WVUb8pZU3Uv4opifrXasrS3AtWmP8/iNNNw8OPuYrfXb8O+ZzJjWay8DLu4JEqGi0Wi8XiH07mRXIooT9fZ/S4vfgNuINrtRdo8YLmTKxlwrr+6yf6e3g1GnJ1JO16DmfaGcIWi8XiQ/aiBKGCkzJ+5AMQhIu1F5gM1guUKpvwMTsC8/km8rNG1I3aohm5kf/Oq5KLU4+GUf+quldmmMP1vESFx9ekBVdzEQ0A+Isb+AWAEoqjtiljtceqLBaLxeLQje9oDdzIrRk/9qm8AFzKA9qLTBxrAqVGB8bRA5jKAczO6JGbR/1NEjecqu6VzxtqoagO3MTpSXSOXlHlX2soZU8WKWm3WCyWYLE9uwH5VYYWNY6q/q36LdKIvegMvMBgJONaLuceYD2H8an2ZbG4SXdmIgi/0U5bii/pwRuRrkHJv/yXXG6xWCx+ZCdWpHCP/dKFyAPApaZpbmGSYzYUsV6g5NmWsWwKfM+hLNcW41t25WgaVTFn6tIo6l951cr0WwA9aMQqmmtLt1gslgDQi/G0Tnqvf9mTZS4pasTdnA8sYi+mq16bBLEmULLsyke0BD7nSJvVkmH+YmsqWEUh5ZRQTDmFEPlXBauAQp5jgbZQi8ViUWYrvqQt8AYjzU+qVg+visoGXcfayH8Xu5omkctrHAdMo49NaQgf+1KIILxnp+K6wJKEnLjz2FlbqMVisajSjXkIwrsZ7vqfPvX4HEGYxKkM5Vbu1xZkyRSHm4m4L/vuTRcGcniTcYzjRybxN9OZw3KWx8wpWsuJ2mItFotFjc3N6KOPfJk72Yxfou7XNloSEk40qV4jo4rdLV7QkBa0oStd2YnRZirZrTaIa7FYspL2TEUQxpsWJP5jU1MyZE2g0HAO5QjCXfarV5UcbjKeoRe1pVgsFovnbMJfCMJEGmtLqYUtuJCT+NmaQOHgcvO1e722EAtwHGsRZmnLsFgsFo9pxa8Iwg+BmMc4zppAYeAWE3y5SFuIxfCTNYEsFkvW0YxJCMIvtNSWkhDjEMo5TluGJXVyGIEglDFYW4olgjWBLBZLttGEbxCEP2mjLSVBrkEQSl2YR2bxhDyeQhDWWTvWV1gTyGKxZBcNGI8gTKW9tpQkKDAuhNO1hViSpy5vIAhFHKQtxVKFnxAK2U1bhsVisXhCfT5BEGbQUVtKkjhGUDlnaQuxJEdDPkIQVtJHW4qlGj+YJ4t7qoyOtVgsljBSlzEIwly6aEtJgcuoQKjgPG0hlsRpzGcIwjJ21ZZi2YhNedv0nJjO/tpiLBaLxUXyeAVBWMTW2lJS5FzKESq4RFuIJTHaMNnY3EF9y4WfU1lqKvUe8XV/DIvFYkmdXF5EEBbTU1tKGpxrOutdoS3EEp/NTOupaXTWlmKphba8bnxBF2tLsVgsFhfI4WkEYTk7aEtJkzONEXSNthBL7XRjBoLwO5tqS7HE5TgqEN7SlmGxWCwZJ4dHEIRVoUjIOJUyBOEmbSGWmunJfNN7s5W2FEtC/I2w1M5ts1gsoeMeBGFNaEpyTqAUQTheW4glNjub/JLPaaItxZIgjyEI22nLsFgsloxyG4KwNlQlH0MRxBbI+5N9WIUgvO/b+buWjTkRQezwEovFEiquM215D9EWklGc+7XtFu1DDmUtgvAqdbSlWJJgUwRhNm21hVgsFkuGuAxBWM9R2kIyzJkIwhHaMizVOZ51CMKT5GlLsSTJWwjCt9TXFmKxWCwZ4H9UIJRxgraQjHMRgtBfW4alKmeZTPV7ydGWYkmaxvyKILxo/3oWiyWwnMVwhjOcx6lAKGeQtiAXcMZl7KEtwxLNpVQgCDdqC7GkSCcWIgjXaQuxWCyWlLjRdDkT0/J1iLYgV7jF9gbyG8PMG26othBLGuxBMUIFx2oLsVgslqSpagCFt93rMaZB4iXaQhyyPXCQw31cApRzDs9qi7GkxamMIoe19OUnbSkWS0DZlj2r/URYGXevYkribJHcUf6jWPtCeMwN3AKUcRYTAShjjrYk1ziDp8hFuJQR2lIsx5iyw+O0hVgywO1mrlt7bSEWS0A5o5ovQud1tPZl8JjrEYTSrGkYeIYZmmojL+qcgiBcqC3DkhFyedN09rZ9nSyWVBigbv4Iwjnal8FTss0Agsp5YRXcxWkcwb7sqNWMOF/7SviCRdoCLBmhgkF0Zid24TlORLTlWCyBYxkAr8adutc0bvOQBnGbVOTRdKOftWMwZNVwouu4FSjjFEZrS/GQZ4AnyeXKyE/O4hltUdmI4wUaqC3DkjE6sABBGKYtxGIJEDlswxBGMRNBuEdNx5YIwlfspH1BPOJa4wEKX/+f+JxlEqOd15nacrITawKFj11Yi1CRlTcViyU56rEXBbzHsiqBKL3SkJYRDT9yNo21L4/LVBpAJ2oLUaIXB3E8j1gTSA9rAoWRE6hAWMuu2kIsFp/SksO5gwkUV8vCWcBohrK1mq5cbmJuRM0qHmUH7UvlGtcgCGVZawBVcoQ1gfSwJlA4ucnczjtoC7FYfEUXTuNx/jDNYDe04fuTJxhEN215AOQxgPdNv35B+I4zaagtKuNUGkB2YKg1gRSxJlA4yeFVBOEnGmlLsVjUyWMnLuY15lfz+ZQwkTsZ4Mv04825hXkRpSt5mF7akjLI1dYAiuCYQK/b6ZwaWBMorDTgBwThzaxv/2nJXhrRj5sYS2E102c5Y7iaPr4fLJzPUXwYlTT7DYND0fCiwBhAJ2sL8QXdTSbas+RqS8k+rAkUXjY1OQUXaAuxWDymHcdyPz9QWs30mcEozqVnwB4LOnObqfMUhBWMoKe2pLSoNIBO0RbiG3ZhJYLwWMDemSHAmkBhZidKENb4JMPBYnGXHLbmbJ5jajXDp4zJjOD4QHdNr8MxfBLlD5rAab73YcXmKmsAxWBPViMI92sLyTasCRRunJTDr22U2RJi8unNUEazuJrps4aJDGcALbQFZowOFDAnKj9oZODygy4zBtBp2kJ8x16sQRDu1RaSXVgTKNzkMgFBuFRbiMWScZrQn2GMY20102chYyigD3W1BbpCHgMYF1XRNokhgakXswZQbRxgWjTcqC0km7AmUNjZirUIJQHPHrBYNtCegYxgUpXeuoIwnVEMCVymT2p0ZziLovKDRrKttqS4VBpAg7SF+JaDKUEQrtEWkj1YEyjstDaZEd/ZYJgl0OTRkyGMYkY1w6eUSYxgIG20BXpOXQZu5A/yb72YNYAS4RiTwn+FtpBswZpA3tGQFrSlK93pTW/2pz9HMpCjXU3S3JHZiLlJFmhfAIslBRqxHzfwMauqmT4reJ9r6BvQpODMsSX3sCRyVRZzF1toS4rB5TYEliCnUI6wQFtGtuCYQM9xrC8/NuHh4Wq37+oO/JEMpHnGzzrQJNjNyOpgWENO43C2o6W2EEsSNKMrR3Mf329U2D6LFzifbW0PlSjqcTJfRPW6/pSBvsqEcgygcusBSohJCPO0RWQLp0Q+Np9oSwk1b9ZqAlU69CcyjD7kZ+SMudxuvD9v04SLjKPcT7dFbziA6ZErXMQ3HGe/On3GqVzGLYzged7hC35mJstjfDrK+JkHOZHNtOX6mB7cFzXudSF30FVbElAZAitnsLaQgPATwmxtEdnCkZExgeO0pYSabxDW8hwjeZjh3EEBBfyPIZzGxbxbzcVfyBiGpumxacoY8zx4CzlALuMRhPeop30pPKQ1o2J8mU7hDOpoS7MYjonzYLCG8dzCQTTVFhoQ6nOqqQJ1zI5POFb53X6pNYCS5FeEGdoisoccNmc1wnhtIaFmFsLvNf42nz25ka9YX+Xmv4BRDEopU2gL/jJfH8dFftbZdE35MGtyJ06LZEi8wgXcwQt8E0kdnc1FgSkkDjMNmVXN/J/L70zkfV7iES5l1wz5RLONnoxgRdSd5HY6KympNIBO174kAeIPhKnaIrKL5QhfaIsIMTmUIEyL64FpzGHcz+/VnoP/ZAQDaJLw2Q4ygYSZbFfl59uyEEEYmwVf/l35JJI5cmjUz7fnlcgE7kVcSzNtoVnOLcZE7U1XWtqaxYzSgMF8E+UP+oijPDcoL7EGUAr8jTBFW0R2sQRhgraIEJPL1wjCgwluvymn8lzUlOjoTKF4Tu3LzVf857Te6Hdbm0lD40M9Pz6fKygy+SP303ij33fnSdZR2V/3/9hEW3DW0pVihBX2L+AivXjYzJ8ShPncwuaenfsSKhDKOUP7IgSMfxH+9Opk2dBEKz6L2IRv2EtbRojZnJ9oBRzHm0nstTX96c++VfIg1vAFn/JpjI9IPjtxsZm88yiXUBrjiFsyns2ACRzGau2L4gq9eZIdAfiVc/ixhq06cDnnGEOwmKe4hznawrOQ9xgADE340cCSGg05kSHsZv5Vwe+UAaWsibFtMSUxfrom5t1kFRVAHk2pSyMaUJ/G1KEZeTQn3/itKziHZ7QvQMCYTld+r+bDt7jKAoTvtEWEnMOpQFiRQo1GvEyhhuzHTYwzBfDCOs6p5WjdmI0zNyxsCaZ1OYYxxge2loK4Tv/W3BKpPVrPs/TQXkCWcSiC8JvN9vGIHXh0o95Kbr/KOVN72QFkFsLP2iKyi3kIfyaRbWJJhbsRhB9TLkyPnSk0o5pptJA+cY7TmZk4/aKba1+SjLEd90cNyRxHtwT3a8KV/Be5Xb/BTtoLyRrq8S9CBftoC8kqGnM237N8o9eajJk8i5jOJL5nHO8z2jZCTIm5CJO0RWQXs80beA5jeZDz6aAtKJTU4VsEYUSax2nHKTzL3Go3nzIm8QDHJNQAcHOm4fQJCn67wBZcwKSo6zCZU5MMb9fn/KihCx/bL2VPuAZBeFlbhqUW6tMixqs9Xau9OtKCBjyAICYIbUmHBQjfa4vILmZX+zot4TG1Isow04llCBUcnZGj9eBC3mEhX3IrByXpw2vHnwjCzzGSpoNCLv0ZZRKfBWE5I1P24uQykD8iR5rIAJsl6CodWI2w2jY6DBE/IKyxYc0MsBjha20R2cV0hMW8xd9RQZX1PE13bWGh4zCTEdRFWwibmt5BvwWyHqc7t0X5wUoZwzFpd77O5Si+jxzzF060Rdqu8RqCnVoXJhqwDuEzbRmhYCnCV9oisosNRXh16MHQyJdLKS+wtba4kHEvgvCDD0ZVtDV5RX/STltKEuRzPF9GTcf+mwI2zeDx+/NZ5NhTOdsHf6fwsTeC8I+9tiHC+Zveqi0jFKxA+FxbRHbxN8LfUf+uyyCmRhLcxtBbW2CIqGN6BN2nLQRowy84IyOCEZBozhVRQdtVPMmerpxnN96NGFlzuSTUXZS8J4+fEYTD4m6Zw0AbkAwIVyNIlTakllQpRPhUW0R28SfCv9V+VodBTDFfAxWMYVdtkaGhI0szmBGUHq2YbPwdHbWlxKE7D7I68n78nEEu97jelhcjM8qXcAMttC9AaDgXZ1BLPNrxAWLb6gWEdxEqQlBe4QeKsGPLPeZ3hGkxfp7LQJMx4pQa764tNCQc7puMIGjOdziDJPwxVToWfRgdGWtRwih6eXTezoxgrTnvakYExFfmb1qwGGE9W8XZ7kTTs2lpIHPVso+FCH9piwgJ6xJ6RLBkkF+oeTJtLgOiio4n0l9bbCi43zcZQdDMTBKa7cP097oMNK0EnKlew1MaG5sOmzAsMnByHaPYQvuSBByndPqeWrdpzstR9akvaku2xGULBOFpbRkhoQxhjLaI7OInhNm1/D6HAVG1MhMZoC048NQxZsc96R8qAzRiPILwH9toS4miGUOZE1WhNYQGSkqaUsDSSG7caHpqX5rAsjXrERbVOp62n/mrl3Ov6dd0oLZsSxwGIQhna8sICRUI72iLyC5+QJgXd6s+5otSEH6yiYppsrnpEXSUthAAGvMFzhhFf4yJ2JbHIyGocsbQT1sQjbmM+RFFb9vcuJT4OM5XZX2GU258kvsBB5kgrU1I9zePIYivHqCCSy6C8Ja2jOziO4QFCW3ZhzERM+hXBpGrLT3AOBlBy33ShLIhnxpPkK6PozFnRYW+1vAoW2pfmgj1GGL6aju5cftrCwoYA0z/7pruGtuaCkVhdCT93AmJDdeWbqmVXxFW2G+DjFDHBN1/5w0u1haTLXyNsCjhrfeKMoN+Z5BtIJcyIxCE732REQQNzDP6ogzMKG7KjnRMumZrN56kMPLemsfVPqwwyeMkfoto/I4jrDc0QeqaqWCxZ9jlMpQSBGEFp0T9vDVLEErt4AUf04Qym8CbMepH5cHZYakeMQFhSVJ77MDoSOeUaQyxbdFTojIj6G5tIYZ6vG+KwNP7wtnHDGIV1jKXnxnHyzzEMC7iJA5khxjGUUsujjIsyhnL8dTRvhw1ksMA85dzHgNOse//BLiVmqeCdTKBWGHsRnV3Z5nSAfuo5VcOQBBu0JYREvK4hMcYzzqEX7XFZAtfICxPeq+deCtiBk3lAg6jP/3Zk970Zmu60pV2tKAF9bSX52MqM4KO1BZiqMs7OPO2dk7xCPW4y2Rz1P4qYg4/M5aXeYhXKY78fC63+CQ0GI99+SSiejrn2fd5rdxm/uqx+k8NNDV3aymIEUzJMf26L9JegqUGbkAQWyucYaYi/KEtIlsYj7AypT178WpCX3jCFzaBNCYDfJURBHV4w+QEpcJ2EV/OOzzMq3zGL8yLMnBqe63nLQ4L2LP+zrwZef8v4Iokh9VmC7k8ijNw59SNfteGt8z1+6HGVPwtKUYo9H37zmzlDgThcG0ZIWOK7bTkHeMQVqe8dw9GRfro1vaq4DW6aS/VhzyIIHztm2BKPvMQpie9Xy5XmWyO5ZxU7XeN6ERvDuYULuYWHuE1xvMr88z2wr8UBGpSWTRb83xkvPAyhtFKW5DPqMMrCEJxDF/nQabKrpThtWbE3YQgfKC9FEtMdkEQnteWETL+QvjH/dPYVEaATziQtWkVnnZjP3KBZlH/25ycyP9uyfYArOcertNers+oxzfsBHRlprYUwyqaMoG9k9qnM8+bPT7ljARaLFTSmFY04U9Ee9Fp0ZkrONP0LVrDE9ybYIVl+GnIGxwCrObIaqMfGzCci8gBZjKYCbUepS4/sw1wrC0W9iXT6cpK2rFOW0iI+J1tmWZbsXrDRwglLp/jaDNxbKr2Yn3IcASJOzLAK5oiCK8ktc9AM86gOGY2R3bQplofab/8PTVpzgTjHas+XGdX/jHXahSNEzjS7pQjLKC59pIsMbibxAbfWhLn15R88ZaUeB9hvetnyWeqNYFicguCeDb5Kh49EIQxNE1w+7aRbI5JbK0tXpnmXMdiczXKeDkD7QWCSCeeYDTj+NFciznV3hf5FJjQ4SKOSPioIxGER7QXZ4nBrgjCc9oyQsVPCLO0RWQL7yKUe3Ce360JFJPrESTlGqxM04/KwaCPs0PcrQexzGRz3OrjMnYvaRg12KOC99hDW5Dn7FQlB/AfOlX5bVcmmt98yKZJHLUZ8xHK2Ut7eZYYTEdY4ZMOZ+FgEsJcbRHZwtuIJ7kY1gSKzVUIwp7aMgxdeT2S3it8w2nUr2HLzfkwks6cfV/0tVGXMyOBHuHzLJty1dMEAxcyhQ+rTHrPYQhrEIRChiR93BNMHyZravuPexCEQ7VlhIjvEeZri8gWnDJo98uRrQkUm6EIwn7aMqJoz43Mi3yFL+GujWr5crnAdHIu456k+0BnA7kcz8+Ra/gjx2RNllR3Yo8AbhvpK/8t3VM68nsIwrXaC7RsxG4IwjPaMkLENwgLtUVkC6MRxINnK2sCxeY8BOEgbRnVyKU/oymjsmPzOAZGCve78SWVvZFtv6fa6MO4iBk0jaFZ0UCxI4LwYLWfHstSEzIdlvLj1uasRiixqea+I4dZCCtprS0kNHyNsFhbRLbg9O2on/6B4mBNoNiciSBJJIZ6yRbcY7J9nMTW6+lIQaTZ4U02+p8Affkw0kd9JheY4vnwsgmCMDLqJ01NMrPwJzuldezLTGjRtjPxGzcjCE9oywgNXyIs0xaRLbyEIB4EM6wJFJtTEISB2jJqpD6D+S5Gs0svUujDwo6MjvSRXkhBwvV2QaR5tfqgPZlmksNHpn2XyWMSgjBYe5GWajRkFkI5u2kLCQmfI6zQFpEtjEIQD5r7WxMoNgMRpMp8bD+yI0+YVFahiD+sCZQ0W/E068wVXMFttNEW5BINojpL1WO4Mf3+45CMHH171iMsrZJmbfEDx5vWGNmS8+YunyIUaosIP+0YyUhTu9LM9bNZEyg2RyAIZ2rLSIBmXMSfjKebZ1WEYaMjIyiKGJIPhHLuVS6C8BbQM5IQPpqWGTv+vXYgg0/5CEE4R1tGKBiLsEZbRPjpFRXWyNwtqiasCRSbgxGE87RlJEwO8CaC2Oe9lGjDbVF9pJ9mS21BGWc9wvsMNTPgVnJaRo/ekOkIwgHay7RUYwtKEJbZpOgM8BFCsbaI8LNzlAnk/tvWmkCx2Q9BGKotIyleRxDfjHYNHo0ZakaECuWMYRdtQRllDWJGpgjj6JDx4x9sUsvTmWtocYO7EITHtGWEgA8QO3PNffZCEG6kBS08qLH4HaGQrtqL9h1OLcVV2jKS4jUEsfVgadGAC5kV6SP9IX20BWWMlWZVa7nYpfvKqwjCFwn0L7d4SWPmIZTbVhlpMwahTFtE+NkfQbjYo7M9axrmWzdpNFebBoMHawtJCq8aKYSdOgziz4gndiIDQlHu/R+CMJltXDtDO+NlKufppMZsWNzmRNMK1AbJ0+MdhAr3TxOG2006HMKHwHlVeni4R10+pB/wI/tRpL10X9CWuxgElHMqr2qLSYqXOBloxFptIWrU5+yEAzFj+bmW3+ZyGNdFiol/415eCni13Sw6sZDNKXXxHLsxwlyzNdzFvVn8TvQbn7E/cDZPawsJNG9xNE5pgcVFjkQQzvDsfM34FWcOufvjOPxOPhebpNgyTtIWkzQvIAiNtWWosQ2/xeiUVNNrRQKBgQP5PLL9PwyhP/vTm970oCudaBGovJcpCH+5fpYcBjLDXLF5DLH3FJ+wI87cQEs62GxLTzgDQTjZwzNuZqZoP669dGX6GmNQmBnI4YLPI0ioG/zVxjmRwvZEXyvZPYHj7smYSB/p6q8y3mRf7YUnyG8I0z05U12GsspcoUnso71wCzAIQbhXW0bAcbLdXB+ok92BsF35hObA0bzj4Vm3ZQLNgau5U/sCKNGOuziVHKCUx7gukN0fnmMw0JxV2kIyTh5NqU8DmlCH5tSlEY2oSzPqRH6+GXsDMJ67EgpYncHJQCEH820CW2/H1Rxfo0fjVx7iZd8Xy/7Izsx3oRIsNq25gQvMFXufS5mmvfws53t2Rehh/UBp8TInAQ19/1kPMLuZuo2XPXcg70cJQgWDtC+BAvkMjdTLfMrW2nJS5hkEoYW2jIzSjxfNKIf4r1KuTTjhM8/4zFaxV4J7dGcI/6OAAm5jOPcykpFRgbel3OHzlooT8XrE49a8b67OekbaggtFdkIQPtSWEXicVIPL6OHuabLXC7Q7H9MMeJlBCqmXJ/ESOZRyGOO0L4Sn7M3D9AJgHtcxSltOGjzFWUDrUA3yG5FwbeQsTk7Io1NJLk9zOrCaQ5mYsr79eDRyQyzjHT71barkZWxFoQf95qvSn/vMp2s5d/GA7aqiguMfPpwPtIUEnOcjLoLXOV5bTPjYw8TPX1BLIbzOPBdvr30pPGNTRpk8j3WMCHwi8RMIErIpVw8hCB/zIiO5j+FczRUMYRADOZh+9KYXXWmbYgetXOM3W03flPVtRQlCScSL6O9XicJfMJ8hLIyklPt38HB4aU0xwiybmp42g/nVfF98rC0lfOxpDKBRqm9U5wtnPptrXw4PyI9K2hzntmvTEx5HENpqy8gojyKIa11mcngEZzLY/inu/xmCcAGNOJc/1E2ceK8KJR97Y4ZRbDR8ZlsnekwBgnCFtoyQ0I4St02gbAyE7cVHNAFGcaZq95E83uAo4E/6skL7orjKPjxkHPQzGMr72nIywqOcD7TnP20hGWQkQ4C2rmWx5PAw/wPWcgSfJb33YJ4DJrE75UAOu/i+Hu8ztUBdR243BQcVvERBqN6lfiaXaXShmI6hCpBrspYGfBKwtrk+Zy8KlZKgN6YB3yAIX7hf+qfGhvDXWoaFqJvywwjCZtoyMsqTCO7Oyssx162I/knu2ZJFCGXspHmBAsWuTDS+oCKGBz7wHAyOQBDbEjGDrLWBsMxSaQA945P25ZuYCpzLtIW4Qp2o8NcYumjLySgPIojP65KSxYsqtxwTAF6bpBH0NIJwn+blCRzVWyf6454XZj5BEHbWlhEirAmUUfoYA+hpH90M9kUQbtSW4crKfje332kcpi0m4zyAIHTSlpFRnkMQ1+uYcoz5WJLEu6IPFQhzaKJ7gQKIbZ3oHd0pR5KqlLTEw5pAGcSPBlBlF4mwmUDtQxr+2sB9CEJnbRkZxauhHzmMMEbQ4QltX9cMUj1K+foEldaMoCzije2uLSe03I8gnKotI1RYEyhj9GU1gvCUrwygMJpAdRhqjM3whb82cC+C0FVbRkZ5CUFo6MGZcowXbR0DEtj6WmyzuXTZjrHmM7mOezzvWJQNNGQ5wuJQPvDpYU2gDOFXAyh8JtB+kXLlqYGc/ZUodyNIyJ6oPZrKY7jDfCEfEWe7TqxBKAqtMe0dh/GX+WyeoC0lhAxBEG7XlhEyrAmUEfY2BtCTvjOAwmUCtWdUpAYlnOGvDdyJIGypLSOjjEYQ6np2vntj5gTVoRVd2ZF9GMDJnMfXCMLl2hcnFORzF4JwmraQEDIZoSxkoXF9rAmUASoNoCd8aABBPwThBm0ZaVM1/NVZW47rOD6MMDR53MAbCOJps4i7jRH0Dp8yiaksYm3MNoO/kK99cULC4QjCWdoyQkdfBOEtbRmhw5pAabMPa3xsAGEGSCbbJcVv7G8SVoWpHKItxhNuRxC20ZaRUd5GEI/bpd6ZQJ/lcnbTvjSh4UAE4X/aMkKHE0Tupy0jdLhuAoX92epA3qEB8ATnqXVqrY3mHAfMYLy2kDTYjDuMY30td3NHlgxnrADwqVmdKrlAhcefkwIquBooopDVFLKSQgqr/fdy/tK+NKHB+XSGtxWrDu04Gpga6Pu4JYQcaNzqI307CGQognCVtoyUqcNQE2YUxoSsS07t3IwgbKctI6O8j1CqcN4WPujUni3sjiBcrS0jZNyEIFykLSOE2EBYGhxkhgU+7lsDCP5AWMcm2jJSpF+kwuTfrJviMgxBQjaE8iN05ptbvGPHEJVf+IV85iGstq0GXMB1EyhcjvxoDuId6gOPc74vQ2AAfekJvOXaWEo36cAoPmVrYC030yvrLPWwBsI0Bwdb3Gc9YANhmeVoNgNeYJW2EIulkoONB+h+H3uA4EUEYV9tGUlTt0r4a3NtOSpcjyD01paRUcYhrA19fmB20x1BuFtbRqj4AkHopS0jlNhAWEpUGkD+HqrYimKEqb420mLRj7+N+fMPB2mLUcPpWLyLtoyMMh5BeI8G2kIsrtERQXhQW0aI2IYKhM+1ZYQUawKlwCHGALpXW0gcLg/gjPgOkeaHaxjmYRM9/3ENgoSsWHt3liII39FaW4rFJdqaAhFLpngMQThOW0ZIsSZQ0gTFAIK/EEpooy0jYRpQYHosZW/4awMFCMIe2jIyTE/mIAh/0VFbisUVmiMIz2nLCA1NWIWwgDraQkKKNYGS5FBKEIR7tIXEZT8E4UVtGQkzgOnG/JnCgdpifMCVCMJe2jIyTicT5pwfsoJ/i0MDBOFlbRmh4WJbYecq1gRKisOMARSEZD+nm2hfbRkJ0Y0xNvxVjcsD9PdLjpZmKtdy+iS5ZwObSu17chGEN7VlhIQc/kZYT3ttIaHFmkBJUGkA3aUtJAFaU4LwdwBSoRswzIQWhTE2PBLhUgRhH20ZrtCID8yw28OT2GsH5iIsZxJjGEkBA+lD15C1DQgDpQjva4sICf0RhFe0ZYQYawIlzDGsD4wBBFchCEO1ZcRlADMi4a8DtMX4Cqev937aMlwin6cQhDLOSXCPYymKOd+rmH8Zz/PcwhAOoSdNtZeW9RQhjNUWERKcqXrJekstiWNNoAQ51hhAd2oLSYgc/kVYS0ttIbXSjfdt+KtGLgr5WMQc0/+6gmEJbF1AOYIwmT9YVevI0xK20l5alrMc4UttEaFgc8oQftGWEWqsCZQQxxkDaLi2kATp7/uqjA3hrwpG00Fbjg+5AEFC7Rlrzs3GsHme7nSlaw0ZD3WMx0i4zQR2m9KTQxnCLTzPeKZGAqnOy3ogdPkP4TttEaHg/xAkYT+pJRWsCZQAx1OKINysLSRhXvd5QfUAZpqvq1+sk7cGzkeQUNfG3bKRB2d9jHdDCz5DENYxuJZjtWVnjuJi/kAQjtdeWtayDcMoRVjOeTTSFhNw6rEQYYW9jq5iTaC4nGAMoJu0hSRMW9Yj/KYtowa6m1RYYQVDbYVPjZyLIKEeDvtkjDDWfNpV2aabKaFfyt4JHXN3yhHm0lh7cVnHZgxlYpW/5QrutsnqaXBaACYQBJ+1CD9zBW8wl621xfiRE40BFKS+DM5ohQu0ZcSgIcNMVV0Fo2irLcfXDEEQDtWW4SJjEMoYHnl9iiB8EWUW92EJgvAvWyR81CcD07YiLDTjDD4zIU1BWM0/5q4p7K8tLsB8jVDBltoyQs7aKKO9k7YY/3ESZQjCDdpCkiCHaQhraaEtZCM2hL9+DmHLv0xzNoIkVTQeNCYhLIj6dwN+qlJzeby5PX2dVIfzlixBKLWNFz0gj/6MinR0F8oYxyAaAR2412R5WVJlpc2p8oBoE2gTbTF+42RjAF2nLSQpWvqyNdkWfBgV/srTlhMAzkQQjtCW4SJzEX6u8pMtWYVQwWQm8RMVJqk/2VrBIcab5P+eWEGmNyNYFPX1MYmh1b5CpiCsoYm20MBSbLNUPGAhn3Ib3yCIfa9W5VRjAF2rLSRJcilDeE9bRhRVw1/W0k6MwQjC0doyXCOX9QgfVfvp0cbwEfN+SeXxI5fvEYRTtJcYUrZmGFOj/kp/MYzuMba7AUE4Q1tuYClHeFdbROhxHpTeRBD7aB5NZQ7Q9dpCUmAxwjfaIiIMYJa5Vf7EntpiAsRJCMInofVltEEQnt3o53ew3LwWp1zZ1ZsyhP9opr3IkNG+WsrzAkbUUtHZiXKEL7RFB5Q6CMJobRlZwocI67RF+IlBxgNUoC0kJf5G+FdbBADNTIqrsIzzrY2dFPX4FUG4SFuIS2yHINzu0tEfRRAe0F5kaGjAQMZEkpyFtYxmQNx6zk8RKuimLT6QNEYQXtCWkSV8jrBSW4R/GGyqG67UFpIiExCWaYsAoDOCUM6TtNaWEkB6UoxQTC9tIa5wIIJwsUtHb8EihDJ20F5m4HFSnldXS3lOrOmAU9Y9THsJgaQVgvC0tows4XuEMj7gWvpSX1uMNmcYA+gKbSEp8zZChS867rTxfZdqf3MlgvCGtgxXcHKdBrp2/NNNNVlYA4leECvlOZlWFg1ZhTDLdgdKgfYIwqPaMrKE36Le5ev4mjsZQCttUTqcaQygy7WFpMFTvinwa4QgvKwtI7Dksja0Ax+cCWGJNTxMhRwm2HTclOlMAf9GfS3MYngSvZk28DRhHvbrJo4H/X5tGVnCUTzCb1G9rZxijD8ZyWl00RbnJZUG0NXaQtJiOIL4otNlDhUI72jLCDCFCJ9pi3CB80xeiZuN37ajFGGxDztk+ZmWDGFiVF3eMkbSJ2Vf2t7WD5wiWxGkqZThoAn9Gca4Kr2CBOE/xlBAH+poC3SbsyhHqOASbSFpchWC0FdbBgBFCOO0RQSYFSGsqcnjPnNrecjlFPn7bTAhCZyU5/XVUp7Tu+07jVptd6DkccoFgjOXMkzk05uhjDa96Te8VjOR4fSnobZAt5iNUMFQbRlpkm967O6jLQTwW4F+8FiCMFFbREZpxDsmrdb9essmzEcoZzftRfucdFKe43GjDUemxC4BbMsbNnLoyXm8EJlqsGGc87fcw5HhK/KZizBZW0TaXGn6yfiDWQi/aIsIMAsRvtUWkUHaM8k8Tw3w5HwnmzRem5BbE9vyYJWU5++4KKN5hLY7UGr0CXhRTrjowIk8xC+mWc6GbKG/eJLB4Wn7sIDgz2TpxGqEtb75o/yJMFVbRICZj/CjtoiMsR2zcebB7+TZOT9DEIZoL923jIzc0KcyLKWU53h8ZrsDpUC/UHcFCyqNa8gWWmiyhZId5uMzwvDEPQZBuEpbRoQfqDoK05IcsxF+0haRIQ5mFYLwCx09POs2rEdYltSo1WzCqR99nN1dO8Mg2x0oBQ6xpruPqcseXMm7LK1mChXyCTeyP12jXgFiceDzLpyhCr/5KHP9C9t1My1mIPyqLSIjDDVO5Lc8Tya8C0F4SvsC+JTnEITmLp6hEYW2O1DSHIUgDNaWYYlDVwYxkj+rzDas8vJDg75EyQVEW0TC1KcpTWhOM5rQ1Pz36UAF51CqLS5CEdBIW0SAKQNfNLlMjPo8UUNv1VbsD8DdXE2Fx6pu4UQ6cgZPB97H6wbOu6vMxTMU8Tpn0om9bUZQEtQDsHOrfM8MZjAKaE8f+tCH7YI8CGp5QNL2nmQp62qyOXlQW14VRiNI0COkivyNMEVbRMJcU+O70qmjOFtJ13E4Y3oDfHNyjVcQxOWhAE53oGfTP1AW4YQPj9GWYUmSJhzEjQxnOMP5EwmQUwVYhTBeW0RccqrUb1R/zaWptsAqOG5225wuVf4IUDr5JibXJ/ZrBf0UtX1ik0tr4HUEcTl0brsDJc85CMJh2jIsafBSEANh5doi4tKdTYDZ/MBqCilkNYWsMP9fyFLWagusQhEADVmhLSSgBCkQditNgRu4TVtIDC7gd+pzG2/wn7YUn+F4xtwMhIEwiptpxLG2T3TC2ECYxXOKfNRPp2ac8Y9nactIkLtcH4MQbiYjzNEWkRBbU4owz7edU29DEJ7XluE73kM8ePBzugN9rr3YAHGZj3r8W1LjJQQJUhVALnieqpk8ewHwtbaMBHF8UjYhOlXKISAZLPeTD1zjMy/kBm5nJnAa+2oL8Rl5eOH7ns0XwD62O1DCWC9QSLAmUKbZC1jGP9oyEqQyEGZJjaAEwvpxEPAzL2kLqZFiLgVyeNhHLSP8QD5uh8EcngdyOE17uYHBmkAhIUgmUB7+N4FasBXwTWDyzK0XKD2C4QXK434ALvH15+dd3gd62qToKnjjBYI3WQ0MDtQ3giaOCbReW4YlXYL0hg+CF2gvcglOGKzSC2RNoFQpw98mUAeO5BY+pRfwNl9py4nDUIqBYbTXFuIj8vDGC1TE60Bn9tZecECwXqCQEBwTKIcc/F8RFqxMIBsIS5dy/BkI68stfMBC5vION7AvsN6Dye/pMoPhQBPu0xbiI/Lx6q7npKLbfseJ4fRSsyaQxTPyEIQ3tGXE4SuEdTTQlpEwh9pJN2nxCeLDBOO6LKnS86ecv7hcW1RC1Gcqgqj2KPIX3yAs9ORMtjtQMjyJILTWlmFJg4D1BXL8Vf4OhNWhNzCZYm0hCWNzgdLDn+nQh9EaqGAqk5jMZH5mtbakBCnhIj4CHuYAmtAi8prKK9rSlPDOCyS8wDDbHShBbCDM4jH1EIRXtWXUyu4Iwt3aMpJgFwThOm0ZgcWbri3J8i6CsKO2jBR5M0bv6pVZ65uYjDDbo3PZ7kCJ85odLRR4AtYXKAheoKBlAtl06HQpB3LJ0ZZRhU04BJjMz9pCUuRS866MphlnastSwjsvEMzmS2x3oMSoB4iPBl5bUsR/TvyacOpu/G0C7QnAd9oyksDJWrImUKo4tTp5ntTsJMrR1IEA91mew+UcyIrIq4RXqcfFPOxDf5v7eFUR5vA8+5HDaQzTXrbvqQeUBqb5iSUENEEQRmnLqJUFARqaCdCZmQhiusZYkudVBDF5AX7hOgRhF20ZGeTZLJ7KPQXhb8/O1ohChJkBqhTW4jOEQm0RlrR4K1iBMP97gbqxKUEKg23OZ3QGvuZGbSmBxXk+95cvtT5AgFLy43MvAlyqLUMFb71ARbyB7Q6UCPWwydBBpgnPcDT47eZdG/7PBdLJBKqbYhirHR/SGZjAoazxWHN4cEIz/mqO6JhAYbo9/8F4+tGH3fheW4rneJkLBPA8ZwCD+UJ74T7HmkBBpg+j6AIID2tLSZzWCMKT2jJqYSSCsI1n58thL0ayIkb9TOKvCTTWvmyB5hkEoYW2jCo8iCB01JaRUQ5DEF7WlqHAHIRJHp6vsjuQvS/Uzm8I07VFWFIgn2GUIQgLOUxbTDJsgiCM1JZRC38gLPcoit6JG/g3LePHGkCZ4AkEoY22DN9rSpcc/kIoZXNtIZ6zAPHY93UTgtgu0XH4B+EvbRGWpGnHT+bbbzQtwQbCMkdztga+cV1hY47ldPaOmFrzGZtiaeZabrQhsDSxgTBvEB7kMfK5kKu0pXiMt7lAAM9xI7kMDnBNoRfUww5JDSJd2BFYxYW8qC0lWdojCI9oy6gRZ9TENS6eIZc+jGR1xIdTzGgGBMiIDSMPIwgdtGVUIZxN2xqyFGF51s2zW4Z4Pt52PEIFXbWX7muWIoFqf2Jx2BVBuHbDD4JWEebfziDuJkNvyTCmMoEhJnQ1mUvowPGM8VVHmuyjsi+Qn6gPVITuCXUtTwItOFlbiMd47wVyekrlcJr20n3MprSCQDVAsTg4FkSU3RMcE8jvgbA9gVIXEhebMYhxTOEm81Q2lzvZgp0ZwTLtJVt8GwgLVxjM4THKgQu1ZXiM1xVhAG+wGjjdZ13P/cQOAPyqLcOSNBvdsa0JlBnqsCvwU0anhufRn1Es4Hn6kwMU8zoH0Imrmaa9XIvBr32BSrRFuMAcPgC2Nz3YswUNL5DtDhSPHQD4RVuGJWmsCeQSO9CQTIbBtmE48xjHaTQEKviac9mE4/nUtmT3FX71AoXRBMJkAl6gLcNTNLxAleNVbFVYTWwPwG/aMixJE2ATyN+5QE4m0DcZOFJLhjCRPymgHQD/cDPd6cMTtnrLh/jRBKpHWE2gcfwDHGc+GdmBhhcIvmI6cLxtmlED2wMLWKwtw5I0G2VvBscE8rcXKBMmUD0GMJqFjDRHW8kT9GVrhjFTe3mWGnBMIP8FwsKYCwTC40BdztYW4hm55KDx4Ce8ADTiWO0L4EsasAU2DBZMNrpjWxMoM+wJzOC/lPfvyXDm8h4DqQOU8ymD2YxzmWgDX77GrxVh4fQCwbMUAedTR1uIRzi3ao2qz+eowIbCYrMdeVgTKJgEOBDmZxOoES2BVik56NszlF/4gwLTz/cvrmYzDmBURlOrLe7gx0BYmE2gVbwEtGeAthCP0Av/z+YrYF/bHSgGOwC2HiyYWBPIFYq4E2jGPUntVZ9TGctcHjDJdQu5j+3pyZ0s0l6QJUH8GAgL9wDHB4HsSYnW8wLZ7kA149yvrQkURPz40JogOyAIN2nLqIF6/IMg7J/EPndG+jyXMMaEwCzB4jIEoa+2jCoUI3ysLcJFJiAI22rL8ITmCMKzKuduRCHCTNsdaCO+RlgTIPeBZQNtEZNTaAjOn9Gx2/zpBYJ1XATAQwkbMm34HwDfcj6bMoDXU5z0ZdHEj88U4a0Ic3BK48/VluEJzQCtOtgi3sR2B9qYXLYDfvftd5GlNmxFmGuM5W1gGy5NcPvLaQxcz548zgpt8ZYU8V9rxHrkEG4T6E0WAINpqi3EdVryNqAX1rTdgWLRjcbYZOig4sfUhQTZzfUxpOnSkdUIRXROYNtWFCIspYm2aEtanIcgHKQtI4pmCBLyKd+3IAjna8twmeb8iCBMYVMlBTlMQ1hjuwNVYSCCcJ62DEtKNEEQRm34QXCsIb97gWAutzGchtybQDeNK2kC3MtqbdGWtPDfM0U9IMzp0AAjuYZ8rmMHiilmpfnftZRE/W/Qr0BzxrIz8A/7p9FsIz2EF7mJRhwbcpM6OWwydJDxY+pCguyFIFypLaNW8vkNQTgsznbWBxQWzkAQjtCWEcXmCGLqpsLL65FSgppe5SxnHlOZxFd8wmh21ZacFM35wXiA2qvq6Ew5wnjty+ErxiCUW89YQKmHILyqLSMV+iIIl2nLiMPeVCBMo36tW92BIFyrLdaSNoMQhKO1ZUSxJYJwl7YMl9kvrglU/bWZtuQk8IsBBPA5QoXtDhTFXIR/tEVYUiQfQXg9+gdBwd8VYZV8xSucTDcKuLnGbVpxAbCMh7TFWtLGBsJ0+JwcmtCAxuZ/m1I/6n8b0Cjyvw3ZDPiX+dqSE2ZHnmZHYIpiCGwDz7MvOZzKLdpCfEIrOmDDYMElwIGw/RGEi7VlxKUtKxBK2LLGLf7P+oBCwwkIwonaMqLYFUG4TluGb+hVvQ+Ir9mOt6hAEP5WS4KuitMdaIbtDmToZz9fAacc4b0N/7RF8ZlmETcB9WrMxmjFhcByHtYWaskA/numcLxAYS6KT479APhcW0YCbMvr/MLR5ACTfeEBgsruQF181v5TDycZ+hdtGZaUKcf2BXKZR/gZOKiGDJHLaQLcR6G2TEsG8F9fICcLzZpAlewHCF9qy4jD1oziF44jB/iTwezqEwMIbHegqlgTKOhUM4GCw8EB6sawC+UIc2JUDTi1YCtori3RkhEGIAhnasvYSNHZ2jJ8Qi5LEf7UllErXRhJmUna/otBvrs9O92BVtsaKAB+RViqLcKSBmsQxm34Z9C8QDqt4pPlR54FOnL9Rr+5jCbAPazUlmjJCI4XyE/VRtYLFM0OtMLPYbDOjORfhpAHzOBcejHKd/c44UWgMcdoC/EBdemB9QEFmzIC6gVynm7P0paRIC1ZgrCOrav81PEBLcuC1v7Zwo6UI6zz0RylUxGE47Rl+ITLESSBVqUadGIkpcb7M4MhvgqnVsXpDvSZtgwfsCOCcI+2DEsaLAtAYDwmRyIIZ2jLSJhzEIQvoyopmvM1gsTwDVmCy1UIwlK6awsxnI0gHK4twye8j1BBa20ZG7E5Iygx5s8sX5s/DrY7kMPpCMJp2jIsabAY4WttEalwNIIEKCkvl28QhJPNv9swGUGYbX1AIWOkKWJuri0EgAsRhAO0ZfiCPFYgvuvh0pERFBvzZ3YAzB+o/Oq/UVuGOvcjCL20ZVjS4D+E77RFpMKxgbO/t6MUYSHNgXZmdMYM+yQVOuowHkEY64svsysQxJYwA5U9kh7QlhHFJgyPmD9zGGpaGPgf2x3I4XOEddTVlmFJg3kIP2qLSAVnPu8p2jKS4iEEYQSdmGrqPfQb3lsyT0v+RRCe1BYCXIcg7KItwxcUIAhHacswtGE4a435M5ehcYbo+I3nEMRHOW86LEP4SVuEJS1mB/Vv6L8+vPFpygKEMhYiCJN9mJNgyQw9WI4gXKgthFusqz7CxwjltNKWAbSOMn8WUUADbUFJ40xle1pbhiqdEIRntGVY0mK6D4PjCXEygnC8towkOTUypnECzbTFWFzkAEoRytQTke9CkFrGs2QP+RT64nmvNcNYZe4CiwNp/gDkMD3ruwM5ZuCV2jIsafEvwh8b/hm0vkBB6A4dzY+sB+B3DmGVthiLi4zjPCCPl5U9MLYvUCW70gTtnkCtGMZ0bqIpsJSr6cydFGtfmJQQXiDbuwO1ALCNEQNOOf7q558wgxAkYB/ArsxFEL7K6men7OFBBGEmmyhqeAJBVBX4heuU2wM0oYCVxvuzlGGBrwTtTEWWdwc6E0FqGHxkCQp/IEzVFpEKp/sqtTEROjADQRgXsMRHS6rk8aEJeupV+jyPIIH/us0EnyKUKbUqaEIBK4z5s4xhIQmCf5Hl3YEuQxAzeNcSVH5FmKEtIhUcC/wIbRkJswl/IQhfWw9QFtGU6QhiRktq8BqCBKbY2j3qUoTwg8KZG1NgkuOFQob7pF9UJjgjy7sD3Ywg7Kgtw5IWPyHM1haRCk7X28O0ZSRIa/5AEL6jibYUi2fkchPlCMKPal987yJUZH3/FtgbQbjT47M2poBloTR/ABqxOqu7A41AELpoy7CkxQ8I87RFpMK5CMIh2jISohmTEIRfaKktxeIZrfjIfPmNUqz6+QQJaMJtZrkJQTjYwzM2YqhpfyGsZrhJng0Xz2V1400nyBzGv2s28S3Cf9oiUuF8BOEgbRkJ0IgJCMIU2mpLsXhGb5P5Vaw8yvcLhBXaF8MHfIFQ6pkPtiFD+c+YP2sYEdpPvlMW/pS2DCUcD2sgp4xbIkxEWKItIhUuCMjso4Z8gSD8y6baUiyeMYR15q++nbKS74L6jJNR6lOM8I0n56rLEBZEmT/ttBfvItndHehLhJXaIixp8iXCcm0RqeCMf+ynLSMOdU1N0Gw6aUuxeEQDnjFfgO/6IPfjF4SZ2iLU2R9BuN3189RlCPPNX7+EkVnw2DMscLMaM8evCLO0RVjSZBzC+iCGM4cGoCCxDmPMBKDsLRzNNrY0A3BLKfBFmugUhCnaItS5FUHo7+o56jKEecb8WcfILJn/53QH+lRbhgqzEX7RFmFJk6sQhAu0ZSTPpb4f05fHq2YG0NbaUiwecZRpfreI/bWlGGba2zROvH8djVw7fh0GmfYHjvmzmfaCPcTpDpSNdVGrEL7QFmFJk7asD+aUsMsRhD7aMmoklxcRhCVsqy3F4gn5DDdfgl/6KACyAOE3bRHKNGIdwlcuHb0OZzMrYv48Sgft5XqM0x3oBm0ZnpNHBcI72jIsafNOMPs7Oe6rPbVl1EAOIxGElfTWlmLxhM34GkGoYAR1tMVE8Q2CsIe2DFUOcDET6MCI92c9I9lce6kKZGt3oJYIwnPaMixpcwSC8LC2jGQpQBB215ZRAw+bZmi7aQuxeMK+pgR6FcdqS6nGIQjCx9oyVLkdQVjBABeO3YB7TfvLZZyovVAlsrM7UFcE4QFtGZa0yWcBwnIaQJCSVq5BEHbVlhGTLghCUdbdFLKTHAooQxB+opu2mBh8jyDspS1DkTZ8Zjx0w13p4rIX/xpP0JtZOZA2O7sD7YggDNeWYckAdyAInzIH0ZaSOM7c5521ZcTEGeF6obYMiwc0461ID+iG2mJichiC8KG2DFXyGU4FgvC5K20KGzDcmMHLGaK9WM/Jzu5ArVlnSw1Cwpbm7iBBMoFuQBB20pYRE8cxvIW2DIvr7GQyQYo5R1tKLTh+oGwPylZW6811KXy+B1PMTXRMlhTEbyA7uwO9jSBsry3DkgG+DJ4J5HzodtCWEZNZCAu0RVhcZxBrEYSpPr8NHo4gfKAtQ52tzLDiEoa6cvzs9QU577DPtGV4zNEIwn3aMiwZ4GCuoE+wTKBbEIRe2jJisDmC8JK2DIur1Ocp89TwXgA6i1o/kEMTRpu/2gsuhS33zEJfUGdTDHCnthCPqcsShEW+qgC1pEIDTuJUUxkWGG5DEHpqy4iBcyH/py3D4iJb8KvpAT2MXG0xCWD9QJXkMJT1CMLPLvVsb8BwUyO2mIHay/WAZqYf+uhAfBIyy0MIwuHaMixp0JLrWRQJgwXIBPo/BPFlCduRCMLp2jIsrnEkK8xXnN9n1G3gBx9XUHrN3pEWBke7dIY9+cfcUEfTRnu5rlKHTxGECdTXlqLAzuZvbAkmuVzB6ijzJ1AmkNOJdyttGTFwnrjP0pYRk015mzd5iOs5nUPZnnZZ19AsXTbUFvmpB3R8BiAI72vL8AkbGlkOd8l3scEXtIjjtJfrIsciCFNopS1Eid8Q1mXt6oNNJz43Zs9qHuBEzuc67tEWlTh3+bbq6lAE8WWF0LbMrmbxCqXM50fuzkIndipsxkRf9oCOTw6TECQr+9bEoq4JYggf0tKlc2SDL+hUBOF4bRlqOFMKztOWYUma00yFaDE3uXYHcJV7EcSXE9gPRhDO1ZaxEf3Nnzz263HrD4rLPpEAShCf652O5dk0wDMep1CEIMxwrblGtC/Ib33DM8PZWZ4N054yhG+1ZViSormZ4Cn87vNq3lq4H0HorC0jBgf4Mh36DJMEOoY2dGUvjuUibuc5PuQ3ihGEB60RVAs5DKXUpNF21xaTEtYE2pge/GXK5N3z2m7oHT2a1toLzjgXIgj9tWUo8jGC0ENbhiVhDmI+glDGHdTVFpMqOfyMUEE7bSEx6Oe73tA5pouS8CT5MX6/l0kJu19bqI/ZwlzBZ2igLSVFrAkUiya8Eenu7dZftjEPm/yxhaEbVHI52TgfLJqTcW8IryXTNIx8FmfQR1tMOhyHILyrLSMmzsSci7VlRKjLCyZ/ZViN2/Q3Tf7u1RbrWxwT6FltGWlgTaDYbPDv/UQX186yHzMQhL9iPoQEF2dQ0S7aMhRpwAqEea5Mn7Nklm352zzwPE0TbTHpkMsfCBU+jeLtjSBcqi3D0MJkvZfEmWN9oAmHDdMW7FO2DHjzt1zGWhOoRvqzGEFYyoGunaOxCZn4yT+cPk6L2u20ZajiNEkNToOMbOVYE+1YzFHaUtLlFF93Y9gLQbgiyb060Dvy6kHXmK+WtIjxqs2a7Wqs3sUJzEUawDoE4VrtC+hLgm0C5fAYgrCMZtpSfEpH00G7jOtdy4nrQjHC8lCVUN+JIGypLUOVvgjC89oyLLWQy+0mAPaJL9NnkiKPKQhlvmyLCLAHgnBVEns0516TrJzJVzHLKTFdOxKrnDvGBASSNd+ygWCbQE4LiUI7IqMW6vE4laMt3Jp57nQzu0V7qRlkBILQSVuGKjlMQ1gT7NBKqGnKO5E+YCEIWJ5pkhf9ym4IwtUJbp3HEOOEd+v1ZRJdD04wYx79k8nkF4JsAl2PIKxlP20hvmcwxQgVrlVuORllI7SXmUEcs7GttgxlbkIQBmvLsMRkK1P3uSaRgTX+T9Wrw3VAuY8z8MsBErQ19+EBM+1+CS9QGnO9sZ9IG9TQkL5Jtb/hP1zOuoS1v0ZdniOXB1jP4x5fN4s7XMytQCkD+Vxbiu95ntvZjOksden4zme2UHuZGV9R4neYcDKKm8jhZBsM8yGH8yLNgDkcw2RtMZngfFPc7V92QhBuiLtdB0aZ6OR6RvqoY8jplCNU+LC5oyZB9QINohyhPE4yvMWhI4LwomvH3xNBKNBeZgZ5BUGycj5YNPUoQxijLcNSjRwKTGvSzxPtz+53L1B9rgPWc5u2kFpIxAvUiGu43Nw4PuQy/tEWHcVz1OdRcniU0yhkNStZxWoKWU0hKyk0/7VaW6YlAY7maXIRzudVbSmBwMmV+t614zvZImH67Dj3sPXaMpTZgjzw1V3cksMArmU3QLiHa8z3clz8bgKdx2bAU8zWFlILFQC1zNzK4VTuMMXJU7iMj7QFb8Tj1GUEuXHauK0wxlAhqyP/vZpCVkT+K0wO/yByAK+QD1zFE9pSAoI1gZKlHrDe3POyF2dctzWB/EIdTuIqegKwlrPC8wDYiIUIxT7vbdITQWr0U+3GtyZNeQWX+njU5mXMYrkJ1KX+WsFsftJeSkYIXiBsT9YgCDdqCwkQXyGUUM+145+OIMHvShLFeIRV2iLUuZZs75HtHxpyMbMi30CfJtuzyt9eoAtpCzzGfG0htVJzIKw9d3AaOUA5T3EDS7Sl1sJ93AdAE5rQlCY0o7n5r6Y0o5n5ryY0p1ktHq/mNKe99lKykh34gEbAg6EqwXaXPHYCfnExudfxAq3RXmgGqYdNhrZeIL/QlDMoYFMAKviQ2/ku2UP42QRqzOVAke+fxGMHwupzGdeY6q4vuIRftWUmyGpWsyDONo2MQdScphHTqAVNacKutAlDH4bAsS2f0hx4jku0pQSIXjTCzTBYGANh9YESbRHKNGMPYCWLtYVkNW05n0tM69f1vMYd/K0tKdPciCDcoS0jLt0RhLur/GwA041jbg6DtAV6yFsIEooJ9EEKhHUzk5DfsOZnUpyLIJzs4hnuQBC20V5oBvkDYaq2CFU68juC8I22kNBSn8cZxzdMYiqzWE7RRh2Y2vCUmW0grOZen6fKpEgLViCsCkBz+S5UHTi6tZkNJBQxLMvKR19HEF/7FhMlOCbQZmYg53s+zjTzJ88gCN1cPMNDCEJH7YVmkGkIv2uLUKQXcxCE6SYYZsk0TRkfI8e0anrF0ebni7khiUbAAeN2gjLEsxOC8AAALRlh+i1XMJrNtaV5zqsI4mJ6qXcExQRqYzqhfpZlxnYm+BNhqas+y+cQhObaC80g8xAmaYtQoz8rEYTv2URbSkhpwyScMd/LmcU0JvEvgvB+la3OQRDuoqG2XDcvxGqCMuSxA4LwIHUYwhJjnf7IntqyVHgJQULxxgyGCdSMyQjCd3ZeUdI0oRzhA1fP8WZovKKVLEGYqC1CicFmsuM7objD+ZFNmYIgzKB75Gf1zUPeOpYwnUl8xtv8jCDsoS3XTe5BEK7RlpEQ7RGEr82MdmEep4YiGyYVnkcQmmrLyABBMIEa8hWC8Ft4ncEu0s+DFgJjEYq1F5pRViN8pi1ChQLTMuTJUJm0/sLJnfu9WthrNxNZqf7aQluue2zKWoTFrs1vzixto/4oxdxGI21BijjZFS20ZWQA/5tAdfkIQfiXdtpSAonT2+UgV8/xLRKyuqH1rnvO/Eg+I016wzBtKSEmj3kIK2I80P2P0Yzje/5mgel+FpbvmRpwkggv05aRIG0if5IxdNEWo8xTCBKAFPb4bIUgDNeWUSN5JvV8Dp0ycLRsNKLeRahw+b36O8J07YVmkFwE4S1tGZ7zf+YB93htIaHmYAThsbjb5dGCruwQ3ljL5pQgLAhMvLUVgvCXy8+TweBxBAlFqqC/TaBck3W1KAN1KTkMYTWP1tLwMpwsQJji8jlmIfyivdAM0hBBeFlbhuf8gLDWdoN2mdcQhF21ZejzBIJwgbaMhGnOMobajiwAPIIgpltnsPG3CdSYCoTlbJv2kXrwtfFhPp9VOQ6bIwijXD7LMoQJ2kvNIC0QhGe1ZXhMY0oRxmnLCDktKfbgoWQj/HfT68xgYA5PaQtJmDV0Y6W2CJ/gDAvx37sqbKxhIZsyhz/SOko+l3FzpJh+EE04KWuGHzgDUn9w+SyNCdd4DOe9km3dofcgH0JlyvqRk6gPPO31af3n/L6ZusCtAboVl1kDKELN89IsmWUa0C2taHgvvuFO6gPfcSorgaMZkzXJ/G7PiAeoR138eI9NZ0WQfTPCnACYNYHc5XSgjBe1ZWizJaUIM6mrLcSSEve43m/XK/wdCIOnEYQTU9w7nwJKEIS1FJAH9DRDNn4IRTJ7fCYgFLt8n2llQoyjA9HfLBF6+PxT4Q6fI6wPTG5qMOlpCoqyHqe7cDZN1QoXdyIIW2rLyAB+N4FOQRDWMyCFfbczHViFiVHp1FuZ1v9/VOvKEUbyKfJgylMOQ80ko1nsrr3kjLA9gnCztgxPqevJeyXbuR9BOE5bhja9KEf42wZSAotTPLq1towMoGMCJTPu73rTM/WQpM5Qj9spNeMFL6gWpOlkmtFPCdVUq1jshCDc58GZdjEDk9dTEIIi3t0QhGu1ZXjKnr7vEBZ8TqAMYWkoRiulxdsIwgnaMiwpcyuCZKBOSR+vTaCmDOEnhD8poE2C+/yfGca7T8Jn2Z0/jf/ny6gW9Btoa1rPzw6FJ69mzvfwTtOM0eaavxP4Lt57B6pjW2YoQBAO15YRYo4wg0cu1BaiTW8qEH4PVfpgtjEMQdheW0YG8NIE2pWnonqeCiW8xsEJfQ7uRhBWJdRLowH3mEbzKzm7Ro9EC75FEBaynSdr18EZX9rZo7NtCIjNDvjswAMC1rAkE7yPUBF449W/9KcYQbhBW4g+HyIIR2rLsKTBDQjCTtoyMoA3JlBTzjd+F0Eo5QcTpBKEudwaN7E8xzSjXBH3mvc1QS7hfTrUumVjPkUQlockfyUWfyMs8vSMvZlm/sbDAvyQNwBB+CoUUwATI5dlCL9pywgte7IaQbhfW4g+TsR1Ugji5dnMtaHp7+m+CdSbkebjLwjzGU4noB1D+TXKIzSJIbXOysvlRQRhMdvUuE1DhlNuTKUhCSirayacr+FAF9evRzPKEd7z+KxNTbGH8F5gq+668R+CMDkUHeATYTsE4RFtGSFlR1YgCA9rC/EDnyEIB2vLsKTFVaGJ6bptAl0cMXLKeI/DqpUA7MlTFEa2mFnrkfJMY/l5dI35+37MMMd5M+FZYPm8YEJyYfTKOuGc6xTOPIi1ZrLbXtoXIUW6MBVBmF7Duy1sXJhW8wlLbfRiKYLwXID9ohmjL4LwtbYMS5ocSQVCWQiKG901gXYzuSFzuanGsFQjBvMlFQm0GajL+ybTpHO13zTjCXOERUmOeMzlURO4OdWla6CHU0vXX+XcOxkTIrgBsXb8giAsoJe2FA9wHi86pH8gSzW2MB7FN+w0AYAvEYT9tGVY0maoKQE+TFtImrhpArVklikujt/+4VwE4dw4WzVgPIIwtcp8tkOZa/w/L9M6BZ13IAjlnO/KVdBjDEIFzZXO3oSXzV9lHG21L0VKNGcigrCMPbSluM58hOnaIkLI5uYe+A51tKX4gX4IwnhtGZaMcLPpOryvtpC0cM8EyjE+m9cT2roTgvBq3O0a8hWC8LvJM2nJ8+aLdkEawayrzTGuduE66LEQ4S9VBYMoMl7AYE4fb8hHoc4Wq6SbCdRYMksHE5z/2HYCcnCedI/VlmHJEHeZ22NQ8x0AdkEQPnHhyNcYf02iQxNmICxKoEygOZNNAnUzDmMelcMZ0ku9Pc8kUg8PSaFCHnsgCG9HxsPqsAP/mIDYtYEMiNU1yd3rQhD0rpnTEYSztGWEjLZMQRC+sENHKnFMoOS63Fr8y4ZS7R21paTMWwhCRcZ7oOxDKcLaJHonPZVwu8nW/IHwL+8a82dORsoLTjGF+o8G8qsaoCE7chK3MprfzGQ0MWX/kxjNcIbQn66e96RvYmr5hM+qhC+DQo4ZalDGOTVu04pBjGYqx2iLTZGnE8jEsyRHc35CEL6jibYU/2BNoLCRy0umVLuHtpSUODfyNVnB5Rk8blsWIAhnJ7GPMw3sooS23ZTvTZVFBY9nrHvLkaZ52YsBSlxsw94M4T4+ZqZJCI/3Ws90xjGSYcYk8sLrNci0xFwU0IBSgXmvXbXRb7bkSiYaD6IgvBTIRgD/IiwOif/THzTgRwThZ1poS3Hwxx/3XB4HDuUjbSGBpgH1qUsjcmkGNCOXRtSlHg3J4x/PM63yeJXjgHn0ZZb2pUmSnvxAQ0p5mKHkAjdwW4auySf0A0YxOIm92jMfeDuBJ+lNeZSjAJjJ2Rn9i/fjHRoD73ECJRk8bqbZjJPYiq3pUcMX7kL+Zgpz6EgZnehCl1qeRAuZGXnNYCbFrijuxWtsDZTzKPOBeiY40JwcoD4NAMzXRQPqAzkmkbsh9Tg3wYwy97iIB8gFHuQSBMhld47gyBiPPov4H28pq02OdvwHvMFAbSEh4k6uAv5mH5ZoS/ET1guUGh04hjv5giVRPYVresL1PmJf16RMTg2Ym7++Kfq9GjjZXNnMpEXfgjOJvVGS+01BWBY3DDUw4v8ZWWszxdTYxRz9cx+7r3uaWffRr1L+5V3u5Ex2j1kD1ppdOIGrGclYpppWBbFfM1xq+dkokrie/GuNDwrTTzUTnl7gIEYwP0pdGRMpYKuozuSjE55/5wcGIggXa8sIETtTirDMNhmojjWBkqEx+1LAW5GE18RepZziudLqVUrB4DGTqufkhhxvbvCPpO0x7UcZwppaujjXhNOhp7a8qk15x/ydp7nWWmIb8/X2o0//mnuzPGIYTOZlruc4tqVuUsfIY3P25Qxu4QUmmqBltMHhVquH002FWM2vYpaznOVMZzrT+YNJ/GX+3voBhcpA6YZXIa9zatRcrcY8YsKRi5PsT6XJg3E/d5ZkyDdZQKdpC4nGBsKCQh492ZXd2ZVtqiVulvIrK1lNGcWUUMoahJXAKiooYj3r2J1rgHKG8IzHqpvxGb2BX9iPldqXMCGO5i1gCdvzn/nJUbxGXeBRLkQSOMIuHEZ9WtCA+rSgPg1oTn0a0oxc4BReTlrTQEYDl3NfzN/mcA530xQo5z5ucilgA7AF4+gE/MZBLHTtLKlxLC9SH/iAC5md0N8pEerTxbx2YW+gjPN5yhX9XejGOtYCsBIBSsxfckUNe+QyhkOBhxPME3OT/fjUeCkXMIZ3Gc+6jbbZl6dNR+k3ucDjCW2p8TM7UEhLyrWFhIRh3AR8xKHaQvyH9QLVTHsGMIwxkSfcDa8FjKGAPiZboHauMCES7526rfkTp/N3suEfDTqyDKGi2of0EDPW4OmEqoauruVZ/rGUVLWhAuH9mL/rYoaaCn94MJutoyln/ZdOrp8rGS40ibfPudZoLYd7zHUepr3YCO0QhFHaMoBDcCrbdqn1oboRI8zfaSkna0uOS1PKEPtYnjF6sQ5hFZtrC/Ej1gSqTmP6MJRRTN/oS7SQiYxgYNJjCp3+LhVc6vla2ptVjPN9G6w8E7jb2NvSz1TuvJRATdQtVcKPy5nDv0ziSz7hyZR70fyKsGqjc+dykRm0up5bPbq6m5jJ9nPYypPzxSeHYeZqu927aGikwmkls/iVrxjDizzC7VzFEI7nIHanB5t61u2kiW9MIKfZ524JbLmnMaKFD3yeEeKYdddqywgJefyAEL/PfZZiTSCHPHoyiBFMNPkn0V+lfzKKIfRMozfLOeYGfqPn66pshv62z4uqnb7Wk2MaE31ZhSC8ETe75G4EoS8tMuiReCDGV8wWxmATfmYHD69Sc77GKeT28qw1kc+TJvXWizEeA6v0Faqt/GAJ05jEON7gaU5ySY1fTKBOlCH8lODWDRhOGYKwgiHa0mvh/8zn2JIJrjIZlv5IvfEd2W4CZSbYFZ/M1jclQ+VIvBd83F6vr0lXrsm70dvURH0Y56/xCIKwWUa1HUlljZpDLkOMX2o9w5NM+U2fhnxsvsK0+3834gMEocSzwuW9eZExTOA3ZrMywVKEWH1zMoFfTCDH6D89iT12529zbT6ko7b8GpiIUKLcQzwsbMlahCK6awvxK9lqAu1dQ2XXCj7mFg5zoYD0JGMEneD5Wrdjmcmn8edzQAtmIwiDatlmBxYjCJ/XWnT+LIJkuE6nOWVsGNfRk+8i/h+depW6vI4gFHGQyvkdWvENgrBc8Vm9BV3YgX04gtO4kOu5mycYzVi+5x8WRlVK3evC+94fJlADliIsTzL8Vz/iC1rJEB/eE+pRjPCVtoxQkGv81d4nYQSGbDWBCqs5z3/kYQaxlas3hCEIwiUKq93NrPd+hXPH520E4bU4W/UwheFf1dJ5+TUEyXhmziSEIuqRT4EJxhRT4PlQhw3kmeEBejOiupopW/N80BunZuox2IS1R2U8VdsfJtAZCMJdKey5mymVED72XZLs3gjC7doyQsGFCMJ3incr35PdJtB0XuYS9vDI5eoMiSxQWe/+5qn4epWz18YFCMLUBNr+bcVcBOGbGsecjkFcKKN1Rs9eYDprCBPV05FzecjkqQ1K/2BJszOLcHpO+TupFuBQE7T8IMOJ0lv6wgT6EaHclLsnSx0KjIG4yme+oOsQJCMz9rKdThQirKOnthA/45hAp2rL8JxChE89PudOCMINSis+yHgwrlA6f2y2ZS3CenZPaOtOTEMQfqJ1zN9/hrA64xoPjfIXrlX1/0RTOSPKaxd3f/P48HmNhqi/2IUlCML3NbxnUsNpmak7x3w3hJoaNiTG9hGz/ksf5Yp8jFAWkHeXn8nhE58+9vqKwQjCavbVFuIxGibQtgjCrWprPoZShAof1YI0NH12EzfLOpqG/7/GbE3wDeJC47fGkSrBz1J84naHK03X3+s8POcgcy3eDFCy6jZmeMd5GTtiW4oR5im3mhiVAQ9+HQrMaJIiCnxRMJHHSoTJ2jJCgBMm/cW1fl0hIY/nzNNtdjkeNUygLVKO3GeKwZQjlLtWKpwsT5pshGTc8JuaLIa/aL/R735BXBkM+w3CKs71VbgA4FzTbOEuj5QNNUbXCF98WSbOwQjC0Iwdzynavlx1Ta0pRpiWgb/EdkwyJv4EtlBdE0BvBOEBbRmBpwPLEUrZSVuI/8k1Tt0SM+k6O9AwgTr54MN9oUn/HqCqwuE4nB437ZLcr40ZpjpzI5/Mvwh/uqD0dh8mjTqcaLwyI103SvJMy4EKH/VoTpS9EIQrM3S0pqxAWK48tPbqDJphGxL99X1BlyAIx6pqCD4t+R1B+D9tIcEgh3tNcqVfvAPuo2ECOU31UxvUkDluMNVE2l6/zqxAKOfAFPZtyY8Iwiy6Vfn5XIRJLmj1c17CAJPo/rKrDu96ptpuXQDGK2zMzhkNGDpZWLeoriiPmQhro8ahpst2TDa+oC9UjTunPrStooLg09C0UP0xQOFqdZyPdZlygp93aJhALRHE83GpGzPcPO9pdl/NN31l7kxx/2bmQz6Pq7iVh3iBMXxFaVb2E9nPJCiPyVAbz41pwZcmZ1DbcE6N7TJotNRjAUKRC53DkmEATqevTFKH640vSG/46zlUIPyjdv4wUMc0LZ1qDcnkuMq4uTMXMfczGiZQIwThRe2lk2NCnyvYXk3D7aZKJ3XPRWM+r9LbqfL1ScpHDC67muaX4115fm9vAo//BTavYKu0zO2qODW0D6qup7l5gOid8SNvxzqEf5Sy3k410xQ1Wj2EhRzTIHYenbWlxMNvM5vuYjUPk8sDNFWsWgoz6wB8MLBUuJDGnEZzjuFXFQX7czVQyMmUpnyMNRzK21U6JK9iJasSnpcUJn5gX8bSjv34lENYntFj9+QjOgLTOZhp2gtNEeeTl4lhJv34P6CUe9M6yg1cCqwAiilBWAkUsZ5yCoE1lFLGauAbJsTY+2geYVPgOxfqpn5jNKeyJQcrzGk/imfJBa5Q77fkb/I5mDPoywqWsZxlLGMZy1nKUpazjCs5HVjJYa4UhoSeynGe3k+y8ppChM88P2sZwnvaSwdga8VkuTamz3P6WSX1OIr92JGutPBdtZbXdGcmgrCUr3iemxhEHzZL+6rsYaazfa8c+EmP9gjCo2kfZ6gZcpNuMPummP7LWBPOnqt23dua8SjCXJemxO2CIAoG0IEmCKfTOjYobM2dLIj7vilSnyAYYE40H3LN0m0vKEQo4zaPeyas9U2gpjuCcLfCmXN4H0F4VvsShI4OkQGYG14lTOFDHuGKlDoaHc1aE1zUrX5Kl9YIwlNpHaOeGUsijEzbn3QNgjCFKUxnNstZbu66sV7LODtiyA42Ac8KHncxRf9bhAqPO6BXdq+/ydOzBolmDOHbqPfFNKawxDSpqPoqz8JpDxllgLHGHwtY74/kGGXeLt9VqylylxUIn2svHdAs0L/E3P4bp38oSzXa8Cp/UBTzqzT5QocLjU/42cA3V3Mmer2QxhHamITw0ox4KS5DEPau9tM6tKAFnehKD3rTm1OYZf52X9OLTnxs/jXV5Ua2JyEID7l6jqrszmr8O8NQm1z68YJ5GHFyOB9l18hvW7Ele3AYg3jaGEQPawsOPocZi/wpn4wCcIeBLEcQCj3slrwI4RvthQOVoYFHPD9vL4oRSpSmrGcLLejNQAoYyTimGw9DcmUOOQwzN9zhIQgx1iWRQbw1syOzTZBx/4zocbpz9Y+7XSPuMn2f1ptZZ6Xc5VrdXyV1mI9Q6FkriB3MnfjhELzTMk0HCpge5d+ZyBAaxdxyf/VqvlDRz3zgXvJd0nYm6cQE89Z6I4P9NWrDrb41ydMGQXjC47M2NhPGs6Pq0C84s6SS6YqTz1M4TTIyN1RCkxwqEN5Jce+TzBP4r3TJkJ4hCMKhCW3bi4mRr8Bf2dmLy2V6h13iybl6mWyz50IddUie+gxkXFSgaw7Da33/OfPAdLtVhYo+rEIQ3spIHYVfyY9MS57DPh6cbxrC79qLBqC5Qj5ODm/iDHa0T3te0jPJ1PdGfGjyiI7Tlp4xSlJO8S0wX0Gja3j6TgVnetORCW6dwyAWs57hnt2L22Rs+EY8tjDJvW+E+mE7WXozwmR9CUIxo+kf9565BOEPbeHhoreZsPyR645XXXYz08fLGeH6LeYvhH+1Fwzo9Ci61VSyBLm2KIg4eV+JdrJpayZGLaePtvAMknoF6DvGh5ZJs/1kBOH4JPZoQw9Xr091nkcQDnf5LJubbKd3A59tlknej6oI/IozEsqadD7j+m13Q8Y2xkL/MuD1IPFoxiseJUf/hDBbe7lA+tkRyTOQCoS1UYl8Fm9w6qES6yTclX9xRo94+5XrNksQJqa05zsIFRlWMxBBOFX7otTCjrjfZnQzk+Uyzo5xqMJi86h4WxJDa4+2eUDusBVzEYQfPMqV0WOQGTJQ6Gpn0u8QyrlKe7FAjglzesVOFCFUcKL2wrOQ+gjCqwlsuQuLEITf6aAtOsPMR/ghpT3dMIGORBDO1L4oteJkIG3r2vE7mRYOX9JQe6m+oinOsJvkgpCOh31PbfFhpLMJE02mtbYUl+ka6brwCs1dOseN5gzP+qBHdBnCLx6da1NjSt+ovegspRTh/bhbHWAeA8b7eixsasxEUuyE7oYJdAiC+DzV/AQy004yNqebXNPvQh5hSJ4dEITbk9zrA4Ry22jEHToa1/hftNeW4jL5DKMMQZi9Uc+OTHEm60ynD+0RdusQFntypgZ8b1IebRq0DqsS6Ed1lCmefyWUBRBTEP5OaU83TKB+CMLF2helVvKZi1Dkgv+/DW+ZR8HvaaG9TN9xbEoewv8Q/tSWHl7a8ptpZxc29/jG9DUJemXc4lKNwt4mzXyGi07meLThJioQ5nlwrhyTafWTdXirMR/hxzjbHG2KH8JZmvwrwuyUTHA3TKC+CMIV2hclDtchCJdn+KgHm/E4ZR5WuAUJZ1z5vknt43R5S6f1pyUOLcxz/CxPeynr0JxXzTPKtykNFYhPV/5AEFZxmML6tuVJ0/pS+NqD892MICzIAvPZv/yTgA+kPqsQpmpLdYkfEIQPaJf0nm6YQLsiCNdqX5Q4tKYYYVYGG+Q2YaS588ygr/byfIpzhTomtc/hCMKl2tKTJUh9EFZwEB+yB52YwAEhd7it5EQ+4iGasDs/c6ELtvUM9uRVDqEp7/IqRaymLOq3K6L+25kcXck61gJfsCTF8+ZwCJdU6TCR6YykhrSiDZvQita0ojWb0Ia+QDFHeuJxssRmDcTNEyjhPU6lOzvxk7ZcF3iJHajDofzGObyrLYb1QGYm17vJUl7hDDpxeIau2B6MojsgPMnlrNFenk/pBqxjflL79AYI5efWVzTiUwRhIdtpS/GAbnxnnldediU5NI/7I90fknut5PIUbp4NOS9qiOYsrmBO2q20duR8rucBXuQjJjO7htlUtg5Mn68QlsfdagDOQIxwsnPk/T8qqbRRN7xA26SU8uo9Tmrupxk4Up1InuVC17sNBZsZKWStOe/RwBUxBC81tCFvcyCwimkA3MVobUkuks8wriYPmMVpKfYUqZ1zeCTFlmBTeZiSJLbvxtmRtMZveIC3KeN3tmU63VPU3pz/49wE8kaKWMpI7sjodbMky4ccQmlcw7kuC2nBTLoh2oJdoSH3cB45wDRO47sE9/qAQ5EMZ0h1ZypwD1dqX5K4fEVfYHt+S+so2zLKTAV8nfNZpr0oH1OHteTzQZJm4mw2Z1oSXYR8QpACYQ5rOYLRHEEz43gLdwleGdczlhfYnM58we3cWiVclQmeZEyVFOHo6og8mkb9q07kWu/ApTRgC0akcL5S3uT+SHeUElIPhA3g0Wq5PSv4jxXmtSDy3/NZmeFrZkmFIqAOdU0ApibW8x6D6cIuKXbQ8Ttr+R/v8wxt6c4Ebue2uJ/oXG7hEBeUBCMQBvAgfYH/pVHAn8tF3Ek9YBVXeT6VMGh0Ih+YntQ+bdgcGwbzjDq8xHIzRDUbwhtNeTFSwJmqxySzbMaoqOF5ib5WMYLNqxxnIpJSVlFXPjbHXMCZ7E73KsaaxY88iyAJlDcfiiDcoy3XVdqYkRfCd3E+0U3MlhUZHz7ZDkF4TPtSJEAeMxGKaJXi/p350lztcbYgIgEOIvkx0gciCAXa0pMneF4ggFJOAc7mSciKhLZCTuVTHqQJuzKZCzyeqhWL+Qzi7iS7ClXwPUXVflYCSTemr8P/uJ1GgPAilySQX2LxA87fvlHcv9c4ltOS47kypKEwgCUcxTncR2N2409m8B/z+I/5zOc/5rEw4inryrtsCxRxBq9nWENwvEDljOQOGnImd6ew9yAepglQzM3cnfGMqjDiVFwn5wXaGYDJ2tKzi4sRhP21ZXhGZ9MuXng9NM28PkDiBEaq08cU8wu/sru2fEsSDEcQtk5gy6cRhD20BbtO90gv+OqvhfzMGJ5iqWmSuoMLZ28coD4uLShKqTR+E941V/QHttJeRGC4J+FP6gbeQqhI2U9nSYlrEITdtGV4iBedo73lTQRJ+MbWnBGUIwhFDAvE86tlAzcgiHlarB3HEX+/tmAPyOc6vmJapEdWrNcENnHl3I0QJDDFJE8hCEcntc+xpgFsKcPtFPgkeBuhggZJ7fMfwhRt4dnGbQhCL20ZHrO7mWxcFoqP9UsIkmDH5oFmfKYwhk7awi1Jc2nCHWfzWYywIKQ9omPTgK70YSAFjGA0E5luRoU86ZqpfwSC8H/aC0+Q7RDiD1jZQNNIA8S/EjK7LRv4DWFuUnt0RxCe0RaebdyHINwQmqBQorTgNfPhPlZbSto4IY/47tNufBJJfx6kLdqSEkMQJMFe5E8gCH20JauSz2auPuA5JRY7ai8zYT5HELZPaNu9zINiBSNppC08cKxG+DKpPQYjCGdpC882Kq38Yl7hwKx6YqzMqzhSW0baPIogcUbf1qHABArKGWkrvwLLyQjCCQlt2x9BeFBbcoipx0okyZRXXY4xXrF41Ge4CZcv4FBt0QGkXQoenZEpZA9Z0uaFKhHzOdzqk4JxL3CeqIP/AXc8ebVNQevLn+Yv/DO7asu1pMGRSTwp5rEI4b8MToayVGVQ4Lpw5zELYW1cn/Hl5n7xAs21JQeSvRCE65La5w+E5cF0QwSzKN7BcXBezyC2BDpyPdcxgbco3mjLClbF2H/9RiXaAGtZF/WvMn7VXmZMnCygUm0ZaeN0l66pLL4FwzmHHKCIW7mHcm25ljRw2lckFpYo5y3Oox19knTIWxJjD9MPKCjJ0ADlPMJdNOCMOD2jPuIeYCynaQsOKMmXxDdna+Br23DAaz5GjLmzF09RmHSjvsReH9NZe6ExuCTh1FJ/cxOCsFOM3+QwiMWR9OfNkz6yxW/sRjKTyfdDEB7RFh1Kephi+yD5gABaUYLwV9zt/kZYnXS/MYvDMARJyuN+CIJwjbbw7GMCEjXppRGD+CKFjsXxX6u52HcuvisRhL20ZaRNAbE7wGzBOHP154Ug6dsCsC3JjOXMZT7C4kD7qf3JpsxEEF4K4ITI12q4X1Tl/xDEDkJNkRcSLFHZwK0Iwj7awlMjyDeYRhAVyipiFKPoWiWvpFlM0yVWBVluzAm3+RzPdjRmBCdydgJPH94R5kBYfa7mauoBZTzK9azWFmnJCMkEwqCCt7iQNuzDZ9rCQ0VTPqAzMJ4zCF737Wc5HjiDb2vd6m2uAY7mfW25gaQbUJjUGNm9gFJ+1BaefUxB+Nvlc+RHqpHWMzzlgZ6Zx3FW7qAtI23OQxAOjvrJPvxt/D+TbT+PUNEaQXgq4e33RhAe15YdKuowFkGYFNDx0rnMRlgdR30OsxGWBvoBX49FSFKDLvJZjfC9tuxsZE6Sf6pU6c5486X8u296Ud+OIPTUlpE2pyMIR5l/tY0MX13JUFsNFDIaIAivJrx9LvMQltgvsoyRwygEYTrttKWkjBN0GRxnqxEIwn7aYgOIMzYlmTT5nRCEB7SFZyPLEL7y5Ew5DDHp1uWM9MXz010IwhbaMtLmJAThRJz05yWR9Gc7zzmMlCGMSWL7BxCEA7Vlh4Z7EYTFgb5vdKWC+F2i97V9pVJkewThjiT2GIogDNQWno2UIHzk2dna8475gp7BAdpL534E8WWtWnIcbZ7pevF15Ooeoi3K4hKrEvjyimavJENnltq4DEFYwy7aQtJkBsKfcbbJYzHCvAAmfGvj3JHPSWKPNxCETbWFZyPrEYqYzneenXFgxE8xWnkm7sMIwmaqGjLBIcbrsw5nnOEIX/jYLO4wH0kqaTKHWQjL7UDcDHAi5QhlIegovwhJ4J7vjN4JurnnPVcgCPsnvH0OCxH+1ZadnVR2Alri4Tk3MdF04T+OU1y705DcnQnSXrJ/VPOBiWyrLcfiKv8m1NUlGid0Y/2C6bIvJQgVnKktJAOsRRgXd6vDCdIQWP/wGIIkMYZ6KwThaW3ZqRPkVMMfaM6WNPF0XvpiBvE6j7EZ7Xidt/me5uQAdU2xbxPygXyaANCIukCOadRenwYAfJCBvqXOmss8XLk7VLpPV1DAUwEs0rUkwxpI0ss3msuA4z0MeIeRXrxNPeD6EMzyzqcBUBh3u3EU0pRjE27FaXHoBqxnXsLb9wVggrbs7GUcYvqNeEkzHk+jCePHGVDgtK8KftBoTwThkxD4syzx+QpheVJ75DATYYWP2lEEjw7MDVF7geYIwnMJbPkqdnRn8kxD+CeJ7Z2oSNck9vAZfut6nCylaHiyVnEe+zG11m2KWMEKljODGczgLyYzmcmUAK0zoCAsrRGdr7YPWawtxOIBRSTeGtFBeB1o7oMChKDSinF0AMZwgbaUjNAUIKF2qW8DcIy24ECRz+bAjCT26Av8l9QePiPIgTBwQkFeBsI28CXb0xNhw7jV1ZQB5bU6aX9lO2sCReGYQOvSPIolGKwB6lInqfftaK4EjredflOiDmPoAUzkhJAMGXY834l4/j+ghPocnfBIFgt0oQ7JjEjdjM4Q7FHGQTeBSoFcclVm1BYzKel9lpIZL1BdoDwEk3mtCZRNOI8KjVmRxD6TmEZ3jqKBGYlsSYam7AH8y5GhuXpOlmUiXqA1fMZh9KYLM7VFBwbHXJya8PbOXLBAZwIFPRDmJAQHx5BbCjQyadHpUIcw+ICsCZRdJDclrJI3gCYcpC0+wExIMgPLzyRuAlWGwo7QlhwYTmcgMJNnE94jBMnQ4TCBdEJhqeAU8KfvB6oLrNdeTAZwOr5YEyg7cEygZJP4nWb9tvusBSpzgeJXhAG8QxlwtLbkgNCFEUAFZyR4dcExgVbEbVTpa4JuAjmekOCYQEuBTJhA1gtkCR6VgbDk+JkpwBEZ8J1agk8yXqBlTAT6Bngimnfk8ixNgf9LIrOnFdsAXwc7ISMcJlBwAmHLAGsCbcAxgcLgz7LExzGBkg2EwTtAYw7Vlm/xAcmYQE4oLJfDtUUHgGvZB/iJW5PYZy9ywKM5na4RdBMoiLlAmTCB8gmHCeQEwqwJlB04X1zJeoHamCBYT235Fh/gvHsSNYHeQrChsPjsxA3AWk5O6l4cgkygsJhAwQmEORPQrReoEhsIyyYcL9DuSe3TgHfoBnzBndryA8v2gb/PbyA5L9A8JgP9TAaRJTYNeZm6wOVJNUV0TKBiftKWn93cF6jelJ1ZjVCSZsfSHP5HMcIU7eVkgBsRhJ20ZVg8oT2rEIrZIuE9cnkTQfjTDJmxJEcuExCEi7SFZIyHEITNE97+WgThRG3ZGaQuW3E4l/IoY3k+I3lOjyII75OT1F4NWY/wufblyHbuQhCW8hcT2EtbTBxy+ARBuC6to3RgrBm08a72gjLA7QjCNtoyLB5xMYIwNuHtH0AQ5ifxlWepylYUI6yhi7aQDPEcgiRhEJ+HILysLTsj7M1LTKesyrilFfwvTR/fYVQgLKJtkvvthyDcon1Rsp3bo94Mfo/4no4g/JJk2K4eLejMVvRmXw5iKCsQhHVcS572gjLAPQhCd20ZFo/I5XsE4aSEtna+vgrZQVt2oHE8rR9qy8gQjlcw0ezPLViFUB74rlLNuZg/a5w6+T07pnzkNixEEAYkvafzvrKja5Q5jOd5n6kBMIHasRyhlN4JbX0B01nA8hqGsf7K9trLyRCOW7ujtgyLZ+xMGcLCBJ7jD6cMoSyFm7Mlmnx+TsLs9DtjEdYmuG19s/Jgeyp25RmKIvf+2XzIg1zIwXSnCbezDkEo5X6TJZUs76Y8QncsQmmKZ7VkmMEBMIHeQJAEUzpPr2UOfRl3hGhu9kgEsXPis4qHEYSH4my1C2sQhPO15YaA3SlHWJSR0TzafIOwOsHGCs8gCJ8H1l9en0FMjtz51zGa/hvl62zBOPP7BQxK+gznIgjTkq7ShHwKEX7UvkQWB/+bQMciCP8k1N7tOMoQKviJz/mY0TzL4wznJgo4l8EhCwo4kf1m2jIsHtKU+QjltVaGdTHu+WS6lFhqZoRJeG2pLSRt3kYQRiWw5ckIwkLaa0tOiR4MZ3nE/JnHcFNNHIuBLDLbvU/nJM7RjUKEUnZLQd8uCMJ92pfJ4uB3E6gZ8xDK2TuBbQ+gBEG4Slu0J7yCINTXlmHxlJMQhEk1Pp23YgqC8EqSNSqWmmjMLARhEadqS0mTTZiPIJwbZ7ueFCGUBzBXpR4DI54doZxxDIyb+9SCEZQjCGsZZrqtxSOf7xCE61NSeRmCcIz2xbI4+N0EehZBeCSBLfc07v9h2pI94i0ECVHXEktifFhLqXZ9JiIIX4Yo4KtPH+aZL9WxAS8/6EMpQnGtrTQameThG7TFJskWDGdJxPz5j+FJeHX68LvZ7x/6JbD9LQjC1ymGCd9CqLApDH7B3ybQgVQgzEmgPVcnVmWZe/EDJBQtHi3J0Z1ihFVsttFvcngRQfiLFtoiQ0YjhpuC6mKGBdq8vAJBmEWrGrd4HkH4LEBZQHUZyLhIDmgF4xiYdMvffIay2uw/ija1brsnZQhrkujRFU0Oi0LSmS4k+NkEasxMBOGwBLbdHUEYnUXu/08RMz/ckl0MQxBe3ejn95jUzk7aAkPJjvxgvmT/ZX9tMSmTY0rjx9RwpzzH+FCCMh51MwqYG9XpZ2QandI2M4U3wnKG1PhN0oh/EYQzUjxLDwThSe0LZ6nEzyaQk4j4YkLbOibQ1dqSPeQrxIyOtWQX9Uy+T9Xhp0MQhKKUEjQtiZDPUAojnoJW6R9QheZMqzFjshdFCGWBMPFy6c9oSiPmzySGJFQyUzsDmG2O91UNk/WcWrm3Uz6DY2QmX4FmcQn/mkC7U4awJMGYafaZQN8hLNAWQQcO5FIe5LgM3H4sidIfQZgalQx/GKUIZRypLS3kbPAULAzs19h2rEUo3ajEpDF/B+Qu2o4CEyEQhFWMZLuMHbshw41htZ4RG7UQOAqn53rqBrATaAzKYKoswK8mUD2TlHdCgttnnwn0M8IslTN34AAu5Um+YWVU16VVPMdBAcogCDYvV2lc19uUAlygLSsrGMAc857/nK20xaTEOTGL3l/A6YXt5xKLHPozmvVVfD+JdTpKhu351hx/OodE/XwTFiFUVPO/JsdMhPmeXzdLjfjVBLrN9GpIlOwzgf5GkpxOnBlOrbH1pCAsYyR9sigjS4u2rEBYRw+gs+kEdIe2qKyhGSNMenTihdT+4lljwm0oGf8fgjDXx00gW3OlmWYgCKt5IsF5AamQywWRB7zXaA+051gzOHdEGsftiiC85Pm1s9SIP02g7ViPsKqWllbVyT4TaDrCb56fdbOopmNrmMTzXMXh7MEdpnuK85rB7TVE0i2Z4gJTudPMFPS+5uun9/CxEz+ad/tv7KEtJmkamAEYt5t/VwbH/Dowuy8vma5vzhX/XwJVwumyqem9JqyKZAgJf6YV8j8LQTjbuwtniYdjAhXEKQP0lnxzczkniX2yzwSaR/JN1jdlF/pzMAM5mSFcRAE3MZwHGcmLjOa9uM3QckxXmpc5nK7VvnJz2ItHWBxlCJ2lfYlCTZ6pUPrDJG/aJpleU7WQOmjp0c4Y1AqOBJqYBPvLtUXFoDkXmfe405RglKdm2oFRfien3GCHtI7nBBuD3V0qZAyO/HGX+8Y2LTBO2mTCKdlnAi1G+DqpPfL5rdYgltM+vzZj+BzzHFS/lnMcwihTN/OfHQToKr1NMEb4OwTjG4JJF/NQIPwXuPTo4819v4tJ8X7fdwHs3ow0WW5OM4IChTBdfYZRwgLGUECftB805iHM9nwNlloYHPX1V6AtBoAtWItQlKSlnH0m0CqE8UntcUFcA0gQljK4hlthFzMXZ+e4Z2rA01Xc7BZ3eNw8mdqnSk0GRDrTfJDUnCl9HkQQE+SZ7Ss/VmPOYVLknrSe0fRTNNAaZug4WyIIz6mtwxKDemzPQHMrvUJbDJDDpym5ZLPPBCpB+CiJ7VuxDKGEAoZwOgM5gv70oTdb05W2tKAOh0byeT6L8aWayxcIws0Jnm05wlo2175MoaYNKxBKAvbFGz6a87iZM7WGK+JOpfIPdc2sK2Edu2qLidCD4SyLmD/zGE5HbUkZwpkuP1hbhmVj9kUQLtGWAZyPIPyQdHF1tplAOVQgvJPEHo8mUDW0oSfGxoMALkUQfkq49fxltvbBAy5BEF7XlmFhz8icqV98ZE7E4wCjOZ0qp8xRr8qoi8TGnAaJ1xDEdm/3I/0QhAu1ZdCeFQil7Jj0ntlmAtUzVUCJ0pNShIUJ1FFsz/dUjgzcL/LTHqxFKKFXwmesyz8IFb6tMQkH+eaLN3hTvcNHHa5hrfnyfsiDiqX02dx0OHrfB/280hlzGgxyWIgwTVuGJRYHIQjna8vgHYTUZr1nmwnUxCQvJ8rnCMJpCW2by5CoQQAtgXzjML8qof0rORpB+NZ3SZbhor+pCwvT03Jw6cpH5kt8ge/To1vzF4IwTnnwax4Donw/wsQUxpwGgW0RhCe0ZVhicSiCMERZxSmmuiWVrPtsM4Fak8ywvYFJGyObmXGKTqXL9QjCN0k/Kzp5XYl2+LakxhgE4TxtGRbDAOaZz877Pg56NDXpxt/SWFHFZhREem07Y07D20/MKUc5WVuGJRYDEIQzVTW0ZhFCeYqBk2wzgTZDEB5JaNsGzEQoTzpD4QT+i0TlhSK2SFrlTpQjzLQ9a1xlS9YhLKGFthCLoTkjTHp0EcN86dFoYIobflNsp5DPs+YqCcIETlH2RrnNw9jpYL7FCVnoOm6dTpz3pbh3tplAXZO4WjciCM+mcJYWPBFxUKeWKfacj9othJe7EYQHtGVYotgr0tDvF3bTFlONPNMJaBqbqmnIZ7S5Pit5iG21L4kHfISw3gdZV5YYOIGSUxQVHIYgzEzZKZttJlAPBOGuBLbsSBFCYco3u778hfBpihk9m7EGYRWbqF2pbKApCxHWs7W2EEsUdRhqGvuVM9JH6dE5pmvXIrZU01BpAC3jbBfGnPqTfxCmaouwxOZEBOFEtfM3ZS5CRRp1LdlmAvUybQzjf+m9mkIic1XqcX0a/X1uQhAeU7hG2YQze+hjbRmWanTjE9+lR99jfC87qCnI4yWT+7OL9sXwjFxKED7RlmGJjTP9+zi1849MKrk3FtlmAuXwPIIwi/a1bteXCoR/FadZN2I+wnI7xNNVck1y6wBtIZaNOC0yOe8VbSlgShvWKI52zUYDCDohCI9qy7DERnde/D5UICxIK50z20wgqGPKb3+v5bpVfjEepqr0MQQJcaWHP9iDCoRpIU8pDSateIYKhHnaQvif6QV9kJqCPF7MQgMI9kMQrtSWYYnNWYpPkA3MLN70DLDsM4GgId8iCF/U+LV3HoIwVlnnIAThHGUV4edle5P1MX8h/KOs4STKEco5Xk1BthpAld+xx2rLsMRmCIJwqMq5nWqW0WkeJRtNIGjNP6ZLdKwwUwuWIKxnK2WV3RGEZ5RVhJ8OrEkr8d3iJrMRflZVcAAlCBWcq6ag0gBaGaARIpnidgRRzL+y1IrjHj1Q4cw7U4awjLZpHmdX04os2+jKwho7BDlzoO/Rlgj8hzBFW0QW4KSeP60twxKDJQgTFc+/u6lOu0ZNQR4vZK0BVNn0xT91gZYqXIQg9PP8vPn8lKGORHn84oOsFw12ZjWCcHm1n2/DeoRFNNMWCLyNUEEbbRmhJ9UmmBb3KUIYp3b27Vih/ECU3QYQfI+wRFuEJTaNGYYg7Ov5mZ2mfan2nKnKXiYdNPs6EfdjHUJFNUPyYx90/K7kKlut5BHHm1Emdi6bv8ihAuFdtfNfa2rShiqdP9sNIMcL+L22CMvG3E9JpEV5H8/PPhmhJGNzdJxSy2s9X4U+p1CBsD4qlOn0+57sk1L0PgjC/2nLyAq+sJOIfEhDBOFlRQUFps/7MIVzWwOoqW+aIliq8VTEABKFThHjEVZn7GibsRphDR09X4c+zlNeITsCUI9/ESroqy3LUI8ShC+0ZWQFO1CGMC9reu4GgzZpdz5Ln0GUmrxBbx+MNhhAfhsU4h07IAi3a8uwbMxT5qM5jIsUhhi8g1CRwakpBQjCq56vww88YnrQdqHSIHpRW1IU3yIU+XJgZPhwGo3eoi3DEoXTGG+EsoojKUYQXvLwk5jHqKw3gOAYBOEsbRmWjXFMoFZKZ3c6HGduwnVdUyS+u9J6NMnjTQRhCtuzGmE1m2lLiuJeBOEtO8XKAzZhBcLajAWYLemzNYJwh7YM9qPQ1M429OR81gByuBJB2E9bhmVjdE1iT3O/AACAAElEQVQgp2y7cwaPeFoWW9v1+QpBTHaXv3KijjXB1jKezejf2xKLSzfqtVWXFrSgPV3pyvb0pjf96c/BDGQgpzHEzq92md4Iwg3aMoBdWIIgfEdL189lDSCA1vyPKQgStoeSfG0BcRmcQIn4zqoKCwEy2ithDkAG/UpBooQjmUBP6gEzuE9bThXe4jhuYRvyOJ2TeYLbWagtKcQ8zBB6MJCVVJCbQFuEcuUslfDjZGat1ZYB/MjejKUDu/ElB7HAxTPl8QynAas4OEtroRpxJCdzoAk7rvfBgJQs476oVOfaX1peIMc9mMmk3e0QhNuU1qNPR+aqznurjTwGMcO844q4w4On0OzluYQ/+864Aou7HIwgnK8tw9CZfxGEGXRz7Rx5Js1hVVamJeRzKC+ajm2CUM74DHS/8xn+9wL5n1VAZr1AK4Fs9QIBzOUQJjCJt7WFxKCcUbzK2VzPpjTkas7jXh5gjbasENKfU4ES/qSI9cAqKhBWAqWsAYopAVZTBlxPR/M5tLiHk3njBy8QwCz68jE70IUJHMxvLpwhj2cYBBRyEN9pL9djejOIE6LmHfzF6zzPTG1Z2cg9CMKOtIj70mqkdkLGe5g0MRUP2cw+Pp/K3pCrWGqejhZxSRY2s3SXjixGEM5IaOuZiCtfgpZoTkUQjtOWEUVzJiAIy11ohpKbpR6gPC6N+LkFYTq32gIQTZwBpN21ZdTCIS64h9cjfKi9MEscmnGzqU0R/qxx0r0leeowEUEYmeD2yxAmaIsOPeeiN4i6JhryIYKwJsPTIXNNGHYNe2sv0VN68n3E+FnEg+xue7RrcxeCsIW2jFrYk8zPd1+C8K32wiwJsA+CUMGx2kJCxaMIws80SHD7UoQPtEWHnkuVRhDVTj7PIgjrGJixY2anAVSH600l7lpGcbBNk/EHd/reBOrpwuCEqQh/ay/MEpdmpoeTfq+UMHGyCW50SXD7RuqDG7KD6xDEh+MhcrjfNKs4JyPHy04DqBc/Gu/P1/TQFmPZwHAEYUttGbXQwTRszyQ/ILbg2vfkmEaO42xHmgzSiyKEcg5JeI9NEYTHtYWHntsQhG21ZcSkwHhjr0r7SBsMoH20F+UZdShgnalyLfDJTEaL4Q4EYSttGbXQxIVBDp8grNNemCUONyEIs2itLSRENOFvBOHGJPbZCkG4S1t66HF8LYn65rzmQsrNAI90sldyeDzrDKDt+cn4f77ydbwlS/k/BPF1RnoOZQhjMnjEHvyJIB61f7ekxuGUIxTTW1tIiMjhDQRhbFJ+tV0RhOu1xYceZ25b2/QP5BKnsB5BeC7lLJZsNIDOMINnV3GuTX32I7cjCNtoy6iVFQhfZehYXXmeMmOTt9demKVGtmAFgnC6tpBQcTWCMDtJv1p/BOFibfGhx5mV3kRbRi0czloE4Z2UmlTk8JgxgPbVXoiHOE6Gj+moLcQSGyf+7O8eMbMylLzcgcfNc4zwNyfYmKxvaczvCML92kJCxX6UIhQnPfDGmWA9WFt+6HEy3/yd97YPqxCE8UmbatlpAFUmue+iLcNSE7f6OAWvkm8QhLPTOkZbHqDYmD8zGOzzG012k8NrpnKirraUENGOBaQ2HvgM345TCRcfIZRoi4hLb9NU89ukhtdkqwFU2eogewJ/geMWBKGXtoxa6c16hDUp1621ZJh5dhHmMtQ22fM5VyEIC2ygMoPUMX1+X0hh36EIQj/tJYScbViBsFxbRgJsxWwE4feEP6GVBlBR1hlA/mx4aYniZgRhO20ZcRiGIPxopukmQ2MKTFaJsISChJvBWbToRynCevbSFhIqHkQQfkmpBOAGBEk6fGZJhnbMRBAe1RaSEB1NXeGMhOYK5JhWnEXspy1cAWfsyc30p7+PU92zGMe42F5bRhzyTTBsWFJ7NWQoC435s4xhGR21anGHzY2bPTNN2CwOJ5pmiF1T2vtu3/cOCzoN+Q5B+DAwHYNb8i2CsJAd4myZ3QYQHB01D8wGk33IjThjUv1OVwoRShMeqVeXISb3QVjNcJprL8CSAPVNB9VEZ1dZEmErChEqOCrF/Z/webF20MnjHQRhMo21pSRBY8YiCCvoU8tW2W4AwYFRJtBh2mIsG+M4uXfSlpEAZyMI/yZ0mziUOeZNV8SdtNKWbkmQZxCE72y2VgZpbLpg3ZLyEV5FEBtCdo2HEIR5dNAWkiT1TJepoho7jefwSJYbQLApQxhiPkP9tcVYNiY4JhC8jSA8kcCWzmC/Eh6knbZoS8JcZFzrQfsq8DfOF+wnabSA+BBhvfYyQstVpnGe3/MxY5HHUwhCacyWCdYA2sDlCFKrv8yixPUIEpAOvG34D0E4Mu6W7yOUsrm2YEsS7Mk6hFJbPpphnCf1TdI4wkSEpdrLCCkDKUdYzwHaQlIkx2SKVXDJRr+pNID21xbpA6613YH8ynWBqvY4kAqEJWwaZ7sfERZoi7UkQTvmIwgXaQsJHW+k3XDvd4Tp2ssIJX0oRqgIeNvJApN0MDzyk3yONJlC2VgGH4tgVF5nJUGzTh82bv3ap63MRvhVW6olYSq71mR2GK4FMmECzUb4WXsZIaSbqX68QVtI2pxnRqg+RC5bcafx1lsDaAPD8fs48qzlGgRhV20ZCVPfjE74X61brUUYpy3VkjAj0+haY6mdN9JOZl6B8KX2MkJHa/5FEJ7WFpIRTjSjhxZH1T/9bIPaEe5HEDpry7BsjDM4cTdtGUmwI+sQimsZ6tEUQXhJW6glQfZFEJbaG4QrvI4gvJfysJEcyhDGaC8jZFR2AvokhXav/uQQiiLGz0pG2tTfKjitAeIlcFgUcOK4iXbb8QfXmi4aNd3Uu9sRm4Gil3GiW9ygh+mP9WGKrQaa2BBlxskz1a2/hqpd68kIwnSGWG/uRjyNIElNVQsJ/p9FXgEQJ7PGbwznC2Anbqrh920AWKIt05Igf7MO2EZbRkiZwoEsBg5JseO28yVdqL2MULGjaZI3IVTX1bnj3ssTrNWW4jucx4912jK8x/8mkABBM4EqGMQK4Ooaku2cAuDF2jItCVLGFPD9kJbg8gdDAVLs7WNNoMwzieNZD1zAvdpSMogz3KNMW4YvsSaQb5GA6KzKXC4Bcnk2piPZmkBB41eglZ0M7xrOl9PKlPZtBsAq7SWEjHc4ihLgMh4L2ANozVgTqGbqARXZeG38b1oE0QsEMIrXgM48GON31gQKGr8BcBMttIWElHTMGOsFcoePOJoS4DweD8D3RCJYE6hm6pGVPiBrArnJecwBBnPCRr9xcoGsCRQcHBNoCFMZmnLlkqVmHBMoNTMmnX0ttfExR1IMDGFkAL4p4uOYQOXaMnyJNYF8S3BNoJWcRQXw+EaDMKwXKGh8zoUsBVrxAH9wjLac0JG+F8gGwtxgLAezBjibJwPwXREP6wWqGWsC+ZbgmkDwKSOA5jxd7TpvAhSzRlueJWHKeIQu3EwJsAVv8p3tKpJR0jGBrBfITb7iUFYDZ/KSMSGCizWBaqYeqZYjBBxrArnLNfwG9OfiKj/dBOsDCh5rGMYWPEEFsBtfMZqu2pJCg/UC+ZcJHEIhcCIvBtwIcoawWBMoFlnrBfL/W9oxgc5lX9ayiuLI/66khLWsNL/3K+s4mUnUZzjjTT4JWBMouMzjXJ7kHvYhh4EcyePclGIdkyWa5kA5RSnt2wSA1dpLCDFf04+xtOAEcjmFUm05KWO9QDVjTSDf4pg4J9T4+3WsZSXFFMf43xWUsIgfVPX/yQ3cTT1e5Dla0pIWtKQ1tjFicJnEvvTnAXpSl4s5lbt4IDtvHhmjBfsAM1N8nHE8SJ8l/NX2NYO0Fxw4JnEAY2nJQBpwXGDf7TYdumay1gTyPxdEjbVL7TVauZQ5l89iqHpW+8Ja0qIOQ1hk/pb/MFBbTqC5BEG4OsW9Ryd5P5imvdyAsiNLEYT3Uxxkos+FCEJ/bRm+ZDHCN9oiNAiKF+h0/qARDWha4/82pn4N82wGsjOn8K3aCio4nV+jzLD1LGc5v6jpsWSCUp5gNNdxEfXYktF8yRVMirFdM5rTLPK/a3heW7jvyOFcYD3PpLh/ETMS3nYTGtOJOgEO5ujxM/0ZR2sO422OoURbTgrYQFjNWC+QbzkfQTgwwa0b05qubMeu9OcoTuQi5iIIpdykau7txjHsy/Z0pJGiCkvm6cJrVCAIFbzMrTzI87zLF/zMTJZv5IH4Q1uuD9kfQXjZk3M9iCBsob3kwLI1/yEIH9NAW0oKXIEgtpYzJiUIH2uLsMTiPAThoJT3b8ZL5uvne7prL8YSSnbn6wSDMDO1pfoQJ5C1tyfnuhhBOFR7yQGmBwsQhC9orC0laQoQhN21ZfiSCoR3tUVoEJRAWOpF8as4hU94hMbsyk9cwRPaC7KEju/ow3HcQbfIT1azipWsivrfFVzOltYHuBHtOAr4mwmenM3JA7KPQqkzhf0YT3v24QMOC1hvM5sOXRN1ycEGwnzKEAThkDSP0pmJ5jn8dVpqL8kSSuqyDzvRlZY1dNsai6RY9h1mrkMQLvLobFsgSMy5fZbE2ZJ5CMIE05AgKNyEIOyoLcOHNEEQXtCWYYnFORlyXeczjDIEYbZHTneLJZp3ECoC0IzUS3KZiVDkWc1mPusRPtReduDpzAwEYWINJSj+5BYEoZe2DB/SGkF4SluGBv6/IUuGdJYxjD5MBzbnc0bYYZcWjykCcgKZRuoeh9IZeJkVHp2vjDlg06HTZhb7MQPYi88C5FW3FWE14bQ5yMpAmP9NoAogUwMyvmMnXgRyuZiJ9kZo8RQnCGazgaI5D4CRHp5xKtCZOtoLDzyz2Y/pwM6MC4wRZE2gmrAmkI/J7IywQk7jeFYAu/ALQ7UXZ8kirAlUnRYcDEyK2U/JLaYB+XTWXnoImMN+TAN24lNaaYtJCGdGmE2H3hhrAvmYzI9JfZ0dmQA05AHeDMwTjCXoWBOoOnnkAb96es6lgK0Jywxz6ctfwI58SmttMQlgvUA1YU0gH+PGpPjZ7M/VlALH8Av7ai/RkhVYE6g6TodhL8ct5HAiUMrv2ksPCQvZnz+BHfiKTbXFxMWaQDVhTSAf44YJBGXcSV+mAR0Zb5OjLR5gTaDqFAN4miB+ID2AN5mnvfTQsIj9+R3YmvG01xYTB2sC1YQ1gXyMOyYQwPf05gkgh4v5mq20F2oJOU4bueD11HWPcsqA+h6e0ek/9JD2wkPFYvrxG9CD8WymLaZWrAlUE9YE8jHumUBQyLkmOXpnfrbJ0RZX6QLAWm0ZvqIYL02gbhwC/JydE7FdZAn9+AXYitO1pdSKTYeuCWsC+Rg3TSCA19mBr4AGPMBbAalssASRg4ASvtaW4StK8NIEupBcYIT2okPIUq4A8Hn3c+sFqoksNoHCPyMsPnPYj4u4i7oczZ6cwUfaS7aEkFb0Br4y+S8WhxK8ywVqzOnAEl5TW21zDoj58yI+Nv3PgksDsxI/Y02gmrAmkI9x3wSCCkbwDS+xBW35gIe4KjvfDBYX6U8uMFZbhs/wMhDWh+bAs6YOTYOdGF3Db37gfH5S05UJnDR/awIFkyw2gWwgrJIfo5KjJ9k5MpYMcyAAn2jL8BleeoGcIRyrFVfbocbf7MoPPEgzRW3pEhwTyOYCbUwWm0DWC7SB1ZzLWJ6gJdvyA1fzoDm3xZI+BwAL+VNbhs/wMhdoEQBtFVfr1Etdy7QqP83jXPYlj4s4jit4WVFfOjgm0BptGbWSh/UBxSaLTSD/czyCcJJn5+vI5wiC8DHttBdvCQk9EYRntWX4ji8Rlnt0rvoIwuuKq30EQdg8xm8GstDcdb6gp6LC1LkaQdhDW0atfIzYXLyYXIUg7KktQwMbCKvOXPbnEtYDB/Erh2kv3xIKnDCYzQSqjpdeoBIK0fUCdQAq+C/Gb16nBw9SDuzDz4wIYPco/wfCDqEf1gsUG+sF8jHHIQinenzWnfkHQahgJA21L4El8HyEUM4m2jJ8x7sIFZ494PyD8I/iaicjLKjl9zvyrfEFzeU4RZ2pcB+C0FVbRo30ZjWCcKm2EF9yG4KwrbYMSyyOQRBO+3/2zjvOiWqL49/tC0sH6QICihUU7GJHQQU7igVQURALoKLYgWcDO1hXrNixoSAgICAgNhBFmgWkNylL35rz/pi7Ictmd1NmcmeS+83nPSGZmfu7QzJz5txTYj5uJUaoy9FC2ug+CQZPk8EuJKb90L3CxwgSsy5hMxFyNM52A8LP5W6RTA82q+vOOE/1s89GEK0+tvI4iPUIwsu6hbiUJxGEg3XLMJSmEm8iCD20jH6JuhztZZAHlgwNbqUDgvCYbhkuZByCUCNGo32CIDFtyBFIOkUIYyvcrh7v4kMQdjGINE1qw+U9BHHpAl5tliAIY8xVPAgZnMXMMqPUDFo5iaXqiairJgX1mKAUTHZ9E0CDW7GesU7XLcN1HEkhwj8xy0t9EUFoqmm2TRGEF0Pa9gwWq+vOIk98b5L4GcHnShOjErMRhJnajF93ksTRDOQbdqtvmpj0H3eRyZMUIghbuFqjjiT6k4sgbKKL7pNi8CS/I+yK2XKPd/gyxtmeDyEIx2uabXsE4d4Qt06jv4peEca4doGpmGsRxJW915L5DEFYTC3dUlxEJoPZ5Dd9rJWOqSqk3eAKTlSuS2GsC2zTI1lggqMNEVIfH8I43TJcx/H4EBbE0HPQG0G4UNN8rww7qrERo9VVcBv9VZNPN1KNtQiFHKNbSBCeRxDWeSquymk68Jff9CliHsM5J2YFSg0hkMlwv/8n1plgZVGJEWp9fjFH6xZj8BTHIQg/xbCwgzeYhiCcH8MRL0QQbtI037sQhDPD3Kszy9XN6ldO0KS8IkYiCCN1ywjC3QjCDlcaZ3qoz/vq+7SdUVxJHd2CDPtzgn8VfIKqpuoWOqqsglwTHG0Ii8kI4rk0Z2c5D0GYFdMxT0AQHtQ042cjzLqpxBC1FF/EaGprUl82R1GAsCFmQe2hcwVFCPl01C3EJZTMNzxQtxxDaTIZpvw/WzWkwVdMXb5WX6ApJjjaEDJtKEL40zPZPc6TxDwNIeLNEIQXNM15DIJEGG9xMN+oK88GerjKn5jEHC2V2yrmNHIRfFyvW4graMkDfufCMjrplmMIxvEs8luobjUwkuitIuj/4yLdYgye4QMEoY9uGa6hm/qdx5ZMFVysh++jbAbShdXq+vidi5povKjaerjJLAM4gq0IwkO6hWjnQO7iZ3/sTx6PmrgfN5LB4xSowL+eusVUwBH8rr5Oo00MvSEkDiIPYZ35vgCQyl8IRRpKjm5HmK1p1isQ/ojqCDV4QXnJ83jcBYkZDVVOn/C9y5ZVGrICQRilW4hW6nIrsyjymz+5fMahukUZgnEsC9U/0njX+n8CyfQHRy+hrW4xBk/wAoJwv24ZrsDKzHpPw8h/qcDd2C9JJpOHMDHq47TzP9H/qy23zeI6tgUkVW/nJtd4gqrxG4LwdcwqTrmRW5W5LAgFTKQn1XVLMgQjg8f8/p/rdIsJg3NZhyDkM8QERxsq5AB2IOS4MJw11lRiDUI+LTSMfad6Jp4Z80o79RGE1204UjJ91SKP8KWmQo8HMlEpWEoPVTJEmKyt7GQgaSpuaq5La1XHhmvUN72I6fQxeV/upR1/qJ/P1y7L/6qYuqq8v/AtjXWLMbieIQjCM7plaMdKVH5J0+jnKfNhTUxTzFvyBYIwxKbj1WW08kPv5l7SYzgTSKKHOocFjCALSGMQeUqN7mzZJN5GEJa7vpykk1xAPoKPIZ5YVUlY0nlU+X9yPBq1vy84ehvddIsxuJwqbEDIc3E37VhQnS0Iu2igTUEL5bXI5caYjFeHkeSrh6XrbDzu6f70kcWcEZOZADRjCsXtowPrbLdWOX7CTFrGTE1pHkcQNtNKowbdnMoeBGGQbiGG8mjrd59O9LQP5Uj/PO7WLcXgcvohCG/rlqGVx9DfMjaTd/wJDc5mx6TT3x8xs5SuNkfLpNKfHf4sWuevokn0VuMVMKxUw5fUmPiCatCEIziRc+hKLwbwEE+SzUd8zUzmqzKSezjJ8XPhXiqzCkF4UrcQQ9mk8z+//6eXbjFRUxwcPVa3EIPLSeMfhKIEri9elx0I21zQr6m38szMdaw/djJd+VcZKP8xyKHlqn1NNHIcbqLRXNXzFhZwbBnbHMVctc2sCIpAls/1bA8Ivy77VcjFDp4F9/MogvCha4LTDUH4Vn1ZJ7kslTJyNiH8qFuEwfVco6Uejnuwqsjco1sGAKexEav9cbhNK0KhA7+qq9xuhlHN0ZkENtE40ZERkumtmrbmM6xcYy6VQaqW9R5bfUHtlYep7NdWVrKQH7Q1QHEHLdiLkENd3UIM5fEvwm5ujCM79Q+Ef3WLMLieZOYjCK11C9HEPwibXFDRxqKZMlPyuMXW47bx13IuZFRMAlIr86gyEYp4yfZWFS2YoebzW0jdto7kF7X9bA6xRUEzZa5+y/u8yjDu53au4zI6cCytaEhVu0+oZ7EqNfXXLcNQPqsRftEtwlamIOzVLcLgAa5AEO7VLUMTqxHm6hYRQCZvqpv1ezYZZo3I9tdjmRLT4o8tmaTG3UJv2x4vU+mvUj72MiTkekolfUHRLs9VUcVoRzt49uKD81SgeiLXQ/IE6xF+0C3CVt5FEBc2CjS4jRoUIEzVLUMTGxHm6BaxH/1VXOIvUS/LV+dxlYsjzOUsDXO5WlUrE6ZzuA3HO9JfiHFO2HWF9/mCZnIpHTiZdrSkKTXDDEFPZqxSkBHWfolHMksQRMs3zxAWm4l1j2ineQpBEjoR0xAqcxDyErRVxjaEGbpFlOJ0tcyykQe4lMPCDlzO4hz+x3fsVbf8FVyjbZG/OiOVFyqfJ6L6lqXxkD/D686IPDmp3K98QaVfO9jCMpYwl++Ywid8QDbPM4z7GEhvetCVTpxNO44iG0FYmdB1fkLjQgThU90yDBWzHWGabhG2MpDY9702eJOhCJKgvZp3I0zWLSIIjQMaSQoF/MlYhnE9p5Zbv6gl3XiGH5UXqTgodyCZmmfTlp/8xlikzZxb+3O7Zkf1aHe4X0s0r90a+sl5j+8QJKRoLYMfPWuGqUCB7qnbykYA6uuWYfAAk3kYOJdJuoVoIB3I1y0iCGs4jZe4Qf0tlUM4xG887GYZ/7CCtWxiI1upxkEcShuO3S+1v4BfmMqIqLrB28OvnMRNPEFNmjKW8dzOirD2T+chBpEG7OI+XsYXhZbFnMIF1CODylQhjZqkUYXKZFCdNKqRSSWqVngfyqNI8zl1P+04DZjGfN1CvIU+E6hQ99RtZQNgTCBDKFi/OX3VkfWRQiqQp1tGUHLpxUCO4HCacwSH08yf0J1F63Iz+ApYwFS+ZybbdU/Cj49sPmEwt5FMZ87mSZ4I+bwfx5scCcC33GRDnmshX1a4TRI1SCeLLNJLGUmncyI1mUkXvtd5Sl3PQACe1S3DEApFSAg/Cy9xFILwuG4ZBg/wGYLEsKWBe6ikirZ5gSq04yoe5G1msz5oAb4FvEFfjo1xh67wOM3fg3FJSEGymQxRJSO3098l7Z8z+FQthl2gW4qLaUw+wlKX/JsZyiUlDoO2DkAQ3tAtw+B6mlCA8Ecc1cQKneoIwju6ZURAFQ7ndLrRj8EM4EqOdrixhn2kcTe7/In/5fupT1AZRcJEVxWtTeUtFeDdXbcU1/I0gtBbtwxDKGQgCB/plmEryeQjfK1bhsH1PIkgMWrQ6TasB4XXdMtIOBqG1ETjapW9tc3WZq72kKRybn3coVuKK6lKDsImzxjmCU6WeiKJL9YizNMtwuByKrMZYYtr6iPHlsYIwou6ZSQkZ7FUmUHzgzYRfRAfgvBVTKpZR8LdSuHjCelBLZ87EIQhumUYQqMGgvCWbhk2Mw9hrW4RBpfTJ6FjxpojiAnY1EQlhqjKRT5GUyfgk1ReVe8PcbV50V3FKb1tqh+XIIVlCLkmHccr1EEQRumWYTMTEApMMJqhXH5HKHBVnEUsORRBeEK3jAQmWBONqkxQndKu1S2vQrqo6ttfmiWfAK6MyztqHNMIQXhFtwybsXoNHaBbhsHFdEAQPtYtQxutEYShumUkOF1Y5W9ccSSNVOPerR4p7HoaOQjCDKrrluIafkTwcYRuGYbQqMVMBOEF3UJs5nEE4SjdMgwu5isEob1uGdo4DkF4ULeMhCeLYaqidaFqgfqPh5r7tFFFCuaZlhkAdEEQJuiWYQiNpixGENZxtG4pNtMfQeigW4bBtTSjEOFX3TI0cjKCcI9uGQbgGH7w1zj6gbq65YTFQfyFICynpW4p2mnAJgRfQtYZ8yBHshpB+DsOv7rWeqz7V9MNungWQeipW4ZGzkAQ+uuWYQAgmd6qAanunmbhU5/fEIS1Ce53T+Jrk2XpHc5Sq7g/lMhGiBesy/tA3TIMLqWKqtzhvduNfXREEPrqlmHwsxfhG90iIqKGagq6LYEXluFuBGGRCQ73AteShyB8Eaf/XFa2y1O6ZRhcym0mFJgLEYReumUY/GxGmK1bRIQUN87I5VLdUjTRljyEvbTRLcRQMf0pUkHQ8Zo2blU7ele3DIMrSWIJQj6NdAvRymUIws26ZRj8rED4TbeIiElhlArqTkSzOksVu7xVtxBDRaTwor/wVjyzF2GybhEGV9IpLiuih4sVL7eTc3QLMSgWIvyjW0QUJDFE3Vvu1i0l5rypMsHcXMzSAGTwsSq8dY1uKQ6zAmGBbhEGV2IVnztBtwzNpPOhuhZcpVuKAYCfENbrFhElxSsMIxLKGLA8qhtMYQC3U1NVAdpJJ91SHOdHhE26RRhcyMEUIfyiW4YLSFIdrRPxqd2NfIuwU7eIqClunPFOwjTOaMwWhCJThMXtNGOJSl1MhICtsQg+0nTLMLiOkQhCD90yXEJ/1e4ysZ7a3cmXCL44iM/snGCNM15CEIbrlmEon2NYp1L2muiWEhOyEcS1fZYN+vgDQfiRmrqFuISeqjbxO+aBQTPvIwhZumXYwIlsTqDGGVYYuLcKWiYcZ7M9jqsABWMogtBWtwyD62jC3wjCfNNDTlHc7nIclXVLSWheQ5A4iSc5gjUIwh8J8BhqmUCJcmf1JD3U6uznCeKYBLgFQRhPdonX/cbdb6A+CxGExRFfno/nzbgqgn+Cemr/0VzINWJVLG+hW4ZNNEuYxhnGBHI5+1b7vb/KHDqX+nvulHxlGyPIQF1+RxCW0jjsfQ/nc/WLmhFHZtDhqmP5Yg7ULSVh+R+CxFGkZj1+RRDWx10PypIYE8jFJPOKyvlItGYRJ5dhAhkjyABQk58QhH9pHsZezXibwhLfpumcrnsqNtFUpUusDOuMGOzjHgThFN0ybKQKU1TjjFN1S3EQYwK5mLqqaHniVf5Ip3mpV2d2IQivGiPIQA3mqFt+aI76eoxUbWWEhdzCrLgzg+rwI4IwSbeQBOVWBKGjbhm2kslYlR0WvxgTyMU0Urd8g0V7diIIryfUoqAhOFlMU476IyrYsgaPKvNZWE539e05O8AMmhYXT+9ZauniYt1CEpKeCBJ3PbZSKUQYp1uGgxgTyMUchCA8q1uGiyg2gkYZI8hAZSYjCBtpXc4297BFGTrruY30Ep92YLb6bE9clJs4CR/CMjJ1C0lALo/TilX5CON1i3AQYwK5mENM0aZSGCPIsI8MvkQQtnJ8kE/TuJm1ysTZxv1l1GzpwPdx1JZ3NILwoG4ZCYjVu66vbhm2k4cwQbcIBzEmkG3YX1DcemIt0D0xVzGb85lAFW4E+uDTLceglTy68iGXUpNvOJ8fAj5JphtDVZzQHl5gONvKOMZUZrKYFlxLR3ZSyE4gB2E3+eSxBx/bgR0UsZdcCtgFbAN2URDw+XaXfBfv5kKqcz/vsUK3lARjFwBVdMuwHR+Y6EuDHo5BEAbrluE6TjWeIIOfFN5FEHZxpv+9DioqRsgnO4T6QZ+UmYEY+muaS24UdyMIY3TLSDisq/UQ3TJsZzfCN7pFOIjxArmY4xGE+3TLcCHFRtBrxggykMJbCMJuzgFOYoYySooYE2K+WD+2qST7ZSxjK1tVOdLwXrfqPhEApKv0+HN1C0kwDkYQntYtw3Z2IUzRLcJBjAlkG2YhLHbMUsthNwF9EN1yDFopoheF3EhlxvGjP8V9KvcwP8QjjOQnfiCJPI4K+L1lUJkUqgHVSaYyGaSTRRI1gKqkkkklUqkK1OAiMhjOJJbpPhnkcztTgOc42lw7YohZCDMYbOZMBKG/bhkuZZ8nyPxADUm8E+CPmcHJYR/BWgy7OcLx70MQvidF94kAUEHi/XTLSCiqxlFQfSA5CNN0i3AQ4wVyMefGaY6BXZxmjCADAI15TXVMF+ZFWJ7uSQThoQgVpKjChHfoPhUANGcvwnbq6xaSQCTjQ/hCtwzb2YYwQ7cIBzEmkIvpjCDcqFuGizlNlbwzRlDiUothqle6sJQeEUaH1Wc3wmaqRazjUPYg7OVw3ScEgEdUwoAhduyOy6iZLQjf6RbhIMYEcjGXIAg9dctwNcVGkOkdlpjcw3Zl/qyiVxTxeCMQhHui0jIQQfjBFYthlViBUBS0XpLBGTYiJQozxAf/IczSLcJBjAnkYq5AkATsEBYexghKZP5FEP7jjqgqIjdmL8J6KkelJZnvbDCk7MK6evxiciZjxnKEP3SLsJ2NCN/rFuEgxgRyMdciCJfrluF6zlELIVfoFmKIOf8iLKNqlEd51abw4ebsRMjlSN2nBUD1UDNe5FixAGG5bhG2sx5hA7V1y3AMYwK5mOsRhIt0y/AAFyIIL+mWYYg5/yIhp76XRTPyENZSyQY9/RGEX0nTfWKAI8hH2EB13UIShDkIm3SLsJ0PEIRxcetjNyaQi+mNIJynW4YHSCYH4TfdMgwxxw4T6G0EobctepKZjiA8oPvEADASQXhGt4wEYTLCHt0ibKcafyEIt+gW4hDGBHIlx9Cb3sr+7qBbjCeYhFBknncTjuhNoEMoQPh3vx7ykWMthuWV070+dtRkE0IBp+oWkhB8gSCuCIa3l7bkIezmMN1CHMGYQK7kgYAyb6dHf7gE4CHTFMAzNOM9HuQ4WwJ1ozeBPrQ9YqYvgvCbbUZVNNykWoXU1S0kAbB61cXjY9i9annXDd9ouzEmkCsJNIFO0i3GE5yFIAzVLcNQIT38aez/8QE9oyzfF60JdBRFCEtsfXZPYkoYLTNP4GTHPAcn8Lk6150cGsGwj5fj1mufrELrn9AtxAGMCeRKHlBtFzvQIS6fKuwniwKEqbplGMqlFmNKNRf18RvDOSvCJ8xoTSBr8eJKm+fZlO0I+bStcMuWbEP4j9FcYesvPYnz/e1i3RObFN+cqZqkxCON2YJQxJm6hdiOMYFciWUCHadbhqeYi7DLgWa1BrvowBoEoZAnuIRXVU2f4tcuxnErzcM8ZnQm0LH4EH53oHbOjQjCAjLK3aoKfwScgXymcReHRD12Gt1Z4D/qYgThc9tnaCjNt3GcwHI5grCamrqF2IwxgVyJMYHCx6rvG+y5O5knGMogbqU3V3AJHWhPOw6hOTXjsLOzO8lkGEUIwoqA6Lbm9GaMf2HM8glNoUsYCbjRmUATHSs7kaSO/Vi521itWZewooQx+BfPclaEafUZDGCl/0jfcQFJ/IuwNm6Tmt3EyQjC3Dg91+8jCJ/olmEzxgRyJcYECp8rEYTbgnxyWKnFl5KvPWxlBf/wddw94biFNn5vxztBunBl0oGnAvwWwgJ6hVjtORoT6BRVP9mZG1ZjtiEUlNOi4l7V2KMu0Jr7+J7CgHOQwxh6cECYo16l9i7ic05U772JILRzZJaGkkxAEC7WLcMRqitT/WrdQmzFmECuxJhA4dMYQfgwyCfXVmAC7Xv9FEWbTENwkhlILoKwha7lbtmQG5nr/7fYyBDqVXj0aEygaQ4HCvdUC1HBjblOFCLsLfErr0N3PiYn4BtZxBzup03IY1rhz6/TKuC9ixCE/zk2T8M+2uFD+CNO25K0pxAhh6a6hdiIMYFciTGBImEFwqog7z+LIPSgA5dwBb25lUEMZRivMIoxfMkU5jCXrQjCbLJ0TyOuaKIMDWEKjULa41Q+83tDcnmznPo6WTxKfsQm0Nnq39tJvkIQngrySQv1fbsuyGdpnMUz/FnCOF/Jy5xfYf3qKuyhdJ+qyuxGWOToTA3FOBNg7xaeQBBmxVH1I2MCuRJjAkWCVUrywFLvz0TYW2FsRSP+UT9vYwTZxVVsQxD2MiCs5abmPM8O/+1/Kp1LPVUn0Y3V6vNJEWmbgyCc4ej8G7AFoZCT93s/Sy37vVju3gdzJ9+SH2AI7eZLepdjSnZDEB4u9b6Vh3eao3M1WBxJEcKfcZqYkcpPCMK9uoXYhjGBXIkxgSLhVgSh237vJrMD4acQ9j9Q5ShNjqrruMGiGtnqxr2QoyPYvyq9Weq/+f9D/wDT9Ghmqve3MSiidPoLlGfKaa5GEJaVCLtP4iOs9OlQlGfRhWzWlfAJLWIY7YMstljLYKWr+J6BIHzs+GwNgPrX7aFbhkO0ZCdCfjkxbt7CmECuxJhAkXA0gvDCfu8eiiC8HNIRWrIWQZhYQTKzoSIOVXlJRTwVxblM4XJm+2/8WxlGY2rzilooK2JUhFWPk1TMUSzKjn6GIDwf8M49CMKaECKdAs/EyTzO7yUMoQ28waUBxpW1DLYw6P4LEfJpGIP5GuxuueI2+qo8xsq6hdiCMYFciTGBIiGFHIRf93v3GgShV4jHOEQ9b38Wp47sWHGximCxo5TacXzgXw7K9wcLfx9FjtOlCML4mJyJOmxAKPKXAuhAIUJuhE/R9ejBGHYGGEIFzGYQh1L2MhgU37ZGxGTGBqvx7k26ZTiGFeP2km4ZtmBMIFdiTKDImIxQSNUS71nB0EeHfIyj+A9BGGOMoCjojCDcaNvxGjOMLf7b/lqujSKVPZk/EHwh1G62h8sDFsOaq1mEapIHpzIX8poqNLlvcWwJgnB40D2yWIeQR4sYzTmxaUYewsq49SUfwHoEH110C7EBYwK5EmMCRcZglf7bPuArPQMhNyyn9DEqW+fNOE1tjQUdEYS+th4zi778SS7Doixo2QxB+DKGZ+Mj9dRcmd8QhFdsOWoSbXmYn1XJyeK4q7Loq6Kf4rNsn9uw4uBui/5ALqUTPoRNUXb4cwPGBHIlxgSKjHMCbgZbmMMbDGIHwi9hHucEVbH4FXPDiBCrbW0/24+bbEPP85Zlpqo7RW02IPhUFtpsm6NE6nEDn6nFsSFlbpXKrwjCLTGcd+LSkD0I6+IkXiYYr6ioSa9fIY0J5ErcYAL182A92aoUlFgcKH69GvaR2rMLQXhO95Q8yqkIwp26ZQTFqhb+eEzHvChgEa+BIyNkcC4jObScLY6hACGvVIq+wQlGIggDdctwjMpq4fVm3UKixJhArkS/CXQXwi4PNvzLpA1X8CDvMzegskwkgYlnsQdBGKZ7Sp7kRARhkG4ZQTkKQXgkxqO+i1XsMRZZaGUxQGXWee/hxnvUZzfCf/tFJsYTbclD2F2u2e1+jAnkSnSbQIP8+TfX6j4VUdGYs+nLiBLtAkKnk2rsMET3NDzIsQjCg7plBOUYLf+qNVmL0Fvz3N9R1ZQu1KwjEXgKQSpoCuNt7kMQ5nk6/d+YQK5Erwlk1S3xqf+/W/fJ0EixEXS/biGeow2CMFS3jKAcp8k8O59s3VMnlQ/V73oUjXWLiXOsxs1X6ZbhIMmq/c1juoVEgTGBXIk+EyiFpxGEQq7lXmUGPZfAmVGXquiie3QL8RiHa4i3CRVrkU5HiX83/I5SeEb9rvfyMT05mgaefop3L/FvAkFjtiIUOdxoxkmMCeRKdJlAVfhSGUDdAeiuStJ9lsAtI7pSiOAzmTRhcXDMs65Cp32cB6pWTBdWlUoZ2MFWljObD3mSPrSrsKeeoSISwQQqLj27mpq6hUSIMYFcSGWmazGBmrMQQdjJxf73Oqj08GlU131atNGTIgSf9jgOL9HMxfl0VsesAbplaCWD21gcNHuy+JXLLO7hEN1CPUximEDF7anf1S0jQowJ5DqqqRaQG2Pc0ecUNip7vmTV3GPV+38kcOxAL3wIRR4PDo8ljai4E7ouOsR52brQac5NDCWbMYxnCj/wh7/9yL7XDC72fO0XPSSKCVSdFR6e6UfGBHIXdfhFGSKxTTXsRR5W56XSzRub8xeC8K/H0x+joZ9aIOwW/aESgroI4oLw32B0iot6Jk5RnaO4imeYFVBj6zuHahnFN4liAsGpFCLk0FS3kDCppHxAxgRyDQ3UUtQ/NIvhqCkMU1+ED8qI+amnOmtv4RTdp0gbd6oyASadOBRqYbUYcSN29y+LV2pyrVqSF1ZyhG45niNxTCDUHWQmKbqFhMGhLEAQinjEFYkKBpoqb8tiGsVw1Kqq76+v3EopWUxAEHbTWfNZ0scQBCGPC3QL8QBVXRwfYHWxv163DI/QXUUGtdEtxHMkkgmUxs8ey5y9VrWU2UQn3VIMFq1UlsbcmDrl9oVAX1TBlqm8oRaD+ug8TVp5HEHYw1m6hbieTAThI90ygmJ1bu+uW4YnyFCNXe/SLcSDJJIJBIexGyHfE50tMxnhX+KNbcStoUyOYJ1yJVaL4ain8x+CsJwjQ9g6SdU79ZUoK5dBTWrRnOa0ph0n0oEOXE7XOPWVPKl8YafrFuJyUlQxBTeSWLem6HhK3SjMQkH4JNr37Ba1huH2KlOt+F3dx0aY0g96SaMBrenA1QxkG1bf3Vh2Fr5RhUDP5ICQ97mDIgRhDVvZSmG5abVvkRH7k+owSbyEIGznBN1SXE4Rwle6RQTlmrhvXGAXVpjrNproFuJJEs0ESuIbBImwHVGsKF4A28g5uqXEG6lhbd2Kh+i2X/DYZ1xNfozUpvC0qozyJn3DGPU51vMO6SFFK11HSy7lvxjNKDYIt1OJ66nGJN7jDxayiO26RbmSQtLD/E3EilSlz1A+NXiPFKAvq3RLcQG96BjmHgfqlhxjhEmcCzThT91SyqASL9ALgBlczXrdcuKN0C/3B/MQV5eKnX+HXhTFSGt1PqITUMQgnglz34/4j2cpQMgBdlFAAbuAHIS95FLEDgAeow7tWUlukGM0U9t4ER83kcHV1PBXllnJIv5gIQtZQp5uea6hgHSXupmNCRQaL9MEGO3SiK7Y0pNRpjpShVimslt9hocxhiMBH48xNGb3WsN+tOAtf72NvxjFo/TnGs6ldQx/YC1UXdjtjsbrFAdaB3vVj9lcnSGVd9UiYslXAYsZw0NcSktPpYc6wTaEGbpFBKUPgnCebhkux8oEW+XZxgd2clkFS/7lvRJnIay4AfEQ3TKC0t0sgDlNxV6gptzPDWq7FTzBm1qeRM/gU2oDy7mQRQ6Os5yTyebg/d5tTD2gkoZ520kh3bmeJhzB4RxBO1opgyeVwzhMRZnk8w+LWMw8FvEvoltyzCkA4wXyLI0ZAfjozjbdUrTTkQ9IAQZGVOdqt275McTy/7ivzGAmw+kHwHdczTrdchKTJowgVz0XrKC3tiiJ4hDo2dTVMr6VVn6Yptk7RTpH0JUhjGOZ6sJd8pXDXEbTnw6azroO1iH8rFtEUPojCGfqluFiklVJxEd1C3EBJynvwRDdQlxPMr8h+Dhet5D9CMwAc2d0YtxzICPY66+y2l9bntS+KtCva0tcfAhB9utCFl9Upx09GMEU1Vtt/9dWZjOC3rQnS7dUR1mJMF+3iKBYdb5P0y3DxdyHIMxzfXqz87RhK4IwUrcQD3CNKwthdDclEPXSOMD8WaXR/IGqjFOlDQdpPB8DESRh2mwcSCfu5h3m+b8Dga9C/uRT7ozTMMt/EBbqFhGUexCEk3XLcC1tyUPY7fLk5lhwCBsQhLfj9DdqJyksRSiitW4hAewrgTjDlEDUQV2G+W99q+lfRv+t2NCCRQjCDs09rm5FEDpo1aCDFA7hMgbzCUtLhVY+plucIyxBWKpbRFDuRxDXuevdg1XdxbSRbcJK5dcwyycVcyOC8J5uGQHsWwAblvDJKRqoyzD2qFvcRgZpNX/gTLYgCMu0NzvsjSAJ3mo0k7Z0ZzgTVEsUobduSQ6wAGGZbhFBeTjuF2OjYzXCkoT3e9RjKYIwOQ4LvNpPOssRCl3kOdy3ABZuPSeDLfyjbm7r6KfZ/IE+5CtnoO5Y/ar8iSAJ3Gp1fy6hCKEgDtuJzENcWlJvKIK4ymHvJrLwIXyqW4Zm6qiSHt/HecSeXdyOILymW4aiMm+q++80GugWk6isRtjBAO3p324Igd7HuwjCBNNxKICbsbqOnahbiM38iLi0/upjCMLhumW4lKMQhGG6ZWilGr8gCPOpoVuKJ6jEGoQ8DtItBIDDlflaxFCzAKaPdQg/6RbhkhDoYm5WUVG6fVFu4xnlsG2pW4itzELYrFtEUIYjCIfoluFSzkcQ+uqWoZFKzEAQ/qC2bikeYRCCMEK3DAB6sAtB2MDZuqUkNpsQ5mjWUFwFegdddJ8O4Cj2IBTQXrcQ15HEewjCEmrplmIj0xGXdk+zTM7mumW4lJsSPFovjfEIwj8mhyhEqrAJYY8Lzte+DLDpLlCT4GxBmKVVwalsckkINEAVliAId+sW4koymYUgzNQeN2YfkxH26BYRFOsy2VS3DJcyBEFop1uGJlL4CEFY45JFHS8wxCVLp4eywGSAuYcczR2SblIh0LqqQO+P5ef4OuHzTMqiljIRx8RNnNTXCPm6RQTlRQShkW4ZLuV1BKGebhlaSOI1BOE/EykWMjXZhpCjfdGweAHMZIC5hJ0I32oae18I9CgXhEAD3KJKQ5oooLI5SJVhe0q3EJsYi+Bzpcn7agLf5CtmIkJ+3Bji4fE0VvvoRPWBRYIVWTdYqwazAOZCdiNM1jJyNbWW7Y4QaIDWKgooUWpCR0o7Vcmin24htvAJgriyqJzl59D91OpWFiCs0C1CC/9TuZmmdUro1Gc3wmaqadRgFsBcSS7CRA3jtnRVCDRAVVVi7C7dQjzA+RQgFHGpbiE28AGCaC8KEYy3EYTqumW4lA0IP+oWoYF+CEIe5+kW4ilGIgj3aFRgFsBcSgHC+JiPWhwC/Y+L1rLfRxDGu3JJxH1Y+Th74qCD1TsIovXpsCysuDRT8i44uQgTdIuIOdfhQyikq24hnqIJuQjrqaxp/EoBC2CmBKLL8CF8GeMxe6sQ6FkcoHv6fm5XUUBm2SFUnlABmV6vW+Pe5SYr58e0PQhGZQThA90yYsylFCL46KVbiMcYhSDcpml0swDmYpIQhM9jOGJgCHSa7un7OZZchPw48GnEjiRGq2IG7sjlixQr6Li+bhlB+BRBzEUzKA0RhJd1y4gp55KLINypW4jHaEk+wkpNDxP7FsDO1X0iDKVJRRA+idl4NZnishBogBosQxAG6BbiMdLUv+bPnl6seQFBOFC3jCCMRRDdIlxKKwThSd0yYsiZ7EUQ7tMtxHNYC8o6PGeVyDYLYO4mA0H4KEaj7QuBdlf70c8QhHEmCihsqvG7Onfe9VU8iyCuLDA3DqFAtwiXciSC8IhuGTHjeHYgCM/pFuI5jqAI4S8NOZ9mAcylBH4VrH+YopiM24Ex1AT+oQtLdZ+EAHpyKfAvPcwTd9jsoAs/0JDOvMXX+IA8VWk5BwFy2QsIOQDsIa/co7WkCr/FfA6WkeGeRdl9pAKFukW4FOsqFpsrl36OYgJVgVfMIljYPEIyMCTmv6QevEwWsInumsrOGEKgKoIwOgYj3UoBgvCt6/pLPYognKNbhmc5Rj2fhvoqYitb2cpqlrGMv5jLXOYynSksoYghMS92Z/37u6E5y/5MQdipW4RLORZBeFC3jJjQknUIwnsJWggyGtrhQ1gY4zNXSVXvFqaZBTD3EbkXqBnJJKs6JUnUUO/WVP+toRaSiv9bXX3tqpFCA1X951X6uc61b52P1bpleJb5XMzEMKp7J6tvTM2gnw7mVHqyJob6jRfIi1hXrkQ4O42ZQgPgK67Dp1uM53iUJOChmJ65QxnDUYDwJA8kjKfSQ5Q2gUL7ejwS5TNXIXfygu7JByGWi4HxyTROowlQbP5mqkKDlpFTmQzwm85ZpAMpqg5PVVKBNKoE7H0Wv3NzDEP0jQnkRayubvHTrLcsDmAyzYBpXGm+C2FzCp2AeYyN4ZhmAcxT1EUQXgthyyfDWuwo/drm2pRAKxy2uW4ZCU+WqnlifV/eomqMxr0HQVxZDuEHhPW6RbiUg+OqT11ZVGcegvCjekgwhMd0BIlhNWazAOYJwl8IS2IEtwP5vEIuUMAuAApVpEIRO0r818d2YF8YrJDjD5N1H8YL5A7akQIMJ4m7SeY6zqAHs2IwruVPcKMXKAXzvSwL6woU34ZBZcbRFviD89V8DeFwDmcA3/NNjMYrXgDz8ZRZAPMKjRGEF8vdJokXEYRcLtQt1xFeQhAa6ZaR8NyFIFwAnM0aBKGAYTEwTW5FEDronn4p6rIpYRuBVkwVFSAcv6QzEUH4y5VlO73ADwjCGTEarbgE4kbXrncYgtAEQRhRzhYpvKX6EsdrzpR7qwMnFlY7iHoA1FDNS4WfONjhcfsgiOuaTqYxA0F4X7cQl5LEboTpumU4RgqfqJY9TXVL8SgXIkiMPEBmAcyzHIQgPFvm5ymqCcIuztIt1TGs/jF1dMtIeJYhrAz4ew92KuO7v6Pj3oAgKmPRPVidrZe4sn2rO1iAxDRzMJYk8YbyKByqW4pHSWI+gnBCDMY6jD9Uz4MhpgSi12hZblBhuqqbnMNJuoU6yJsIUkaKtiFW1MKH8GmJ95oxSz1bfeZgG9PuCMKluk9ACa5FELbSUrcQF/Mpgs/TrVnKIomXVQrJMbqleJZuCBKTTLB9C2Dxuk4S11iddoYF/Sxd9SjaGhNLWh/vIIh52tZMJwQp1TkulUHkIwgbHFuqsi6WV+o+AQEczW6EIi7QLcTVPIEgtNUtwwGGKe/nKbqFeJYUFiP4aOP4SNeph7TJHm8WnbAcjiA8HuSTynyjbFvnv0Z6eR9B4vJp0ks8hCCcGeSTE/hbddoZ4Uiv58sQhGt1nwA/tVmOIDygW4jL6Yog3KNbhu3cjyDkxTCVO/64HkH4MAYjPaF61Zm63R7lqDKaDWbxrXr2PlK3RMexwnDjv8iau/kKweevOF6Sqv5+ywsdMMitsMnrdZ8ARSu1+Pe5adpbATUoQJinW4bN3IIg5LsuNs1LpLEModDxOKoTuZMlJpLU2xyNIAzZ793qfK+yEZzOxnEDVuZF7PsIGwJZh7CknM8vYwuCsJdBNj9xnYcg9NZ9AkiiIxNUacjFMSsM6WW+dGk5g8i5liKEIq7SLcTTWGbkG46Ps149mOWaxxXv0g5BeKjEezX4EUFYQQvd8mLC5whivsRaOZCK2/XWV3VShMk0tHHsDgjCrVrnn8XNLPZXUl9LK61qvEJ7BOEPV5a1jISLKEDw0Ue3EE+TyWqE/BjU+1+NICzjFd1TNkTO8QjC/QHvHMBvCMJyDtItLkZ8iZj2g5q5FEG4vYKtkuhPLoKwiYtsG/sMBHE48b48GjCEzX7zZx69zaJsyIwvdf3yLh3YG6fRTbHlrhDK/drDvwjzdU/XEB0n7fejq8cCVY8kcaolf424rnt9ovFEyDU8juR3ZSyMtqk9wikIwkAt827HaArUfIoYF1eLOrGgObsRCmJWAdg5TlRVsIbqFuJxqrARYW9M7l9/I/yhe8KG6Ghf4vLfgEUIwqKEqnA5CSFXt4gEZypCvuovXxGZjFARM8ttaW5qeULvi/GM0+nKHL/vJ4cRpgpwRPRCELZzrG4hUdGarQjCC7qFeJ6Hyq10Zy9LKohfNHiA0xCEOwBowj8Iwq8JFt8+BTFNCLWSxDaEX8PY4wI2qMyZ9lGPfgyC8HAM51uXQSqOwOoB1d+UZIgCK1vwP47QLSRiDlbf5ndManWU1GArws4Y1ej5A+Fv3VM2RMeZCEI/oCUrEYQfykhMjl+mIaqzvUEPhyAI2WHtU5dxymOZHuXoR5ZRGMIZjiabPcr48TGFLiYQP0pS+BBBWOfRWsoHskKVQTBZqdHyOILwvxiN9hvCct1TNkSHlQ1zG4eyFkGYmYDJuN8h+OiuW0YCcw2CcGOYeyXxFYLwYJSjH4ogPOH4LJPpwhS1hCfsJJvDHR8zMShuKbqXq3VLCZu6LFVZjk6U/Uws6rADYVvMmh3NRVile9KG6DhXheCtQxBm2BRg6i0upwghP44bwVZEJo1ozZlcyS08zAjeYxJfckDMxn8eQSIoetiEnQh7o6xe1QJBeNrRGVajt7rVWTFMg6jl6HiJRqbqZujjIZsXkyo5usBWn4UIwndUdvYEJQTPxTiq70eEdbonbYiO89QTqSBMDDEcNf64D0HYkqDVWO7y35pLvpbFrEv19wi7I1oGuBNBmBLV6E0QhBGOza4Fw9jmP6tz6WEWPBwgiSHKw/a9TRVhatKV0exgh0PZRU0ZyW4E4RfTodAGGrIHYVMM1zFmI2zSPW1DdFzgvzSPT+hqJK+om37sPB/uoW0ZJpCwNSbJxqnsQZgd4b6/Em2HrwYIwsuOzK09YyhUZzOPMZzoyCgGi2tUZZ1t9IwqwqohfZms2vM602uqJdn+4/9JPX2nLI54Neb1vWYgbNU9bUN0XKR+hh/HTYXVyEhjKoIwKwFX5JPZhLCbO+jO+ZxAc6pRXTXJzaOn4+NbTVqei3DvYylE2BTFwlIdBGGUzbPKoAd/+G+iGxiWQJW29HGEMomF6RwWwf4Hcw8/UBTwGGCV4jwzgmOVxcl86Y8I28C9xgNkC83IQ1gb05WMqQg7dE/cEB0XIwg/Gtc81VRRyI8TMEPHyqgpuXyQwkvqMj3C4VTd3ggSRVekEQjC6xHvXx1BeNvGGTVgCP/5b6K/0jthl5hjTzrDlN8tn5eoH/J+bXlExeUUZ+v9wD0cTCeVd2jPI2J7lccoCP/S33wvbOMdYt/pbxLCHt0TN0THZQhCD90yXMFBqjpH4tVnvQFBuLnU+/3V8/AYRy/VoxAkin50VVmN4Is4nL0ygvC+TbNpx2j/Eoep96yHtvyk/gV2MbSCFI8UTud5lZYuynSaTN+ALnRfIAh3RakpmS787B9jgYkIs5VDKED4N+oCGeExHiFf99QN0XEFgngwldQZjmU3gi/hTMJGCMJnQT65VAVsznGw2NhvCFui8r1domIqIlvETFPev2hJoyvf+29y2029Z40kc6Mq8yFsoG9QcyOTzrzOpgDjZzef0b1USnUzdiPsiKI1bzo9+NM/ymxTC8p2rKIIsS5sMhbTXdLzdEMQrtQtwzVclqAJ8osQtgW9URyvfGNO5YdVpgDhmyiPMhZBeCiifZMQhC+iVHCWKixhddi72dR71k5l7iNH/Yss5ZKAT6rRjY/ZEWD8bOEdLi4zMf3BKPyEVenPGv/i2jhbWroYSnIURQhLY+5X+xRBSNE9fUM0WEXpuuqW4SIGJWSCvFWZJ/jl+SDVOW4zpzow8skIwmNRHuVAdiDs5ZCI9i5AGB/V+NVVwwsfE+lonvFdQy2GqSwx4UdOozY9GKdCnK3XJkbTpYIFlAzlwwk3KLouQ1TvL6GIMR5u4eFuxiMIl8d83I8QJAETaOKK7gjCZbpluIqXscrXxabPjDt4FkEYXManNVS+XC7X2D5yfwTh4qiPMwBB+DYi82NP1H6o1xGECQlmOHuDFnykMrB8JXK9lvIEx4f4fTkfQfgjDD/DQYzwN0LJZTQtdZ+GuOU4fAi/a+iv9h6CGH+vt7kJQeisW4arSGOyWrNPjEpJKbygbhC3l3NO3lTbPGyzj8O6jESfMJ7C3IhD+7cj5EXxK+iED2FtzArzG8LleGYE5Hr9wv1hNyexllrvCGnb1oymICAmrIHu6cc13yII52sY2cpCM0UNPEkVunItvVU6dKJFvlREdZUemwhh4hl8jCAUcFMFWxbnh31kq2n4F8IaW47UhgKEzRGUt3xc1UCKzAiqzirzIOEBurCAafSjSUR7H8QehO0VmjPtGRdQ9WcI1XVPO845DUH4Scvi8xsIQm3dp8AQCc0DHMJiataWoquWDIPYU4uZWC1Szgth68uVa/9726po18BnQyhyMVaPoDcj2PNRZQRdGMG+r9teV8jgRgYjCO+W+XkSXQIyApfRP0G8yHqZqfEhPhtBTG1vb3JQCRPoSN1yXMdlCWECHaRad67jmBD3OFklES+Noo5PIFaPugdsmk8VViH4ImrrEakRdDY+hHVmESzusYKig3+70ugRUFhxPj1MnlBMsBo8TdU0ulU8NvJiCQaNNFGJwB1oTzvztFIKywSqaGnI27RjPYKwOKz6NS2U2bQp6vTeZG5Ticnn2jani5SBFkmWxmMRGEHVWGlTOLfB/XREEBbuVyk6gx78bar+aCBJtUM5SdP4Vl36yBZWDZppjCC8oFuGa7Eah2zlWN1CHOM8diIIM8PurlVLhZbujaqe1GH+RYM/bI2X+Lzc3LbyeVKlLz8XYnJ9C1WSbbSN+g1uxmpvsa8VZzX6++tBFTGOE3QLTCjuQBDGaRv/GUo3FjJ4hIYIwku6ZbiWFJWplBOncVI3qIyVTyLyAKarXAgf90c0ehoPqdosuTxsc1H7xuxAyI0wPf0F/9P8cl7h4jKzPVpwL/PUluuiaNFq8BbN2esPiq7HEH/pxTxGR9SW1RA511KEUMjR2hQMR5AIa5EZNFMfQXhFtwwXk8K7ygjS5WZ1jsHqwv1cxLU0knhY5b28EXYDyeNVQ1rh+7BTk0OhH1an8PCXI5JUP6h9rwK+437aBZyn5gzyGz/Wza+LA3Mw6KS8OJ4hCMLnjPCXXNzJCBrrlpxwdCEfwac1WMFaOnfiGmZwnLoIQrZuGa4mRfk6dkUUXutWUlUqZxF3Rnmka5QnZyo1Qt4ni2dVH+8d3O5QMbMU1Y7yurD3vF3l8lzPhwGd3gVhI+/Rj0dU7aFi42c8PcOYu8EbnMB/TOSGMnx7DUs01tjEgyYQXgMnsQtBuFuriqEIQmvdJ8MQCXUQhFG6ZbicFN5SRlD8VE76QC1AXWHDsU5lM4KwiIPK3CaDBhzBqVzMDQxiubp1THA0iPAYChD+o06Ye+Ui5HE8AMkcx4PM8pe4C3wVMpv+thUGMLiJE/yLW/lM4PoAA6cGPfmaPP+3YAX9y+wqZnCS1qrtyBOadTyMILTVfToMkVBLLWIYyidJtcvYzdm6pdjEzwi5nGbT0Q7mL+Ul6cypXMT13MXjvMonfMt8VqlntZKv/7jW8Vk+E3atnqpqJnft9351LiObFf6QV2P8xDP7DCApYQj1ZHyA8SP8yccmAkwTLVUm69vaM+/uRxD1yGTwGDVMObcQSeJFZQSdo1uKLUxHyLHxeLWZFcTMKfv1fkwMiCqsRPCF0djSCn8fX+ZltS+C0DsG2g26aKu8Cx/TnP7M9ld5DnwtYogJgNVII/7FKugS677wpblHa0q+ISqqmmTekElipFo8iofA13EIhbYeMYP3g9wqdrOa35nOZ7zGE9xNLy7h9Bi2Ee2intZDy3i7HkFYU87S2bkIwm0x02+IPVb813v+cOiDuIdf/N/oX7nXpoKghkipzSIE4VtX9Ge/E0E4VbcMQyRkqR+7IRSSeJ7IGyi4i48QxOZimEncwTC/mXMUjVxRbPNTBGFoCFsexi6EQk4vZ5vjEISHdE/K4Bg1VSbh/vlgzRnEfabTuwuorGqJ/UQV3VIA6I8gYXiaDS6iEoLwgW4ZniFJ9Z/K83wd4MRp7deAbQh5FdZryeQ3BOHhcrdqiSA8q3tSBsdogyA8pluGoQzSmYRVndstV69bESROAiQSimTA5/+TIRSEO3gMSOdjLtEtJip2AbjkKcpZ1vMwkM6rFYRNjqAN8F0FN79tACYBOo6xavus1S3DEJQU3qMjsJrz2aJbjMIKKNAfk2SIgDQEYYxuGR7jfyol+mrdQqLg8QQq55XMHAThhnK2uVzVd6mo2WEKPoSxuqdkcIw+CBIX8X7xRxKj1O80dtGEFdPLfGO8SwqC8KluGZ5jiDKCnE/rdooHEiqR8yjyEbZQt4zPm5OD4AvpMrYd4TvdEzI4hvWAc4xuGYYgWN37clz2r9MTQTy+KpCwJGGVeTeEi2UEFbjqaSQcrBC++Cn1WBFPIQjvBP0sTXmJhod0pBUIC3RPx+AYbyJImcayQR/3IQh7XJd7dQ2C0FW3DENk+BC+1C3Ck1hl0T/SLSNCEs15W1lVpO4Q5DOrgOLPITZqnY+wWvd0DI4xGSFPe7k9w/70xIeQzwW6hZTiSgThKt0yDJFRiDBOtwhPksJiBB9tdAuJiG4J97M9D0H4u1Si/nn4ELaV09yjJNMQFUxuiEcWIfyrW4RhPy6mEMEXQcc/57kMQeiuW4YhMvIQvtYtwqN0U/VJvUhnBNHaXzn2jEEQHinxXmNVCO+ykI/yGYKE6DEyeI8chNm6RRhKcLZqxTxAt5CgXIQgXK9bhiEy9iJM1C3CoySpSjIn6BYSAWe4+JLiFA3JQSjkW+5QJe5S+A5BeCmMo7yOINTTPRmDI1Q2ObKu4wR2urog6QUJ+DgZR+xG+Ea3CM9yMeJRE9Kqcvygbhkx5paA1h2LGc4rCMJvYVWxtgKrD9U9FYMjHIwgPKdbhsHPkWxBEF7ULaRMOiIIfXXLMISLVcrJhymNGDlj+YkT6MTpnkuTTpzSiIG8SlUu4gSSgcNUvehdXEluGMcwxRHjmUYArNctw6BowgRqAe/TT7eUMrFKI6ZEeRSDJrYjfKtbhIfphCDM0i0jbOrjQ/jHFW0GY01drucz5VwXeoS5t9Ur/nzdkzA4wtUIwjW6ZRgAqMtSBOErV9deTsSggjhiG8J03SI8zYwyk63dzbsIwkDdMrSRQUdejKDbVzdzk4xjBpqWl66hOr8iCN9TWbeUcmmf4FdSj7PF1LqNkvaqqozXKok0YhfCDhPYGybWyv+tumUYHOFZBOEQ3TIMVGImgvA7NXRLqYATEYR7dcswhIsVAVSEWcWMjtlMBY5zYcmu8lnLs0BV1+ZZuBUTCxTPWLFA63TLSHjS+JRTgX84lxzdYsqkL0/Rh2MB0ybVs2xAmKNbhMc5Dh/CAs+FlVdhLUIhR+oW4imsnKFndMswOMIshO26RSQ8yXyIIKyhmW4p5fJSQIbpEN1iDOGSSltySMJkhEXLL4ynC0dxGZ/olhIWu3iIN0hhuOc8WDoxXqDwSeZmmgCwgyIActkLgPif8XdRAECBv/Z2DgLAXnL9/+80jTA+IP08SzdgM+eyQreUctkd8GfjBfIgxfbrL7qFeJ6jKEL403M/g2TmIggddQvxEKn4PFsTXA+1mBDwtBzpawt9HH9YS2IvwlTdJyzBeRRB2M3JuoVUyGAE4WVGMYO7dYsxhE/xxWWebiFxwBiP9omxEjoXec5408l2hBm6RXiGY/nXBgNIVNLBsY5qrY0gjNZ9yhKaAQhCLmfpFhICVv6g2zrXG0IkFdjN+2QZx68NPMglpPI/PiZft5SwmMGXXMTh9CJbtxTPsI1qZiEsRHozkgzgL25gt0q8yFBJzkn+XJ8qpAGQ5i/WWUNlWFZWlauq0JU0juMnXuMBtjqktiEAa3WftAQmWdXpmsY03VJCwFoIy9ItwxApwmrdEuKI0R7tFNOCXISNVNctxDPMR1ilW4QHyGSU8t58ZUNi8yF8418S6+/QkphV6PT2GJ8nQyBN2YQg3KFbSLnczvtMYlmYLZYNLsOYQHbSjDyElR6st/wcgvCEbhmeYRrCTt0iXE9TfkYQChlim8HShVX++MXjHNB8g7mluYBTyEModHUF9okBy7Ph1pc3uAZjAtnLax59hqzJZoQ8WugW4hE+QxDSdctwNZ3ZiiBssrluehZDyEMQisi23XP5EIJwUuxOkyEo1yMIWzlYt5AymYjgYz2LmEVn3WIMkWJMIHtpQi7CepeXcw9GfwThI90yPMLrCEJd3TJcSwpDKFK98xo6cPzWzFbP3+vpYWtV9lcQRKXvG3RiVdxZ6trl+YmIKutg8DDGBLKbkQjiwfTIVBYhCO11C/EETyEIrXTLcCkHMFkZKNkqyNl+kujBBjXKdzaW9hyP4DP+PReQyjQEYZJLexcYEyguMCaQ3dRnN8J//rwW73AhgrCS2rqFeID7EYQTdctwJcexAkHYwRUOj1SDERQiCAWMoJoNR6xLLsKfsThNhgqpxT8IwuO6hZQimUP5xZhA8YAxgeznSQThTt0ywuRA+pPj0Uim2NMXQThPtwwX0lvF6SzhiJiMdwxzlC9orQ1BqQ95IBMpkTic7Qg+rtYtpARt2KG+c8YE8jzGBLKfeuxBWOMhZ3p9ZuDzZzd4q8WHHrohiMsuzPqpwkfqO/R+DCulJNFDJVEL0zk8iiOlsRphN7Vipt1QERdThLDXkey/SGnuv1bu0C3FEC3GBHICK6TyBt0yQuQg/lY/6AJ2IezwYFJ/rOmIINyqW4araMUf6ls0KOZj12SECr/OZ0TEi9DdVLMDg5sYrHx8ToTVR0YlVae8nYcecw1lYEwgJ2hOAcJSTzSfPYK1CMIf3EQdnkAQOukW5XqORxAetPmomdSkJg1pbktcS2y5WC2jrtaWUN6On5QpvybCJbHvEYSjNOk3BCeJjxGEOS56NNuK8L1uEYboSUJYw4G6ZcQhH9INuIzPdQupgGOZSB1gJheyHTiJOcAr3KJbmMs5mL+AZ7mrjM/rcwnVKG7yUJPiVhDJVAdSqUpxK4h0stjXMKIYH38zl3nM41d/13Q3cyOjAJjC1WzWpiKFvjyiqlBPoB/Lwtr7GH4FpnCuNv2G4FRiFu2A0fTULUWxkCP4l+a6ZRiix3iBnKENPoSfQ9iyMvVpxXF04HJuYAAP8zSvMYbJjGMYV3Okg+1Lz2A7gjCeSuqdZNYjrLW10ko8cgCC8GaQTypzNRNUnpIdryIWM5r+nOLqPkSH40NY44L05Xq8o+La9jKYzDD2fBtB6KJ7AoYgNGUjgtBPs44D6MLjzCAXYa+5Snof4wVyjol0Ai5mAdWppl7VqaH+u+9vFRs4eSxiAQtYwG9ssVFhF8aQCXxITwr8775OL+A45uo+ga4mlXyS+IJLA95L5gy6cxlVK9h3J4XAdnxADgJsA4QcoEgFWDbiWOrtt18RS5nLPObyO3t0n4BSjOUioBPf6BYCnMpLajlrOf34OqR9DmAVmaygJUW65RuC0J5vSaeILkzUpqHKfk1xajvWrNcQI4wJ5BynMyOq/QtIDvJMvZYFLOB3FvAnhVEd/1reIhV4hdvwBbzfha+AR3g45mfMW+ygKjM4U/3tcLpzTcAvaS7v8it7gT3kAbvJB3YFmJoV05hjacextOOA/T4pZA07mISUs/dexvFrDM/HifwAAWdEL6nczlBljI5lACvL3LIuzWhKM86iEzCQZ3RLN5RBX14GtnJ8GQucKY4brynqmlvAfH7gR74gT/dJMUSHMYGc5FeOKfOzXLaxl1y2+V/7/y2HVA6hHYdzBMcHacVQwN/MYxGL+ZmNYWu7g2dIAh7lof0+qcRmKrOANrpPn8tZSRMW0IZaXE4PTvG/v5bPeIvfbB2rIe1oR7ug34PyWMqHfMjfMToj0zkDOJkfYjReRTTkGboBsIdHeYZ8wDJ5LKPHegXGYO3mQLbplm0ok1e4GVjKiWwv9dlZvM87DCPHUQV7yeR7zjH1gOIFYwI5ydecj49X2MF2trHD/9qulj/CoSmtaU0b2tAiiG9oHUVMxFpQ2UERe8gjjz0UsjPg3d3kk8te4BEeBIS7eC7IWNaSxh2MCFtlIvEbbdjGHDr6lzJ38BmjmVnCp2Y3zZRnqH0YUS6/8AFjWOf4GenIJOArLnJ8pNA5ixc5DIB1rKEKB/mj3krj40X66xZsKIc0pnIa8BWX7Pcru4q3SQc28zgvO+ib2UItZnOq7hNhsA8TDu0cXyMO/BjTOYIejGCKvxxcuK9C9f/XlTFCD7XdFyq3xhCM6QFntICvuaqcm6v9PIMgnE7zMl8X8zF7Av7Nv6WX4/+e8xB8MaoKHSrpDGJXGb+ErcxlDMPoTRfaebC1ceJxgGq+8miJdweomlDWawXdHStHsgphnu6TYLATYwI5hzMmUCAN6cAA/o3ADMrlknKOezu5CMJyV9VkdRefqzM5jwGlApedxzKBKkrKrUp3JlIQ8K/+BVc4aKpdgSCMjvnZqIgD+X0/k6cDRxiTx5O0YReCz99/LonhCIKPoTzJXvVN/53zHRn9T4Sluk+BwU6MCeQczptAAI8gCBs4nOY052jacRoduICuXEVvejOIQTzGMF4gm7cZw+dMYQpnV3DUY1mOIOTRz6R+BuUN1jCinGgvZwnNBLKoRQ+mBDRA2cMYujjSwT2FvxDyaabprJTNiwjiQl2G8LkEH8IejgVSGKW8nL0BaEy23+SfY+uCVRteZ6Uq/mmII8w/qHPEwgTqqSqg2F+Rt5qqySqMpabDs/AijbTW/g7HBLI4kP7MDvADbmE0HWw3b29CEF7QeGaCcz+CcLJuGQZbGIogrOQgxivv5mUBnx7KGL/BP8W2Wt93BfxyDHGEMYGcw3kT6FRyEXxc5dDxi7t+r+RER+dhCJfwTSCLwxni7wgnCKsYQXsbdWWwBmEv9XWfoP24DkHoqluGwRaS+EL5qC2TpLRp2141OxEKyLalu5hlAo2ju+u+24aoMCaQczhtArViC4Jwr4NjHK8ijXI5zcFRDOESqQlk0Y4RrA8whBYxhJY2KRsYJFxVP+ciiMn3ihuqsEB9d1dyeBnbXMQitc1uHqN6lCNaJpDJBYs7jAnkHM6aQHXU0/zrDs+iJmMRhFccHscQDtGZQAAptCdbNUixXnPpb8MTbhabEXKivuXYyxEIwnDdMgy2cRCbERbSuJxtUujFavXt3sydUbVZNSZQnGJMIOeY6KAJlMEsBGGqI2GtJUliPcIqx8cxhE70JpBFJl0Yze6A5PnZ9I6yT/3/EIS7dZ+iEtREEN7VLcNgI6cykzoVbpVOb3/5kFX0jqCLXSsu5Hq+NCZQfGJMIKeowg7HDIckRiMIS2IUqPwmgtA6JmMZQsEuE8iiBjcwJaC16x4+4ZKIn5nrsBthXVgtSp1nN8I0m49ZjVo0pxXtaE8HLqErjXRPM6EINZi/Jk/6a2Qt4IIwR8kO8JQaEyjuMCaQU1i5MUMcOfYQ5dq1K36jIi5DEO6L0WiGirHXBLJoQH9+Crjcb+MNzo6o9/sIBKGP7pNUgn/CquhSiUvozR0M4nGeVOUkvmYKP/Mry1jNVlU5a//XUhMs61Ia84bfyB8W1p7GBIprSptAWRzIwbplxQE/IxTR1IEjX4kPYW8MU3yrkYcwO2bjGSrCCRPIoiUPsTjgor+O5zk+zGM0IR/hn4jMJ6f4DmFHCNslczZvloiRCu+1sFRTW4NbOJyvEIS3wtrLMoEu5Ajq+5vhGOIGYTvPM5pxzGYx61WaoY+7dAvTTnRf9mMQhK8d0NVeJcJfE9OzMRWhkNoxHdNQNs6ZQBZH8xSrAm7sf/M/1WsrNN5GENWk1B18iCAVRDkdzdOsKce82cFWlvEnc5nNFL5gDK/xMsMYyiBuoze/IgjzTR0t11IjAhPoNQQJs0GxwTOU/XMfqluaVo7lD+6JcN+6PK6eIu1vGNlchfY9EOPzcQeCcHWMRzWUhdMmEEAyp/EqmwOuCfMZGFJT5VQ+RRC+032aArDO2KFlfNqE+1gYMNOVPM4FdOB42tKcA6kZUmRTHf5AEH52WT6coZhwTaAk+qsoImMCxSnFP3kfW/ibn5nEh7ytSow/l6CtETJ4nAIEH93D3vdARvjza1bb7jatxVIE4e2Yn5NDEIT3Yz6uITjWDf3YGIyURmfeD2g0WsR39CnXH5jKR1gdudrpPk0B3IkgnFXq/Zr05ruANptbyea0iK989dQv9Huq6J6wIQjhmUDNmEZxs41YNkE2xBBhI81LOW4vVcF+r7tqNT82HB/wNJhPxzD2PJjX1UKisJWhti8bpfEtgjAzqvoWkfIXwhazFu4SbkQQJsVsvCyuYpz/2y3kM46ryQqypTsNIOhWynuawaV8HhDWnMtnUeTBFdOIfxCE6aYNqwsJxwTqylb1XR+SgPfBhKGsjLAz2YkgfBSDujPuIZNhygOWw3sIws4Qn7Rb86E/32ADg6hqu7Yk3kEQ/gmhFoYTPI8gnKJlbMP+pDAPQbg0pqPWog8zAjwmu/iAzqSX0PWhyiaLhYcqHA4mFyGXNkAypzOKbQGerRncSA2bRmrKCgThG5eVBTCEbgLVUwVhhT+0tUI2xISyk+Lbk4MgjE8YF+AJ/kyYiRwIPIsg/EerCvY7JqAt30r6O/T096BSE6tE+P2xWgw8rml0w/6chA9hhQZfQ2MGqsDf4raRr3I6yUAKHygD6DjdpycId6iMrWElAr0XMCik+KZwaKGCqseVMA8N+gnVBLI8mQU8av4F453y6gK1VaG3M6KsFusFMhmmvDg59FaRAMUFCJeVU+ujPeP8F9Nl9HdsiaobPoRcjXUpMtiBsJt7E8ov6GasgpW6unEdytASDVdX8xRjXGwAQRKTSiR8rOZJx8p9tlI92D4zS8euIlQT6GME4STdcg3OU35pxMPU08wvcZ4OfaLf/zOhRM+ZNCYjCL8HzfDowA8Bz5I9HFwvPpm9xD4Rfn8+pLjyiSkQ5gbqshUhV+tyy/E8x7oShoVbDSCABuqhLoc3OJNkR8c6kv8QhA9NHImLCM8EMh6gBKCi6tDNVHDfIhrqluoQlXha+X+20qPUp9WYjyB8yz0M4mGGMYyXyeZNlf5qZX9c4GjuXLK6cA/RfKbSuEdlu/l4U1NEkiGQzxFEu58hhbN5Q0XW5IRdRjG2dGEsl8fIaDxahdO+7bCxZQgdYwIZ9qPiBhkN1M1+qe0r5m7gFP5UhsyXNChj/v+WeMot+ZrMGY5rrKQyTNxQoqCpqq8qbOYGVyhKZCYh5OoWocjgYj7kBN0yXMXxqj5YtvmluARjAhn2I5QeYXWVJ2RlnDXOqOSP/9lG73K2a8nGIMaPj3ExuuDXDKuWhfN0URkvwmyO1C0moZmFsEW3CEM5nMQOBGGkbiEGwJhAhlKE1ia1Bt+rdO/46Rbenr/UjfyLClsbtqADHTiBdrShOc2pS00H0t7Lor56knQPVXhaFQ/IZ4BuMQnMPIRVukUYyqW9Kiv5nG4hBowJZChFqJ3is5iqlj/i4bk/VP+PO2jqyufINsxRdYoMulhKON3PDXrowF5MyyF3YEwgw36EagJBBl8iCLfqlhw1J6kQb+Ez6ukWEwJWc4qndMsoRTITEKRCH5rBKVYjzNMtwlAhHVUN6lh39jPsjzGBDCUIJ1MhT92EvV8o8XpaAJvpxmVs1C0mBKxaQ24Je92HjykAnKxbSMJSGdijW4ShQr7hKgqBRxmkW4rBYNhHeMma1k04Xoq+n8THuiWEiGUC5emWEYTvAUzTDG1UBnbrFmEIgS/oQRHwBB10SzEYDMUksgm0XbeAkHGvCTSfPRgTSBcpZGK8QF7hQwYASabjlMHgHsIzgfYC8WMCeQf3mkAF/AK0LbNPVRI1dUuMY6w+7cYL5BUmANBEtwyDwVBMJF4g78cCeQ33mkDWUlhaia7gNWhHVwYxmrnsYBNDTG1ch7AMT+MF8gqrKQIO0i3DYDAUE15pfeMF0oNbw6GhOBroEmpzCIfQilalGmcM5mR6sEG30DjE+l6cSoZLzWNDSQpYSxNOoAXLdEsxlEkKh9AgLjshGIISelJ8caOGD3RLjprXEIQDdMsImSsRhG66ZQSlBr4ym4esZ6aqiLKRTrqFxiVWmYrBumUYQsRKtV5Fc91CEhYrKf7TcraoF3AFM0nxCUA4JlASPoQvdEuOGq+ZQD0QhEt1ywjK3SWMnp3M4yOGcjXHUg2Ao1ik2ok8bS4ottOQHIQ8DtctxBASlflWGUEtdEtJUGqoK9VLpJWxhTGBEoxwTCDIRZioW3LUeM0E6o0gnK9bRhCux4dQwEhu5iwaB92mMtnqgvILLXULjjtuRxB+MPFWHsEYQbrprVr7zC6jpKtlAk3hDA41zW0TgfBMoG0IM3RLjhqvmUDWbe5s3TJKcTEFCD66V7jl5WxDEHZwjW7RcUay6t7n/jYvBgtjBOmmI1sQhDWl2lzPZDGbEYRXdYs0xIrwTKD1CD/qlhw1XjOBBiII7XXL2I8zVJzPgJC2bqpu1UU00y08zjiKfMQTVc4NFlnMQBBWmuwwTbRgAYKQS68S7+9bAjMmUMIQngm0HOF33ZKjxmsm0AMIwnG6ZZSgLdsRhEdD3iOVEWHuYQiNOQibdYswhEGxEbTCGEGaqMIYZexkkw5k0IZuCMImvuJNLtMt0BArwjOBFiP8qVty1HjNBPofgtBat4wAWrIhgmelSmxFWF9mIKIhMn5DWKlbhCEsKjPNLIdpJYlBFCIIs6jPX37/j/fTfQxhEZ4JNA9hlW7JUeM1E2g4gtBKtww/jfhXXSxSwtzzRQThEt0TiDP+RlikW4QhTPYZQSZFXhed2Kqignb6TaC3dYsyxJbwTKDvETbplhw1XjOBnkcQmuqWoajBbwjCt6o0XzgchSBM0j2FOGMdws+6RRjCptgIWmmMIA3UogMd6KEe5wThe06kum5ZhlgTngk0FWGnbslR4zUT6BUEKSOFM9YkqbDmn6gS0f7fIxSZS76tbEeYrluEIQKMEaSP00qVcn1ZtyRD7Am3mkgupkdY7HFTj7AjORlYwvnsimj/14BkbtQ9jbiiMqZZqjfZQ2dmAE2YboygGFP6F2NSChKQ8HqEWV3CUkijQLfwhMJNJpDV6GIoWyLcfwzPUZMbGGy+QzaRQSrGBPIqe+jCRNrThCkmMDqmWO2Fv1OlflMpZJpuSQYdhLcQ9i6CUFW36Cjx2kLYpwgSduixM3yLUEjtKI5gpcZfrnsicUMtBOFN3TIMEVOVhQhiahHHlKYIwgjdMgx6CXchzOoVb5bCYksGIK4I1MviFODniH1AAK8iQB/dU4kbsgDjBfIyO1kChO+TN0SD5QWqrFuGQS+pQH2WAd9wSwjbWyZQpm7ZCcaPdCaJW3lEtxDOJgP4JqpjLOF72nM2B/O37unEBcYE8j75AKSbxWGH6UpNctnLHvIoAop/PYYEpjga/rOQtnZbhZrI8NpCWHVyEDZHmINlJy8hSKnOOuFyLYIwTPdk4oR2CMIcl2QMGiLhbQShhm4Zcc/MUllgY3VLMuglmXnMAwhxHTqevEBuWFgKje1kA7W5QbcQOgJbmRvlUT7hP6BXBHWFDKXJJQ84id+5QLcUQ4RYXiBTNT32mIUwA4RRFvxeBOFE3YKj5G4EYbRuGWFQjz0Iq0jXquIQBOEDG470LIJwhdbZxA9tWIQg+HhItxRDRFje1Ya6ZcQ1e5XfZwc96M0dDOJRhnGnblkGNxC6Q3AAgnCGbsFRksFfCD5O1S0kDF5FEHpq1dDPNg2H4kOYqXU28UQlVT5zLw10SzFEgLvqv8cnOcoEMtV/DKXwhWwC9UEQztMtOGouRhB+dUmieSg0pwBhSdg5fHbyNYLPppusVWP6GI2ziTfuQxCG65ZhiICnEISDdcuIazYgbGdKiFGvhoTCh/BlSFv2jJs2lxMRhJt0ywiDDxGEi7WNn8luhF9tOtqtCMJck5FhG1n8h7DdBNV6kMcRhMN0y4hrViEq7tVg8GP5FITwwqHjoS7QnRQAT0RV5C+2PIEA92sb/1Qqg20tTmcB0I4v4+Lb5AZ28xJQLaTiFgZ3YSXDm3BoJ8kDk4Bh2J99JlBoWCbQDR5aQCqLJbwA1PZQAOkCJgHHcaam8a3WGHaZQMUXo7MZGycZhvoZyS6gvzEqPYdlAulNdoh3jAlkKJNChHEhbVlF5Z7EQ02XqqxDKOAo3UJCxuptPFnT6IsQttv2pHpmidoc5vnXHp5DEG7VLcMQJoMQhJN0y4hr5oXZDMqQQBQgjA9x21ZsR/DRVbdoG7gBQfhWt4wwmI0gHKth5MZhFNAMhQsRhCdZr45rmgPYQWPyEFYZk9Jj3IEgnKZbRlwzB2GTbhEGd5KH8HXIW1+ED2Enh+uWHTXJ/IggXKpbSMh0QRA+0TBybwSht23HuxpBuJKj2IwgfBwHi6tu4E0E4VrdMgxhcRuCcLZuGXHNNIQd1NItw+BGchEmhLH9kwjCUqrpFh41J+BDWE4HOngiHyOJBQhFGrR+ZnPlEsukuiBbOJotCMJbWhP+44VWFCEsNufSU1jFRjrplhHXTFTL7vn8oVuKwW3kIkwMY/sUvlExHKHlkbmZt/wRKS/rlhIS1yAIr8d41FRyEBbZeMS7EITTsyVbOJEdCMKoOPg+6edTBKGLbhmGMLCW5C/ULSOuGeu/0q/VLcXgHsLNCLMo4mpWABcxUPcEouY+dqg/5emWEhIfsQzoQZMQtz/elnawJ1OdaDvEl8Rq+boLIPsHOrELuJHnbBwhUXkMAR7QLcMQBiYp3nle5D6eYyvFHdkMBghwl4f3/L2FS9kLPMG5uqcQJRvoxrOAV0ygIp4F0ugf0tY1mcYmlpFNDxpFMaq9CfGAKom40/pL9vdcTC7Qn6dtP2OJxny+BU4wwbUewrRJdZ6pDONONlBscBoMfvYgETzh91YdV5rplh81rRGEobplhEgm6xB2USeEbe8OSD33sYAbIxxzHsJuW+v3WD2tGmZL8YtzyUUQD1VqcitnI2FG9xn0cimC0F23jATgb4SFukUY3IOVihzuQpjFaxxPL2rzMaeF7UHpUEZSfQ7vsDjmZ8EqmOUV92guL/A4WdxaodGWwq1AHrlUB5I4itfI5MWwR6zHMcB35No4iyoA2QGr8tnf9LmEMaTxPwriou6UPr7lR07kPNra1s7E4CxmISxWpGG8QIZS7I6w4F4mvyAI2WHudzK7A7wT+7+mc0WMLwanIAh3x3TMaKjGNoQtKp6mbC5VQcYpHMdAvqYIwcdtYY/XA0HoZ+scvkDw7fMBKU/QZRQgSBzEmOnF+pf/SLcMQ4h0QhBu1i0jAViH8JNuEQb3EG6PsJLkcjmbgd5hRQQdxXgql/P5GXzMSv5H45idBcsL5I1YIIAdZAO1KlzWGgDACxTxC09zATfhI4mR3B7mePZHAkFVYM/+b2Z/yg34gCfp68iZSxS+YDFwuek97hGMFyhWGC+QoQTRmUCwUrXtrBvyHs35hprAu9Qq9arNlXwHQAMe4l8+55yYpElbvXm8shAG8Bx7gbvK7Sp0NKcC01jgf+dNZQSNCMsISqYD8C9/2TqDKqh8sJJkj+ZGfCTxEjc5d/riHuFpIMV40zyCCYeOFcYEMpQgWhMItoW1dQMm0wAYxw1sK/XayhjO4AheYgeQyiVMZil3UNPhs+A1LxBs5G2gMdeUs421cPVCiffepC9CEiO4IeSxjuUA7PYBlWkCQfab9EFI4pVyZ2con/dZDfSMg/KliYCVH2napDpPOt562DU4TDTh0IGcz0cUVrhVTSbRAviOK8vZejG3cS/XcAutgUN4lsf4kFeY69hZ8J4XCJ7iJlIZxDv4gn5+AFcB/5Zqf/sa8CpJjOQ7loU00hVADE0gyB7V5y6eIYW3OaH0YlkpvmaWzdrigXzGcjsZ1PbXvTK4F8uX/qduGQmA8QIZSrDPBIrUC7ScvVTiKipzFXvL3bIy42kNzOeiCraEXWSTzSncwmVkUIkbuIFfeJmPK9wzEtzsBapHQ6qQRVWq7/ff7dSmFQ/wSND9epMJvEhRqU9eox7/I4s3ObMM8ymQUxkA7GaazfMqxwSC7Gf6PMBjpIa0YDeA6/nQZnXxgGU8ZuiWYaiQrpwK/MBY3ULiniRSMSaQoRTbEKZHvPeJqtHlD9QuZ6s0vkYQ/qZ+WEevQX+W+7PFcsh2oD3rDS5uKTCxnNw5QVgXtD5QGmsQdlIj6DFTVSZfxQZGLVYhCNfbPq9chEn7Z4SVyA77XwUzD6x4dE+M/1W8wBAE4RjdMgwVkM7fCD6O0y0kAUhXV4w/VTlcQ8ITfSwQ/MjprAFOZGaZWVzJjOZ8YC3nsCGso+cwgpacwycUAdXpzUKm0FX5r+zBzXWBympvsZf/2AA04I0g/3aX0wgYTU7QfQu5njzgCVpUMPobHAh8yFs2zyqdDPy1oYOT/RBHc2yFr8EISQznRdNpfj+sKk52lrM0OMEAWgLv8otuIQlAcbTVIaYlrcEi+oUwgEWcyiRacTiz6Rh0RftZugFbOJcVERzfx1Sm0oibuIUDSKIDHVjPaF5itS1nwc0LYQcAa3iM3exiJ9v9//UBVfiVg7mQvqVavPYDZL9Q6EAW8giPksUbnFXOYtitXAwsc6BeiVXRaGf5G2X/Fsqh+lzBaDK5lcZcHULkUOJgLRkbE8jdHMD9wF5TEz0m7OF0TuIhsmwt82rwMJYXKPrE8xWcylygKbOCOHQfoT+wi/Ojqvy8liE0oQc/AtCAQfzDe7acBTeHQ9cFlvAq7/IFU/mFxaximzJbdnEV+cAztC6xz7GcCExiaTnHHc4vwOncUuYWR/IUUMC1DgTUVlX6bSB7DBewHbiI6WEUZ4h/rIt8Jd0yDOXyP6oDT7JKt5CEwMdMhrMHHIkpNXgQOxbCLP7jTKYABzCNc0p8MoAHgTwu4eeo9ebyLifRllHsBtK50paz4F4vUFUygf/K/HweDwGZfFDiVncHACPLPXIhPckFhtMy6OdZjKEScL8yOe0loE989GR/S3tWAcfzA60cUOtNzEKY+zmMG4F1PKVbSEKRCcYLZLCwzwSCXXTmI6AK47nK/24PngWKuIaptqmeT28aMQdIDeh1Hznu9QJZkUD/lbPF00wFjuBJ/zsNuBz4u8KWJ0t4DKjMqKD/9iM5DPiGZxyZl60mEGT/wUn8BjRnDqc4oth7GBPI/TxLKnA/u3ULSSiMCWTwY6cJBPlcwwtAOu/Rn3ocSk/eIAnhZj6zWfl2FQdkR0VVywRyoxfIWtgpzwTycS0bgVu5UL3Tl3RgRAgJ78OYC5wRZDGsKzcAm7jOhppRwbDZBILstdlHMwmoxdQyWvAmGiYWyO2cRyfgN97VLSShSCYNd17tDRqw1wQCH/14ECGZ59nAEt4mFbiX1x3Qbl9fHfdmhFleoE3lbrOR6xGSeIOGQAa9gR0hXVYL6UkeMHy/zLDmjMIyrsLL3gsdG2OB9pHdifeATD7kVod0ewkTC+RuUpTndmAIDyuG6KlKTWpSUxVlMV4gA4Aty0j78xi9SxTkezJgkcZOLBPIjqLy7vUCWTV/Nlew1UReAurwDsl0ox7wRoghzIt5DMhSi2GNOI97+ZCZKkRzimPzCikjLHyyr2UokMKLjHDku+0lzEKYu+nDkcDnfKtbSIIwj61sZStrAWMCGRRWUrwPu7xAFq+zmZ6q69dqx9y89rUWdLsX6L8Kt7ub0zmKDgzkSsDHSyGPMIxLOIYzmUvTEqUtf+RhB+dl+0JYMdmD+/Qim1T60ZDuCX2hMwthbqYqDwP53KtbSIKQTJMSf3fjA69BA/bUBSrN2BgUe7e6jCV6LJBFLlfzM5V4nBRgfIjdvwAKuI5fSKdtwHsbWUAfR8vIO7IQZpH9Rp+OfEpVLqchF7LFwVm4G+MFcjMPUw94gb91C0kQGpAB/M1v6u8/6RZkcAdOmUCxIBG8QJYJtDGELRdyt79C8oiwxljA4wyhkL9YxGLmsYjljs/L6oxt+0KYRfY3fY5nHPU4mZmcl7AVV4wJ5F4O4nZgK4/rFhK33MKpbCeHHHawne3KBzSaR3ULM7iLfW0mvGcC2RcOnQ6IK5vn1QEK2B7Sti9zLhcCC8Pu9/Y4X7I4piagtRDmWCpw9s99WjKRgzmcH3iMHArYSSE7KGI7PnLwldE6JJ6oAZhwaHfyJBnAYLbqFhK3nBa0ZtwK3bIMbmOfF8h7WLdsO8KhM4B8V56FusDmEJUJ1/E7BzIi7JkU+N3DsaIKQPZfzg2Q/Q/0+YGTaFhmXJSP7cygmyu9f9FTlXcAbGohY7CT9lwOLOVVrSqSXHnFs4s6Qd9doVuWwW14eSHM3qR4N0YCWSbQppC33kZ3PuUD3aJDoGosBsk+qc8XXFLmx8nU5BI+oWscGkFJvMFhwDSe1i3FsB9Jqkv5XSqaURdfcT7b2Usu28ljF7vJI4c89rCDOczQfZqiIJmWNAHW0olqVKc61alBdaqX2zLIkJB43wSyKynenbfBOlScEh/Id5ztiVahVQCf82nr2Zf0OYtqpFOFNKqSSjVSqE4yNUiiJsdQmwvj0gi6m67AarqVKE9hcAPdOQ6YxgTNOubRmZrUDPpZLhc6WBLDWe5mCJUB2MRC3WIMbsfEAoF7vUBVqEQo+WCBLNAtOiSqArtj4QvKnlb2Z30OYzr1uZCxXOLKf/9IOZPHgDwuC/O7Y3CeSjwCFDFAo4a2XAEcDsAGtpNODTJLRI1lMpZOzNKoMXKaKwMovIdHQ4Kyrzq097AvI8ytXqCHgHBNIG9QBYdS4sMhewlnsgE4jy9UVmA8cCAfkQrcxi+6pRhKcQ9NgNf5Q6OGdgxiEF0A+JZDaU4tKpNEderSgqN4CajMeI7XfbIiwso2HaAirgyGcjELYaDDC9SbE9nIf/zHZjayic1BivgN4x4gn69iqiw2uMIEguwlyhN0Hl/EiScok0+oC7zhSFMaQ3Q05G5gB4O1qgj09wTWA9uB9cB1OxncSDUmcSa/a1UaCZYJ9JLmSCuDR/C+CeRFL9BRvFDKdNulTKH/2Mh/bOZ4bgPyuZypMVQWK1xiAkH2kj6t+ZYDOI9reFO3mqipzBecAMzlNt1SDEF4jCzgiZAqfTmHZQJdznwI2p9M6EMlrqEmkzmDJVq1hk8WkGcMIENoeDkWyN7SiLHzAKTyVhDfVRWq7Nes1DKAxsVMVyxxjQkE2Qv6XMxYYpSl5ihVGc9pwEYuT+jWIG6lLT2AFTyvWYcVK/NPOSVQffQklSupy3RO50/NesOjCg5WHDPEG16uC+TVjLBBtAOm048DqMcB1An4b2A1i/g1gKzLlEO1oSPAeiavHOVRdFODiZwIrOccVuoWYwjCcyQDg7Sbp5YXaG+52xTRnSw6U48pnOapejpZuObxyuB+vOwF8mZG2JE8BOzmxqDPYKnUoQ4HUJ86EVR59gqVScNNl6k9SpWXqctk2gArOTuMDnGG2HEppwE/8IluISGZQFDA5YylEwcyhdNZp1t0yGRhvECGkHGmU3xssK86dOy8QKm8SQYwqAwndCEb2BATJTq5HsBFF1XLBPJyK4n6TOFI4E86sEa3GEMQ0hkGCAM1+txrsJxd7KY2QAi+qDwu5xtOoSWTOcMzKeaVwRO10QyuYF9SvPdMIHvDoWPjBRrEccAMXo7JaO4kiweBfF7QLcSP9TzsXROoKbM4EljMWcYAcim3czDwPnM0akilJgdyKAcAFXuBAHZzAXOBI5ises65H7MQZgiDffV5vWcC2RUOnU4SsTGBDvMvgnkz+soe7qQ+8HK2a5Zrsi2zwasLYQcxnZbAPE8tVyQWtbgf2MuDWlVYPv8dbGIPoZlAsJ1O/AEcw0SPJAyYhTBDGHg/HDr0knZZVKIaAJXIBKAaKRR3LfeFfJxISWYUGcD9CR2rUYe7gF3ZA3QLKYU3vUCHMZWGwGwuYIduMYYy+B+1gKfDDFOvygNkUJkqpFODdLKoQho1SSeLZhGEvFtX+3e5jXCapG7hHL6jFScyjvNdvcRUn740JQ1jAhlCxst1gSwv0D3M4ucQtu7IZ6poVnBaOa63L6cAP5XZuTwxuI/qwDOai8PtTxEpnvQCteUb6gDf0cVFGXaGkhxKb2Bj2C1rmzGozM/aR2ACpQCoijnhPPZupAMzOYjT+ZyLXFxA9GAeVn8yJpAhRLwcC7SYmUBdpnNhhdt25atyDSBoxYGOqm3Io0A+vRK6cWUj+gKbs91lAFmhod4zgY5jCnWACZxnDCAX8wxpwH1heOkqUxloHPBOIdtYx3LmMx+AM6lJfZrTnOY0DPGoqepI4bOGs1kDdORjW6IvncG6wufzL4t1SzF4BS97gXZwLm/Tjcp8zjAWU8BecsljDwXswsd2YBsAN/EKKcA41pOr1sB3UAQUsQM4lpuozBNc66Dal6kBPMEi3adNI9V5mUrAYzynW8p+7CbLcybQ6YyjKvAVV7j4ydxwFucDv/NOGPucyGT+UYtO1zKB7QEL9cn8Ry160cv/zgQuqPCI33Io1YHITCD4lw58Rz0uYjTXuvQxzjKBbmK0biEG7+DlukCQx9Ws4h5SeKCcrbZTjSRgMP8rY4u3OZOWXM0L/OSQ0iu5CPiTYVrPl16u4WnqAyuz3WYAWaGh3jKBzuMzKgEf0NM0A3AxKaoW9MCwog13kuJfmv9TPcgV42MOnUu8s77C42VwuloGI2Lz5U/OYTq16cZeerkyftT6BZtFMEMYeDkc2lI+iJWM9P+8g1Ed8NGfF8vcIp+7+YIknuMUR85FLUYAPm7UXhdWF4fxEmcCsJHefKNbTin24K1w6C58QgbwGn1jEMhviJybOAoYG2anv8Ck7rWlPn2XveQgQF0uBlqqmKHiNI/SVCcFWM4CtkfxmPcHHfmW6lzPXm5z4V3D8gIZE8gQBl5eCCvmZWZzEOlUIpMMKpNKVZKpDtQgiWqkUIWXeK/cY4xlOmdyEt340AGFz1BP6UxEKjGIe8kAfLyf3d2FBpDlBfKOCXQVo0kFXuJ2F96IDPuoymCgoJyw5uBYJtC7vE3rIC1VxzBG/ek8LgZO5/SQjvo0r0Q5n3mczzdU4Rb2cLeD5y0yjAlkCBtvL4QVs4AFUR/jDuaRwpN8aXva55n0BNZprgmiiy6MpBkA87kl+wfdcspgD95ZCLuJV0kGhnOvbimGCniA+sCL/BXmfpYJVMQ0ppW7XaiB0BbhqgjGHM5jElkMZDdDbDtP9mCVNzEmkCEM4sELZA+/8za9aMwdPGbrcSsziiTgFrbrnmLMacxzXA5ADkOyn8etBpD+WKAutGczW9mi/re1zADnW3ixgsg2g1s4iP7AtgiuKJYJVHEpwvEcW+Zne0p9h+ypHD6browlncHs4UnbzpUdVFbzNhhCxuuxQHZyP12pxr28ZWuN3aG0AD7iS93TizFp3MKjVAGE97K7q6BQt7IHyAyjXJy9nMyYUlEcu9jKFrawha1M5XP17iDVaepOl59PA8BwMoHBbAl7T2uRqUqF220MskzmPBO5io9JZTh7yomwjD1mIcwQNl6uC2Q3mxgGVOFRG4/Zhv7AVgbonlyMOYPfeJ4qwJ+cm91dt5wK2QMkaYoGasHYIGGsVWjCMXTgSvryrlpKHMIwoIibjAHkAU7icuBPXg17z8E8BhSFlUYfWz7nOnzAyIDUfP0YE8gQNmYhLJDn6E0zevIyc205XipvkgbcpeVZTRcNGI5l9OzhqezBTNEtKASKG6XG3olei685APiAV6lNLWpRmzrqv7WoTSZQmZe5gGcZABTSkw90ny5DhSTxPEnA3aqRT+g8woNAIdfyse5JlMP7VOI1kshmryu+j41JV+1fjQlkCIP4CIe2i1zu5SOSeZ5TbVkSGUhbYLqLn+ac4FVVrftT7sherVtMiFimT1YESxbRkcEXtAJmckMZ0T9V+Z6jOI8pnA3k0Y2xOk+UIWTaAfMYF+ZelqrdLpEAAFjmSURBVAFUwFV8pnsCFfA6mbxACqMp9Geo6WMmBwFQaMqEGsLBLISV5GNmAadwiQ3HsjrW7OGmBIu1egOAsdmXe8YAKjaBYr0QlsQoTgOWcXmZF+6d3IgPOBvYy8XGAPIIwg5C7ca+j6d4EMjnCtcbQAAvci+Qwrucp1sKtdV/TTC0ISz2mUAGiwH4gKfC6EAfnCTVDGJwwvWFH8+/QEfdMsKieCEstgyhO7CF8/ivnK1+5jUACjifSVrOjiESckC1pAiNJJ5jIJDHZZ4xdIfzCJDOZ6rwqS4yqAYsZjhP6T4lBm+R7P+T8QJZ/Mr7QHP6RXmcXnQAfmeE7gnFHB/ZQKU+A3ULCQPLBIptWnw3HgJyuZC/K9hyEGuBlLCjSgw62Q7UCHnrJJ5nAJBHV8brlh4GDzMcqMR4TtWowooCmsG9tiazGBIAEw5dmvu5jMo84HetRkIWNwKF3JCQt63XGUImfXXLCAPLfR5LE+g03iYJ4UbmVLjtDu7kY5LJ5piE/D55kxxC9wIlMZLbgL1c5In0gUDuoyq3UJlxdLApjSR8LBPovyiPYkhAjAlUmjU8xWCqh13UvjQv8KvuyWhhCx9xHS36XJD9tW4pIRLrWKBDGUsGcB/vh7T9GK6lC0cwkCd0nB5DBGwHqpISQlvSJF7kFmAPF4XZS8wNCLeRxk1UZwpnMV+LBssE2qz7VBi8R3L0h4hDhrPKluM8r3si2ngZgFt1ywiZ2HqB6jCOmsAbDA95n9vYBQz29w83uJ3tQBLVKtwumTeVAdTFgwYQgNCXD4EaTOIwLQqMF8gQIcYLFIy9nKp+VJFyF1eRyAbmL/zECXTq0zL7H91SQuJwIFZeoEp8RUtgBreEsdcqhvA0GbzKWSZ9wRPkAFCdbeVulcIb9AR204XpuiVHTBE9yeJC6jKZ0/g35uMbE8gQIZYJ5MOYQCVZFaUfyNo72qwyL/MyJ5DsjXigPgeyFNgZk3yrJN7gJGAxl5Af1p7PczVtOYOrQ1w8M+jF6glYo4xPk6hLXRpxA12BHZwXQkyYmyngCr7iXBoz319dayc9bGhgHQp1ALMQZogAUxfIGXKB2CdZu4mP+Q+4XreMkHiSLOARNsRkrKuA9ZyvvAShU0QfioDn1QXf4G4sEyhYQPSdrCWfDSxgIl2BHM71uAEEkMclzASq01y92jCLDjEZ25hAhggxSfHOYJlAmVEexcvkMQGopVtGxfQ5hW7APzEpX3AjA4G9XMLKCPaey0tAHYbF9AQZIiMHCO4FOoOGAXX5t3EOP+kWawt76MxXzFOvv4FqTKBnDEY+ABBjAhnCx3SKdwY9pfbcRQ5An+bZy3ULqYDnSALuCnNZKhI68grg4+qIb3kPcimNuYEPmBbLU2SIgJJeoLZczCY2sJFNHAnk8CXr2cB6ftEQO+MUO7nI/+cURnILabxFU/7n2IiLWc9i2gDbY/ALNsQdJhzaGYwXCHYCUFW3jPLpcz1vAdP4yvGhjuBjUoE7oqj9u5ObGU8Sr9BGfce8zUHYYSCfz0TdEwlCDrDPC3QmD5X4dBbX6RboMEXcykqGkcRQmnKzQxWtCjiLswCzDGaICBML5AzGC1RsAlWcFKyXx4AiBjg+TgMmUB3IZmRUx/mascAhNlStih+eJV23hCCU9AK13O/TxbrlxYQnuZo84AbGOfQwtNb/J5MPZogA0yneGYwXCHYALvcC9Xmc+4Fs/nB4oCp8TRNgnA21km7nbKpyHx/xZwVbnk5/PuBTh+cWPav4K+J9m3Iwh9LfNb2hLuURctjmD3Zvz2VsI4cjgDxupj71qEuDOAh/Do2PWMdYatKRmVzAOtuPvwaAW6jDbt1TNXgREwvkDMYL5AEvUJ8mLAW2MdjhgVL4iGOAeVwVQq3giljDA4ysoEJQBlfRj2OAw/jChjGd5TPujHjfxiwli4d434HbayRUVTWmijmXc/1/Xs7buuVpYCanMIFmHM1P3GR74QnLCzSXX3RP0+BNzEKYM3jTC1SZmjSjrk1Hs7xALjaBeIbKwCOORxGM4AJgFV1selJ9mV+AM8qIJqnPUFbyFscAcCjdHZ6dXtYwDKjqiSw5b5QJtZ8lnMQ8oDETeZuath7b8gI10j1Fg1cx4dDO4HYv0C2cQSpVqUQmVUmjBulkqc+2cDibbBjD5QthfU7nO+BPXnR4oDu4FdhBZ9bbdMQievMLqTzF+P0iINrSn24qMsbHN5xLCg/zQVznyjxFDw7mWl5npm4pfi5lOjWoSQ1q+P9bkxm6ZWljA2fwIj2BnnTkFr6w7ciWF6ix7gkavIqJBXIGd3uBjmckKWV+WpvnudqGUSyPh2tNIJ4D4C6He69fwFNAEdfYGm/0GyO4i9o87a+6kswF9PMXotvJhzzPEt7iOg6iF684Oke95DGQL0nieY5z0ZJfDjms0C3CReziOj7kNZpQn88ZTx+bFi6NF8gQFWYhzBnyALd6gdIYpQygPLaxhuX8ys9MZTyf8Bargas4z4ZxbgCgUPd0g9PnRtoC3+BsL/vjGEMK0JfxNh95MCuA7vzLQn5mCv/ylTKAlnMHjenDEmAo+cCDLv0m2sVXTACO4SbdQgzl8g1H8SoCdOZ3ronyaKmkYLxAhigx4dBOUIlnAbd6ge6iNTApuxMZZOy/Mt/nXCYDr3Aku6Ia5UT6AOuzH9U93TJ4DCiMIgy3YhpwJzdTGRjOKNuPvptb+ZokmpV4dzojGIfP//cVvM4tNOQWnnFwpvrpz9lk8BifmuowrmYHffmY12lBHd6jGzcHJLWHy3HMYTtbAeMFMkSM8QLZTzqf0AFYw8u6pQShJQ8De8pKzs6ezLsQdT3XVF4hGWJQbyci+jxJPeBlx6qzHMTLLGcgVYBPuN+RMSbwDHP4neVsZg+5vMnRnMWXAQYQwGPsBe5xaJ5u4R+eB2o5WIXYYBczaM1zFAGdWcSNUd15qnMQYLxAhoixvn4zOJ1tXujn5AHS+ZQuwEbOZIluMaVIYjIdgLuyy/EK9NlEXXy054eIx7mH4VieJhfSpwWLyWAbB/t7WkdKb3oHeTeJ1sq/uoWRPKWC43XxNedTFBD15yZa8zvwnA3euCospRFFHMd8rTPqydvApTYG/MYnJ/KGKh8wld4RtQg5iTnAFvKpRZE/mcNgCAsTDm0vaXxMF2ATZ7nQAILr6AD8nl3+sshdvEsy2bSLMFS4CQ8Be7mVZbonHJRnyAAeitoA6sfz5fxu1vEMr0W5nGgH7gkRLkkV7mSgbUfbxT28TwovcKpZ2PcAP9KWh7iHNDown6vCanGSzPEcyekAPMVwMAaQIVLMQpidpDCai4H/ONuVBfDrMBwopFf5m2W/y3jgKO6KcJwXqQIMzXalAdTnLC4GlvBalAe6mxEkIWwL8lpKH5rzrAsMIHeSxi38w1CqAuv51pZjfsgs4JSow2wNsSGPBzmB34DqjOPuMPaszw+M4tqAd0xlaEOE7DOBDNGSwjt0A3LoxELdYoIyggOA57LnVrjlbewChnBoBKN0pQuwMNutxeqeB+COKJPhB/EkINxGrSCvw3hNZQUa9ieJriziJeoBuxjOoTZl5Qm3UAg87e/LZXA78zmekUAKT/JuyOkjxSEbhfwV0RKaweDHeIHsIpm3uAbI4Rx+1S0mKJ24Gvg3O4TnrewVDAYyeDns70U1ngd89NE93eD06UVrYDzfRHWYIQwDirjelSHvbuZkZjGGg4ECXqMl96oSmnawkNeAejyge5KGkCmgPzeSB1zLdzQsZ8uDaE4DapKsTKBhVKEVY3RPwOBtTHVoe0jiFboD2+lIxT4WHWSp8nh9Q+vSk/1Mn7kcy5lcz5thjfMYDYFR2d/rnnAZWJEx0S29PMoDQBHX8Z7u6dhEF38bjR3+2KGiAOMkNyCkO4cvIqwefjhD6AqA8Cn3ORAp9iBdOYD+vMnSmJw3gx28wVI+ox7H8wuX8lPQbS7nA9JKvPO38bMaoseEQ9tBEi/RG9hNF37WLaYMhtIMeC879DaFvZhLGk/xNRtD3uc4+gIbs13qA4Lst/v4SKajWg4LnySeoz+Qz1V8rns2tnGsMk1C40me4HlVAT1UDuRBeqmSnFMZ5JCndBsPkk06L3COU6fK4ADfcxxjaUtDZtCbd0t9flkpAwhVEchgiAoTCxQ9SbxAX2APFzBLt5gyaEM/YEv2taHvkv07zwG1wjAWUsgmBddWA1LMB86gckT7ZvEe/YFcLokjA4gwC2JU4wn+pkfIj021GMZf9CYFWEgXR5eKX+dnoAMXOzaCwQlWcyofA5mM5qn92vdcxoekAZ/wGh/wCVOZyTxW65ZsiAeMFyh6hnMrsIfOfKdbShmk8AZpwF28Hc5u2ff0+YeWdONDvgpphwEcA0zO/lD3hMtlAu3I5AwmhLlfOjeo3vLwKdN1T8NWagDQzL/0laVarQIB9cPTqAK0ZyBZNOYdbuaOMpYt9lGZ27lXHX8lj/P6fqUb7cbHAL4niRFMZk9sT6IhKvZwFfN5nGQGchTdyFHvX6oMoOHcq1uiIf4w4dDR8gR3A3u50MU3xTtoB8zIfjvsPW9CgBdCanbahCHAXm7RPd0KsCqQhNcFLZ3eLOcVv+/oWlbwwP7NRTxMTaCI1f6k/jUs97/m+V8/MpWpDOEQXqMIOIkfGKPq8wYjld78zTBqAJu4nUN4zWEDCOAHRgNNoqg5lEY9x1UaSiMMpwvbgY78wmEAXMpHxgAyOIcxgaLjUe4F8ulqU20TJ2jKYGBvJE0ks6fzDtCEUDp9vUAV4JHsf3RPuII5zWELcEHIO2TSj3/JphGQx3u8QS5Ql0dZxQgO1D0fW6gJbA/ZPFlHH47nO6wE96WMoFqQrTrxB9k0BHbxP1ryIvkxmo2VZXYvTcPaqxIn0JfXmMsuFpquU5qYwCksA1oyh050VAbQ/4wBZHAGy/CZREdy47ybtBPcyxNAPpeEvagSSybREbg30jo9ql3GySWWPKpQjWpUpTo1qEo1qnEgNwGLso/QPd0QZvQBVwOHhZQ11JifVKpuHm/wBGuA+tzMAFV9Jp+PGebKQpjFfEWXChtkLOYwltEyzCN3YIRqcrCZR3mxRB3qXiourIBR/C+MgHp7uJNngM+5rMItq3A0bWlLWw4rcY6+4+yI6mqbBhnRU4sxnA3s4XX6AY/xoG5JhnjFdIqPhtMAoaurDaBr6Aj8HkWhwgF8QDIfs5hqVKUa1alRhs9QuNm1AeGBTORq4LyQTKBmNMQyf4b5AzA3MIRnuZ5BNCCd7lzDBB6PoqOafqoD28PeayrHcBsPUpM6PM8NdPafoYE8SRIwhgf5W8N8XqAXh3MpHZga9PMayuxpy8HKE76PHeRxAKfzMIM1KDfAVjrxCRdTWTXBeF63IEP8YhbCosGqLxxaqLAeavMcUBS0mWeIZH/ABKAp53EKrWlGzTK/K29ke8EAIvtdfMD5IW1cB4B+3LpfBsoORnAQPfkbSKYzc5hNF8/+imoC2yLYL59nOZgXKABa+5scPM5TJCH050otBpBVcA9gJC1o7n+1oCP38QnL2Ma3PMVVtPIbQFuYwnCu5BBqcBq7gQc4U4t2AxSqkoetAV9E30yDISRMacRoKASSSHFtI0p4hgOAF7Mrytspn1tYSBWEHHawgx3sZAc5bGen+lsO29nBzuy1uqcbMr9wAqdSJYQeXgcAsD7oZ3mM5j0u4GGOBU7hKxbwDB9QqHt6YZJBJSIzgQC20I+XmU59bmAo23iJm7E60Y3WOKepfMZlHEb5kWkb+FW9Vga8u5RbeZsU3uOYCItAGqLFqq+WRGCxToPBdpxNij+AJiSphFgLK622mMwS8UdVShS/qh7goE4u0fUn+mPM5XJbyvIXqHPo1p/o2fQAVmX3j+4w2SsASKJm3ORATeQEMjgrBA9ebQA2l/m5j3GMoz2D6Ay05h2G8jyjPJWQbVUFiuZZeykjeIIs+tOSq4BcuvGl5lndxfllxDeuUmbPfNaVse87nEUPGvIOF8Qgh81QmmVsVh7YRbqlGOIZZ2OBhnGD7gkG5Rymc54Nz3fW036aSwu1V+JVkoDbtd+M3MdEhgDnhWwCbalgq9nMpi0DuJoUmvE8D/AyIzXUr63Kzgj2qgHgr8MSGa9yH9UYRDqwk4tcUCJiJdfRdr/3tjGfX8sxaPdxKyfQik4M5EndE0lQ3iSJOfzIBt1CDPGMk16gDC6N2Tz2lDBDAl2nUuLSXsAuDqMRbZnNuayIclTLC5QW5VGcYhAtgY+zjQFUiuyf+myibki1gawn0VBumr/Sg/9xO73J5AAGcxdv8hRrYjqx+bRgN7vZxXb2sIccdnMUFf26DwGi8wJBDqO4i3RgM+fzS0xnXRZjomiiuYsr+ZFMHmUmP+qeSEIySLcAQyJgmUA+nDCBOlIDmKhqJgdeYAtLPKsGtmCEXcqwsMgJ8FD5SuSs5LM7Ql31mUQbDmY2HaN0shYvhLmTIwCyr9Qtw6V8Q3eackSF34A6QFHIHpJ/6M/T3MmNVKEK/cgktt3SMoEssqhb6pOzmFbGPuk8ARB1e9/nuZ108unA7zGds1P8zl28RBpjONr0ozIY4hMnvUBXAfCgg/2AImMDZ/AVp9KIWXRmThRHKl4IcyfpgK9Uyq/BYiLdgfMqNIFqA1vDigdZzR08yh08oGFWmUAOy8iiMlWp5u+1lMw4upRhBN3BYcAXTIly7DV8wHWkc2icmEDwMmdyOQfyesj+7Fr00y3aYDCEjnNJ8ZXpDCxznQEEkMM5fA7UZDKdojiOu71A6X6FhlJkf0ARobTJqEPFkUCl2cJILdPKAOZxLIfRlFqkkkktWvAKUJlxnBVkjwN5CNjDHTaM/jQC/tT4eOAm/gUu4daQtq7JFNoCS/let3CDwRAKzvkIulAF+ED3BMsgj268B2TxZdg1cffhfi9QrFoSeJGfgFNL5BoGozahRQK5g0wgN+DveWxjObfyImUZQc+TBTxaIik8UhbxNdCODrpPg23kcCX5wDMcU+G2NfiGtsBfnG1S6Q0Gb+CcF6gbAB/pnmCZFNCDMUB6iaT9cI8BxgTyKhOBtKCekX2kUAPvmECppFLSBLIQ+vESwYygc7gU+JtnbVLwFBBffqBfeADIYEzQPmj7qMFkjgP+4swyU+0NBoPL2GcC2Us1OgG/u7p3kvBHlEdw/0KYMYHKJpSO8TVJhoiCYWtrmFEGQNASDcLtZAOV+YonuJLDSQUyeAmAW2wr62BlT53L0Rpm7xTP8BXQktfK2cYYQAaDJwk0gez0A11GJm72AdmDZQK5tb2sMYHKJXsu64Dzyv3e3whE4gVKUrFA/4S9ZzRkApRhzgh9yQayuJePWMQu5jGFg4ExZfTRigyrik48+YGE61kFXMl1ZWxRnW+MAWQweBGnTCBrGewT3dNzGCsWaCzuTDw3JlBFTAYac1QZn6byikoXD99b2JsOwO8xbvBoeYFyy/hU6Murfo9vBm05FdjJnbZq+JI/gStoFtOZO8tWulMEvMjhQT6tzmSOxxhABoMHcSYc+gDOAn5ime7phUSziPecw39AQz5iiiov5yaMCVQR5S2FVWWs6nV1C++FedxGDMPqkhXbjDzLC5Rb5udCXzI5kp6MZKoK2R2KvZ3dfDwDpNqSYeYeZvIIkMUYKu/3SbEB9LcxgAwG72GZQL6AP9vB5aTihWUwq9TiOxEnxs+gFSMpAjqwkBElepfpx5hAFZD9MQUEN4EaM5MLgG105JUwD5vE69QAHmNejCdUdizQPvJZxGj6cw71aMr5DiTvv8sGoJeWaCjneISpwBE8S33mBrwWKg/QGcYAMhi8R6DZY99C2FWAL4ri9LHiJUYBlfmSyyI8wjb6czw/A2n0YwmX655SAMYEqpgfgVNK5QSewFyOBpZzSpk1lcvmRjoBC3g85rOpyAu0P6uY6ICfKpeRQFaItXS8go9r2QD0oTvtAl6NMUtgBoNnsT8WqDafcCow0wMXBR99eBZI52N6RnyUXzmJnmwBGvMJ41wTBZGGMYEqYiKQul8dm8uYRj3gR05iSQTHfAwo4DoN5768cOhY8hLbgX5k6RZiKxu5Hh8wFIAtLFevn4wBZDB4lUAvkB2p8efxB5cDRWEvH+hBuIuhQApvRfHU6mM0R/IuAnRmMUPUkoRejBeoYiYAJZfC+qt4j084K6ICd8nUASYzX8Nsyg+Hjh07eB2oXWYGlVeZxNMUZ4AOpoV6nWgMIIPBq9gZC1SJEXxNA2AFZ3lgGayYIdyGkMSLDI7iKBvowRksBCoxmD/oqHtaxgSqmOzfWAucrzygqXzM8yQDI+lWonlv6GSRRLRd1yMl3IUw53iOfOAu19bMCp9GtOYEprFU/X2HbkEGgyF67FsIO5759CMJeJfWzNQ9sbB4iesoBIYwLKrjzKQtA9gJHMwkxnGg1lkZEygUJgL1aUt7hrGcK4A8etA/rMaogVgh8bu0zMUtC2Gwlg+BgyKOsXMfH/E7PzKJQ9XfjQlkMMQB9oRDpzKI2bQCNnExPdipe1phM5ruFACDeCUqb1gBIziSLwDoHHYytZ2kkYRpk1oxs1jHUqYzi0EcCOTTiXejOJ5lAu3WMhe3LIQBDMcH3Gd74x1d7H9WjQlkMMQBlqM6uiigQ3mXYwGYSC/W655ShHzETj6hEjdTVfmEImUVl3I+71GTRhrnkw4YL1A59GnFhXTmDVJpGPD2l8yI6rDnA7q8QJYJ1DDKo9jDEiZyAW04i291S7GFXEC4kz3ksJe9/KxbkMFgiJ5I1+pr04pDOYRDOJSWpAE7GcCbuqcTFV/ThbFU4RoyuTpK42ECv3Gm1puRMYHKpM/pdKELfwa89Q/j+IUPiLYl6k08Bwi/a5nYd+SRwUBe1eSFKsmTXADcFUcmUBIvGb+qwRBPBHqByndZp9OCVrTiEA6lVamyZ7Poyb+6JxM133IuE6jBZXzJZeyJ6ljrgErU1BQYa0ygoPS5kM5cyHf+N3zMZzzjmAe0AohqEfcGXiUJoZ9aCo01K8mmH/Xppxp76GUmq2jCQbpl2IS1EJZpTCCDIZ6wTKCyMsLqcajf6GlWhsdoNX/xtaqR7H1+4Ey+oS6dmEiXqNb7rUTZBsYEcgN9DuJcunAuX/nf2sM0xvEVG/zvRBvFcyPZJCP040VtE32U66nKPWRH1N3ebpIgygcJ92DlB1byYJyjwWAok7JNoJo8V0a5wF38xZ/q9ZcrXO528hunM4XGnMZ0bohiQcOKJmrIYk3zsDJXEv6Ztc+xdKEzywN8nCv5hvFMLpU5ZRXyi/z7fD7JwNsaDSD4j5E8QA3u4gGNKorJxC3B2dFjzcMN9b4MBoNtWCZQYcCfLTqTHRDJ4mOF3+z5izW6RTvMUk5jCi1oyzze4EH+i+AYNekD7ImourAdtOFjAFZrGt8F9LmQznRhbsBbi/mEcfxaRvh/tOnsd3M+GVyocfET4GnuIY0TNCrYR2XiwQt0HO35m5pAcVlEg8EQJ1hmT1HAn6EmI+gOwGqyWcpf/OWKWiOx419O4xNOJoXeXMEjvBC2N+U+agHP2dyFO1RaMomawHvZz2oZXzN9+nAJZwYseu1mCuMZz8Zyd4vWC7SMEdxDbQYzQOPkcwB31AayDIbICky6ieu4xf/nTN1iDAaDnQR6gVIAuJBXaQAIbzBQ9VJPPNbRnqsZRmNq8Ay9uYBlYezdiNuAzTylRXtjplAf+Cr7Wi3ja6XPYG4n2//XtYznK6aFtBxjmUDRpLM/SncacCujWKTtBCSRhjtMoAySiQcT6HT/n9bHzbKewWAA9l8Iq8VIrgFgFTcxWbc4rQjvM5ZBDKQSregQlgn0OJWAR7QYkAcwhWbAtOwLNYyulT5DGaCaWMLi/7d333FylVUDgJ9NL6TRIUgJHUGqCNIRRDpKUekqskrvRZGqQECqiC5IFcGPIlKkF6nSQZqAVAm9pJGe3ff7YyYhydapdyZ7nv39IDtz73vPvUl2Ts7b3OJWjxSw5lXp6zqPd4KL9MpPB89Gbhh8LYwBmx/1ngL92CJWwjP+4R4PF71meAihJs3aEbalkyyM5GJHxuqnmOB4N3sSqxZw1tfsjrdmqUVUz5D8Ev6PN22awdUz07iCo+ye3+NtvIuc738FN1JqRxhcotGatrKl2zN6FLkUqBaqQAdBhvWw0s3jD/nneZVzsg4mhFB+s1aBch/Z79jHPVmHVUOe8YV5CkqBztADx2bwMTTALdbAC021MRy2KhpXd5iX8t24n/q984ucEF6O3b1aHOwhDc52T0aVmNycpexToPn8HJ/5Y9aBlGDjfAKkxBXDQwg1atYqEEyRWlUvxrYq/37R6sf7pFa95FNb/Xu6uY3KUuu5M+NarTA0sdUP9Cmt5plMb7VeR8oPDC30TubU4kXrWEVDF7tUNrYFnnJtl44upz5usAFeb1ql6tfOSOMGjvZs/pt3nOPiEmYglaMKxCNu9D0r+JnfZfJIamU9qCMNwm/rdB2dJa1hJd8Fu3k1o9W+QwgVNmsVCPpaMuuQMtY6meuHQUYa6bNOz27wW3BMifuuFa6nq3wHo2w+F6zT3QWN2/mlh/LfvO5Ml5VYdynXHu9H2Eo/J7m6C39eyi9XBco6BZrPfvjM7zOOo1gX2jL/q9H+by5Z9jWE0EouBXrNAxb1xWw1kgZDWx09pNUK0vPonfUtlFn/dtb+ONL+rvI7L3Z49g+tiduqvi9Sg4vsjE9s3tQNEqDGfRw1c9L7o0a6pQwpZ3mqQLzlPEcb5oT8aJjqqo2xQLka0Fl1WgP60ieuiAQohLlXQ+lNzKF/q7Uzeuf/ff2lHoa0Om9oq1gGtdqSo3XbffIfXF/qaXCrtoe1eqV12wNarfza14CZv/6KBUFyvQPbXV+mj5ctrcWanivrM+3c2Q7FWJs2PV3lK1dF4xoWtbDhFjLcgpY3L0jucLoHy3SR6+yE9TxackuDvGoR063eScJcCat4Hqc4vupX/tJ83jLIZ5aqwxRoRcf4qpX1NdViRS2LGkKoG8XuFN++SW1Mg/0469ss2bz2sb/FNdjZGtZsZ7r7fpbGFVVPgE51KCbapv4ToMavWMyChlvYoha2qEUsqKdnWh3Y7FojyzpG4zI74bRZ1oEp1ni/8ie9nGPz6j25vFroCDuijmtAv8mPACJFAhTC3K78VaC5Vy/fdbIV8Ec/b+P9IV43v8mWL2JCdikOcQ6m2r4pq4nYZdTY+SGf+dCDfuvNsl/8QRtgqzJMaO/hcWtha7eV/xl16JsewdHOqPJ1v1TPNaBveliDLzzvJS86P+twQgiVVf4q0Nxruuvc4UWL+6nz29j96xjz47wqJ0A/cjaa7T43JEBzSD72kVE+NspH3vOR93xYwXEux3oYp7qz5CXwWhziIQ3OcneVJ8dnPyPscINwdl0lQAv6nZWMyHd97+2GrAMKIVRDVIEKtbs/43ZbzzEAd1H/NcBoyxS5Kk1xdvVnPST7NF2S9YMpj0Z4yJk+9L6Pq762zs22xW6uLkNbubFFhzivqnewhTuwnz9U9apfytWAPrdkHaVAi7jXijO/e95qVZ/PGULIRI/Sm+hmrvY8tnTyHK+fYgBOqWoCtK3L9cDhc0sClPeaWzzpvQwWF/yFFuxdlraOMhkn5DeKqJasq0D1VwNazD+tiE895Aon2DsSoBC6i0iBCtViL5Nw3Gxzbla0J952YRUj2cS1euMX3XM/+Ip40RdmbBhcqreci2GOqeodZJsCzecAfJ7RspDFWMI/LYenLG9Dezt55lKbIYS5XqRAhXvObppxklNnvnamXjiuiuuxfMPN+uG3TaeW3FaojFN9jJ9bqIrXzHaDjMPyNaB62WFwhAcsjcdsXtX6bQihJkQKVIwb/dA0HOs8PbChrfFv11QxhqXyQ9k3blws68cR2jHeWRjgiCpeM8sq0LwOxJi6WRN6WQ9YAg/boo3tdEIIc71IgYpzne+ajIPcYKDTwZElzyMqxF+t512s5dnG0leyCZXxex9jv/zCmtWQZQp0WH49oDGZXL1Qy7vfYnjIVnVTtQohlFWkQMX6h+2Nxw6esy7udHeVI3jGOp7AAu5q/HHWjyO0aULV60DZdYTNqAFdkMG1C7eKBwzH3b5TR0O3QwhlFSlQ8e7K12GWQaryoNec923kSvR1aeNFWT+O0KZq14GyqwIdZjDOrosa0GrusxDusL2JWQcTQshKpECleMF6ZmxJ8cNMlpmcbC+HaMG+jXdm/ThCGyY4GwMdXqXrZZUCDbU/xtTFXLC13Gt+3GT7NrbzCSF0G5ECleZd67kADY7ykFUyieE82xiLLRpfb1wp6wcSWrnAx9i/SnWgrDrCDjdUfdSA1nGPeXG9nTPeSy2EkLFIgUo1xYF2MhbreNpvDcoghtut7RUs4/HG7bJ+IGVQzUnklTfBOapXB+qN6leBhjoAY+ugBrSBuwzBNflZnSGEbixSoHK4wRoeQW+He8cb3vChz431zapF8Jr13INBbmzMYlRS+bRgG01lWp6wNvyuinWgbHaKr5ca0CZuNwhX2sP0rIMJIWQtUqDyeNMGfuJTDDPCCAsZZrBFqhjB575jJHo6vbGa6xOV244mY1836J91KGUzow50WBWulRsLVN2OsBk1oFrfWf3b/mEg/uRHmrMOJoSQvUiByiW51ApGet2bnvEqWLSqETQ7xk9NxQ8bH8v6cRSr6UZbGovt3We+rKMpm9/5BAdUoQ6UxXDow+qiBrS1m/THhfat6gpeIYSaFSlQOX3mGMta2pp2AT80uMoR/MkmPsI6je83fiPrx1Gcpvut7z2s4wFzy8rXM+pAh1b8StXvCBviQLU/Dmh7f9MP5zogtkENIeREClQZb3sP67qn6pWMR63lKSzqgca9sn4MxWl6wfpexVc9bIWsoymT832CAyteB6p+R1iuBnSO0VW8ZqF2cp0+OMOhkQCFEGaIFKgyxlnP6/i6hwyv8rVH2dj16Ofyxl2zfhDFaXqraXn/whIeqeKg8kqaUQc6ocLXqXZH2BAHqfVxQN93jd4Y6eisQwkh1JJIgSrlHRt4ASt6yNJVvvYEuzhR0qBOUyBoWtftmNddtso6lrK4wGfYz5kaKniVvmip4mynXA3o3BquAe3qKr0wMpMV3EMINSxSoMr50EYex1IesnKVr52c5N/YNOuHUIqmLV2NgW7yk6xjKYPxGk3DES6s4N+7PqrZDTZjHNB5VbtiofbxZ73wq0iAQghzihSokkbbwkNYxL1GOsnRjrZn1Z75bRjQ+N2sH0IpmnZ1Dnq52JFZx1IGN9jBJPzMVfklDMuvj2p2gx1qmFquAe3nIj0kh/l11qGEEGpPJUvyAQb4my1me+XCKs1JWd9DeKBpo6wfQWkaD3G2HjjfoVWYzDzWYPf5VsXa38gtBuEWu5hcgfYftp5PqrQZx0JeMdRYS9bodPhDnK1BcqDfZx1KCKEWRRWo0ibazg2zvbKf06ty5X8Zg3WyfgClajrXXqbhIFdWrHZSPQ/Y1GfY1m3mqUD71asCLe4BQ3FejSZARzlHgxaNkQCFENoWKVDlTfV9S1vFWtayt8k4yq+qcN3eWtC3cfWsH0Cpmv5sBxOwm1srkjZ8qaEKG3M8ZSMfYBO3VWDdqL6qkwKt6GHL4wXnVOFqhTvOSDT7iYuzDiWEUKsiBaqGZm960dOedoXtTcHJVRjbcoZ5we5Z337pmv7hWz7Dt92Un/ZdGasZiHcqfDsv2cQobOA+85e57b6qMRx6TQ/4Cp60SU3WgE50Cpr92OVZhxJCqF2RAlXbXXY1HSM1VvQ6Wzog/6vdsr7lcmh6zPr+h01dUcE/tduCWyt+O69a3+tY05M2skgZ90OrxoywjdxnAdyXT0xrzSlOQLO9XJl1KCGEWhbDobOwp8v00GJPf6nQFRb0vIXwrNWxddM/sr7lcmhcziMWwLkV22jiSWuZYn5fVOF2hrvbijO/m2JMm1/veaGgVkcZ7ilfLyqir3uhC0O0d3CNfrjWHlXfkb5zDc52CKb6gRuzDiaEUNt6ZR1At3SlefxeD1eY6roKtN/gEgvhIpd4HHW6Ucacml5rXNv9BjrE/yoyAmVRa+L+qiRAvGd9/813VtLXQhZq87i7/cJTXWxzEQtSZPyLuMcYJ7qyw13U93axXmiyfw3utt7gXAdhql3clHUwIYRaFx1h2bjQMejpz46yr33ta68y/l783DZ41WGe8B9sl/XtlkvTE3bWjB0q0vzWGnBL1W7nc4+hxcWuc4+nvO7TNtZ13twTrp+lXtSRffXG9UVFM9Jgi7vUC77bbnX4MJfqhdP8vAYToB4uchAm2TYSoBBC56IjLDunOG62709wclnaXclT+pvqm57GMU7Dz5r+mPXtlkvj5+b1oEqsdnSzbbGE/1XtZu61qS8Mmu21eQzNfw0xzB7WBs2udGInkfX2tkWNs5jxBUeynodm+WnwmGP9s9Uxv/ZLJEc6q2pPqOt6usRemGA792UdTAihHkQKlKVzHDLLdy22U/qYnb4esxqOMRIM946eHm2qyGajjZu50suObHq28g9r5jUrlQL196kBnlPNRQQetW6nCxlu5rdWBVNd7gQftnvkLv4PFziw4Dh6etLqOMQGvpf/qXCHX3jWwpbKf61kXTT7qcuq+IS6qpcr7IrxtvZQ1sGEEOpDpEBZarBRfjTWqn6L0db2eolt/tbhuN9mM1dSvsvmkuWbXit3+I1nO1QDWlzp+KYq1U4qlgJt62b8uiprNs3wrNX8zxKdHNXDjk7Lb7Y7wQVOb3Mi+gCPWUXyVf8pOI6fuxC32wprOy2/t1yLKXPMVZvihzU5yLi3q+2Esbb0r6yDCSHUixgLlKXkn+5xj3uc5TwM8zcDS2pxM4ditL1m2UriCjTYs7yhN67Y+KzD8il0D3t7rfHM6j68stsG1RwJBP0wqdOjWlxnRY0+wEBHe8PRrabRN7jCKririARoPr/G1HxN8gnfsoWn0WO2q0zxiq1qMgHq4//shDG2iAQohNB1UQWqFb3cYyP81Q+LbmM+z1sUu8w2z2yADw3yTlNntQaNd+vn2KaHO79Q40+dayA+9zN9nWJJMNppTWdU+kE1jjasAlWgBqMs6kPDq7AP2ZfesqSXrNzFo+dxiCMMAaOc4tJZBk+f7Fd4z9reLziKP2rE6Y6d7Xns7AgTvTXz6/2q7GxXuD6us53cpsRPZh1MCKGeRApUOxbylMVwuLOLbOFvvovL/WiO1y/xY2za1OEg0canrAVu9cumf3d45A12BA/Yw7voaz+/NB941wlNl1buITV+06O4peyz3NbyJC6xT+Vib8OrlsN3/b3LZ8znaAfkqzP/dbz/k7CTazWYZGNPFBzD6p7U03tWqNJiAOU1wI2+jY9t7vmsgwkh1JfoCKsdH9nZFIy0cVHn7+O7eMNBrd7JrZHbQVdY44jG1/IJENt4tvEvjUu3c+TGje/aEdMd51veBVOcY2mnmYivuLTxxcZtK/aUfgkV2PgyF3F1u8E4UMLFFunyGZ85ypJGmoJlXeMFO1vDFRokPykiAWpwnp44ok4ToJt9Gx/5ViRAIYRCRRWotvzMH/CxNY0q8MzlPGOg6db3eKv3GrxhKV80tbPFaOOq7rAIXnCao6wGprm4ab9WR/7GMXriTbt5rFVDw51o7/wA7wcd3VT2cRmNq3tGQ9GrH3fkGaubZAETyt5yx37nANxu6wK7mZZxsu/n/wkzRV+c6KQirr+Xy/GwDWu0m6tjuTmVo3xL2Qf7hxDmfpEC1ZpL/QgvuclH3veBD7xrWqdn9fKwb+B4p7T5/kmOx55NbeyZ1LixmwzBY7bxmQY7+Y1lwUS/azp65nFLusr64DqNRrcTyfJOsVP+z9U9Dm0qbHuHTjRebyeFdRx1zXDvanCrylWv2tPf01bEgS4o+NxV/cbW+V8/aOMikphBXrWIZmv6d8HnZuW7mk002kTTPWZen/qGN7MOKoRQjyIFqjX9PDSzSypn5y6s9nuqY/GIjdpZs3cpb2hwb9O35nyjcQfX6I+b/WDm3KTefuQEi4LRzm86gcZdNBmG8Y5wUSfRfMPI/HDl6S5t2rdcj6ZxRS/p4T9WLvuQ5dyk8MZO76zrBus5x3+H6NHmf1ewh54mWbOIuVys7zTrY4KtPVDw2Wc5DL9ro/O0dj05x9+PMxxdZEshhG4uUqDas4SnzD/L93v6cydnbOQ+PYy1mrfbPeYh62uxVNM7s77Y+DO/1xMXt9rwYIADHJ3fweoDT+enjD9uN2906S52cGp+U4cJzm4qy1o7jVfaE7u5uhytzeYftpJ8xXtFnX2e7+iFQbP8t3DPWqeobUcbXGA/TLSN+ws6c0X/1ttnlq/J/d7b8yc/meW7ZLmS19IKIXRTMRy69rxjQYtYzdb5bQgGYGAHH6tDXaEH9u8gAcoNie5h91lfajzGH/XESI2tqkcTnWEJxxiHRWyD5HwbdjEB4u9Wtou3MdCvGj9rPKbUx9I4wq54w7VlfNY5A22KZ4pMgJazv+WMMMIChhlW9NbDqxc1lofkABdigFttUtCZ5+iNo+sqAeI5cKORmvzZmZEAhRCKFVWgWrax+80Y7Lq+R9o56q++j6vt1mFbQ3ygv1eblp/xQuMf/BwtDupwftXCjvNTfYyyRxu7RnVmgIMdnV/J5k3HNZVQv2ls0oif+lMZnuzstvd3nOTEos7OLTnwurGYbNIc/51kcgf/nWgKJhrmVsO02KzAOs4MxVSCdnIdnrZ2VVdCKlU/u7hC8b9bIYQwU6RAtewbs8y6+ra72zxmT1fgHasa20lrV/sh1s3N08oPLJ5izy5UVZayl/N9XuRdzOeX9tMX/L5p/+IaaRzuTX29a5miOos6lutaWcvTRZz7Fa/r43+W6cKg9Y7s7s8Y5WvtDjTvWKFJUH8vW1KLb7Yxg7BW/cJ+Fs3/zLrJDlmHE0Kod9ERVsvGetnTXkauO6y1EX6HZrt3mgDNtjpQ4/12wjhbdalb6S0nFp0A8ZnDrOAqLXRSqerIEfrizAokQD1sjfc8U9TZR+qD00tMgLjKNVjM+UWenxzgD7reHfYLS+KyOkqAWMTwmf9oWy3rYEII9S+qQLXv+/6Kj3xg9Cybn0IvD1pXV7f27Ol/FjXa6v5uNXxkqyI/9osz0lHYpamosTyNEwz0kaW6sKNWoXK1tos0FnHugt4yoExxDfVvi2NX1xTZQoPf+zkm2rqTTssRXtLPOMt3sO987cn9Cbrc0970hlezDieEUO+iClT7JoKFrGaTOTZRPc66eNzJXWqn2V8wzPNWwxvWq2oCNKMKtXsxpzaeaiDOqUACVNq60IcYgLPKEtcYu2vGhRYvsoVk/5mVoI07PPJc/fCrukqAZmwoe74L3BYJUAihdJEC1b533OQhH4Pv2Hhm5e6bfokv7N7lTpgrwGA8a/0uz+0ql5c8iy2LOnd/jHZhReLaBhPdW8SZg/0cn/tjmSJ5yDkY6io9i2wh2d8fMbDDJOjbtsVL/lCmuKsl94+B/iW2EkIIeZEC1b7n7WDD/NpA17rflXphsKv0wkEFTAp+KT/g9z4bZ/Lv/3vRu3HFQk9rPM4QnG98BWJawqq4p6g6zoGG4ndljOs4/8YGDi26hWS/TpKgPvnxRgeWPH6p2nK/RwNKbCWEEPIiBaoXX37M7u56/VxgKfzNZQW1ciX+bmvjMrmHMchVoQpzMCYUsYFEV+S6wW4u4swBDip7XFPsbjJ+bYWi20j2dxkGutl6bbx/mOXx1yKn32cpt39bpEAhhDKJFKhe3OEYx/iV0dje0/bAKD8tsJWrnWdHkzO6h9ystaGFndR4uAVwoU8rElNu0cfbijhzXwvij2WO60XHoG/RM8OgxT4uwyC3t0qChvslJip5qcoMRBUohFBWkQLVi8eNNNKvbeA9rIQWexU8Vf1Th2S4EF6u9lRoFehwTHJ2RSIaZGM85YOCz+ztUExxTtlj+p0nsLkdS2ijxU80YZA787u1zfBb8+AU7xTVbrZyKVCMBQohlEmkQPXmJev7LxhTdx9juSrQkEJOafy5RXFJhcYuba6v4maD7WVxXFbkphodaXEw+EFJrST7uVyuO+ybM19d3/fxegUSt2rIDYeOKlAIoUwiBao/b9vQc5jXQ1bJOpiCFFMFOgrT/LZCEW2HYkYC9XQkmvO7uJXbU2VppcVPXIHBbrduPuoLNOBgUyoSd6VFChRCKKtIgerRhzb1CBZxv69nHUwBCq4CNTZaCn+uUL2rhy3xrucLPnNny+GaGt+is8WP80nQ3TbE/lbFLUWNfKoFkQKFEMoqUqD6NNq33Yb5iltqMCMFVoEaFzMS051eoXjWsSBulQo+80gkIysUV/nMSIIGus02jscUR2QdVNEiBQohlFWkQPVqYv6jrBLrJVdKrgrU9Y6wiw3FGfmxT+VX7IT4bayBm7xYobjK6csk6Ebz4UyvZR1S0XIp0DoGZR1ICGHuEClQ/eqH+kqBclWgLnaENf7YlnjFKRWLZ1tM6GQ3rTk12DY/mPi0isVVXi1+7Er0wkd1E3VbxpuKDT1hpaxDCSHMDSIFql+5ycETsw6jAFNM0cUqUONwZ6HZXhVbxWiEr+KugtrfxhNutgzu8URlH1YZzUiCGORrWQdTgtG+6W2s4PES58uFEIJIgepZLgX6rl/bI+tQumysrlaBLjQMZ1Yw0citu9P1CfFbe8It1gK3O6BicVVCcz4JGuBO62QdTAmetrZ7MI9rnKd31uGEEOpbQ+lNhIxsM/Pj+w3LZB1MF71mWa80dbr5Q+PeLsd/rFHBlaw/NR/e9JHPfGqaed1vnvx7w0BDfiXrBkMtY/X8e3c4yWMVfUq9TMP1di5rqz1dbnd8bjXvVjT+yurpJL/QgFvzo7lCCKEovbIOIBRtqvctpCf6Zh1Kl43VhY6wxnXcjmY/qmACNCQ/qHaEETNf63w95judWOH0p3Ka7a2HXc3rKptqzjqcEu7jOI+50jBbGmZ01uGEEOpXdITVr7sM18cT6ikFGqfTjrDGIzxkGM72eAUj2UofvOEVn3ZxUvwjNvGduk2AyHWHPYsNHZd1KCW61enoaeOsAwkh1LOoAtW3FhPVUwo0FgM7OqDx1vxK0H9zfEUj2R5s6z/oYX4/cjpOdp8vwLQ5/j/d+AyfW7lMsYtnDHK8B+twp/hZ3Qc2dWPWgYQQ6lekQPVusnpKgcZ19GbjN/zVNpjiaOcXsWBh1/W1Jf7rP6DFxz4Cz3og60dUYa872KV6uNJqPss6mBI843Pz2izrMEII9Sw6wurdFPSpm2Ht46BxqbbeajzEw5bCOzZ2XkUTIDYxmNkqCLl/DEzP+gFVwWX+gsVcnHUgJWnxT6zgegtnHUoIoV5FClTvpqChbqYHt7s+dONtztUbN1qtCuNtct1gN83ySk+o40HChdjPm/iuxqwDKcn1WrCjl+yZdSghhPoUKVC9mwr6ZB1GF7W5PnTjRo3v2QqTHeJ7xlQ8igbb4OPZUq3ulAKNsxvU+WDia2zgFczrCrdbPOtwQgj1J1KgejcFMzbLqH1tpECNh7jHcLxmXedVJYq1LYabtMzyWvfpCIPnsg6gLB61hjM14zteqKsNg0MINSFSoHqXS4HqZUB0q46wxjvyHWDXW7tqH8ytu8G6VxVo7jHJUdb1AgbnK1shhNBlkQLVu3pMgdZuXLdxRRq3aPzQdzDRT+ycf68atscX7p3ttVwK1F2qQHOTJ62V7w4OIYSCRApU73Ip0F8cPcsqx7Ur1xF2sH/5TyN3WhgvW9ulVYxhGSvhzjlWns51hEUVqB79KBb3CCEUI3501LtcCrSOdYyogxk+rSs9lzmgyrvd74A5u8GiI6xezeti34O63vcshJCJSIHq3Z+Mt70Nsg6ji96wraGGGmKooYa62Z+rHsP2aHbbHK92r+HQc4sN/MVXMN3xRmYdTAghhOpbUJI0ZR1GXVjQdGmOcUBwsiT5WtbhgV6S5LoKXqGfJLkm6xstSU8nmi5J3rRO1sGEEOpRVIFC97Ktnlp3g0VHWL35iqtsCG7w09gvPoRQjBgOHbqX3IT4W1q9HjPC6skOnrMhJjnETpEAhRCKE1Wg0J0M8C08561W78SMsHrRz0gHgZf8wItZhxNCqF9RBQrdyRYGaKsbLDrC6scfHITkXGtGAhRCKEVUgUJ3kusG+3sb70RHWL0YALZza9aBhBDqXVSB5h6LZh1Azetpa7zj3228l9svbJ6sQwydSuDurMMIIdS/SIHmBlNNxTbO05B1KDVtA/PjpvyH6OxeBqtlHWLoVC5ZjZ9cIYSSxQ+SucEYO5iMgzTF72gH2toedYanwepZhxg6lUtgI9kPIYSQt7HxkuQvMb6rXW9IRuvd5nt9TJHck3WI+VhiacT2XSVJBmYdRgih/kXNYG7xT1sZj11d1c6HfHf3NSNwi2ltvjvVS1ijJqoLR+UjCm2JjrAQQgitrGesJLlZ36xDqUHHS5Id233/T5JkRNZh+rqpkglWrOA16rkKdLkkGZJ1GCGEEGrLmj6VJP/QL+tQas7TkskGtfv+/pJkp4yjHOJNSbJPRa9SzynQZZJkaNZhhBBCqDWr+USS3KF/1qHUlOFapA7XkllHkvwm4zj/IkluqPBV6jkFukSSzJt1GCGEEGrPit6TJA90UPHofg6QJD/t4Ij+pkluzzTKvSXJuxX/gK/nFCjXYTlf1mGEEEKoRcsbJUkeNjjrUGrG3ZJmi3R4zAuSTzKMcWnjJM02KbGdzocK13MKdJEkWSDrMEIIIdSmJfMjSp6KDgMwxDTJo50cdYUkWSyjGHt7TJKcWGI76xrldF/p8Jh6ToGaJMmCWYcRQgihVi3udUnyjPmzDqUGnCpJTu7kqEMkyXYZxXhmvnJX2rpOC+W7Qae62jrtHlXPKdAfJMnCWYcRQgihdi3iJUnycifdP3O/TUySJE92sljABmWpwhRnc82S0ZYsqZWe7pVm+XrC7vq0cVw9p0C/l6TYES+EEEJHFvKCJHnF8KxDydAa+dWSkuSKDpc+HKRZcnMGMS7gfUnywxLb+Y0kecGBXpl5zx84sVXNpJ5ToAskqVv/iQ4hhNAFC/q3JHlNo33zX+tlHVRVLeuj/Mf9x5Lklx0e/YHksarH2OBmSfKnEtvZSrNknOXR4Dtu05xPg6bMMcS6nlOg8yWpk7FOIYQQgvk8NVvXSJI8be9usn70ovlh4X/Xy3omS1rs2sHxb0ueqXqUB+drdaXte7WEzyTJLrO8tqzz8zWw+2c7dv46ToHOkyRLZB1GCCGE2jfEo62SoORjp1s869AqfufPSpL78mtl76JFMqmDYcKvSV6qcpSrmiyZXOIu9X09IUnOb/XOYI9Ikm/O8tpZkuTUKt9peZwjSSWOmQohhNBNDLLzzK/d3Tyze2Sqv872wTh36e9BSfLcLJspnJQfHdNeDeFFyX+rGuUAL0uSQ0tsJzdI+PE2Bz9/W5ptZexlTJF8VKebTJxVI3u5hRBCqENLO9uYmfWguXOd3V5ukSSvzraCTINrJMnz7Zz1tOSdqsZ5UX47k9J2qP++JPms3dpIrkK0Zv67f3S6UnYt+60kWTrrMEIIIdSreexnnOTTrAOpiIb8MofvtUoK+nlJ0tzOef+SfFjFOL8nST4qcZWb5YyVNPtOu0fsIEmuBZtLkmf1rOJ9ltMZkmTZrMMIIYRQvxqMy2T+UzXkKgVjrNrGe7dJJrdz3j8ln1ctyiE+l7R0kLp0xcD8+k8ndnBMg+clzb6qt/9Iko2qdpflNlKSLJ91GCGEEOrX8HxH2GiP2DLrYMrqWEky0fptvnuX5It2zuzovfJbWZJcWmIruXrXvZ1UdXaVJJc7dJZ6UH06TZKskHUYIYQQ6tems8wPOzDrYMpoTy2SqbZq5/37JWPaee9WybSqRbqhJDmipDb2yw/w7qwrrafXJFONlUys6/lUuc1OVso6jBBC/et8T+kwt3rGNo52J1TxY7/StnOJBkmj29o5ohemt/PeFPSq2t+KYWB0CS183dmYbudORzA1OxO9DcaZ3q7SHVZCC5Q4fDyEEEKwjSTZJ+swymTj/G5gh3VwzL8kH7TzXm6+WL8qRbuXJDmy6PP7equACfV9jJIk75e4BGPWTpEkK2cdRgih/kUVqLvL7Us+d1SBVnGjfjjV2Z3ccXtVoKlQtZWznzAVvyx6G9vNLIkbndulo6c6AzxtQpXurzJyVaD4yRVCKFn8IOnueqP9lKCeLO0uQ3GF4zo8rrOOMG0uL1gJ/3EGhjinyPN3Rm5r1K65yIfYxAJVur/KyN1tdISFEEoWKVB3l6sC1X8KtIi7LIy/+UknKUEv2l0XKFcFqlYKxK+9iu/bpohze9sWbxewp9lk52NgnQ9+z/3uxk+uEELJ4gdJd5erAtV7R9j2HjMC99ut3fRmhs6rQNXbQnaKn0m4oIjxOd8yL67vcg0Ifm80DqrTrTFyoiMshFAm8YOku6v/KtASbvZ3i+MZO7S76OHsd9xeylftKhD/dDWW6KTzri07ghsKOmec32OIn1XxDsstZoSFEEIoi30lqd01dGpdb0ebIElaXGreLp3zluTZdt7LbaO6apfaKZcFfV7EmtQ9fSQZVXAqMJ/xkk/qeFbYLyTJ2lmHEUKof1EF6u7quSNsA8843QC8ZnM/7mIa0VtnM8KqWQXiY88p/G/ixhZUaDcYfOYizO8nVb3HcooqUAihTCIF6u7qtSNsXk0esDImOskq7i3ojjseC1TapqXVUUw3WM6ZJuHIKid65RPDoUMIZdIr6wBCxuqxCtRgD2eZH9zqwALXOu5oLFAuBbrOSKd1YVRRdnrYAR96tIhzP3S5n1vM2Z7XbByYlL/bsVow3mtZ32AHogoUQgihLI6RJOtkHUYBVvVofmezUXYq4vwxkvvaeW9Zj+Xbfs2mVbuj+zrYtaxtG0iSC4u83pKmzrI/XOuv2t5D7AhJamcL3BBCCKFTCzvESc73lCRZK+twumigE/Mf31OdZ56i2vhCcle77zbY02f5VOBaC1blrgpPgc6VJN8q+oqXd5gCJddX5b6Lk9vrfsOswwgh1L/oCOuuFphtTeL6GAu0rQssDh6ynxeLbKWjsUAkV7rLGfbAzjZ3ot/lu15qR4Pv4VMPFN3CUa7CPHqjIb9KUF8DwI8tZ0ebtlspy1qMBQohhFCShWf5N//nlss6nE6NcFs+2s/sW9JIkOmSmzs9aqv8FqTJQ75a4XsrtAq0riS5qELRfEuSvJQfJVZ7DpIkm2QdRgghhHrVW4vkLsOyDqRLGk2UJM0u6uLqP+1pkCQ3duHI/k40Jd/pdnoFd4/v6YUCU6DfSpItKhbRjZJUo9toDPefEjsBQwghdHujJQ9mHUQXNDg5X495zrolt9Y7P8qna77mX/lrv+7bFbq/30uS/xZwxhuS0RWc1D7CJMnn+Tl3tWQJr+f/JJSWCIcQQujWXpO8jGruiVW4Xv4kSaY7uiwj174qSf7c5eMrPTz6aEkytoAVqdeSJJeVPZJZ/VqS/KGi1yjcMt6RJE9EAhRCCKEUj0omussoT2cdSrv6uV6STLZLmVq8QJLsXNA5C7synwSNdnBZB+J+X7Nkqs0LOOc0SSpqb/muG+AdSXNNzRRcwXuS5GFDsg4lhBBCfbt55nDoCTU6v2aYh/KJR7mmQM9jjOSDIob6bu3t/NN6wL72tYudbWczm1nLmlY2wgjzGZafVdU1G5osabFXQZG8IhlXwbFJObvm041aWYLwaz6SJPcVuRRCCCG0EpPiu69PZv5qgKW8kXU4rSzhDivgA1t5rkxt7moI/lTEatj/8E8nOkQvG3YhIRurxVQTZvvVOM2z/GqaAX6iL45zRQFxrGp53Fzxtauv1mhD6/m+v1b4Sl2xpjvNhzt8z6SsgwkhhFDvNvMDX3N4q2XxNsg6MPBV70qSl/MrAZXH05Lplij6/C+HR5fr6+ICI8gNDf9uRZ757FY3XfJuDewpv64xkuSmmh61FkKoO1EF6r7uAQu0er1n1oFhI383FI/atov7v3fF1tbAP7xTdAvPW88G+hmMgfroYchsvxqgb36pwS9/1V8/2ll84HY/LzCCHTGxg9Wty+dZl9jXYo7xqypcrX0budU8uNbudbaXXQghhJq2oLtnfr0iSVXcG6s9O5mc/1d//zK2uq1JkmTLzO6rv2GGGWE5D0uSZwse17J8QVP6SzWvTyWTLVvtBzWLb5sgSa6sidQ8hBDCXOoASbJZmVs9WHNRXUQXlfVDb7f83mJ/qIGh3xdKkrcsXPCZv5Ik369apLmVmP9WzYczm63yaetFNfC7FkIIYS7287KvOtzDOUWOkTmxzHeWS8NOq4EZTsfmt/lYsYhzn5NMMqhqsfbyfIVXou7ItvlqYC2krSGEuVCMBQpfakY5N6Ds7yrfw3QP5De37KprCx4m3JFjnYrkWCPL2GqxNkCyg/8UfOayVsUdxlct1ukOcS/OsWrVx+H8wJ/1wpmOqvKVQwghdDv7lHXRvQU8KknG+U6G99RgZH53sZ9lGMWs/iZJRXXyHSNJdq9yvDdIkoOrfNXdTZckp1f5uiGEELqlH+V3wzrYfCW3NSI/uPp9a2R4Rw3OkyTTClx+sJL+IklFTTV/UjKl6hvbLm6CZGwRI5eK15jvuDy+yvcaQgihm9pr5kicSa61bQndpN/Ir+X7YllX9SlUL5fnt9eoxjo6XXWJJBWRZC6pRfKPDCLOrUXUVLXr7a9F0uLQDO41hBBCt7S7JGmZmQj9z6+LmhC9o4mS5J5Md3Pq79b8FqQbZxhFa7ldyhYr+LxcPetHGUQ8wP8kzVWq5x2d/1N4QAZ3GkIIoZv6oST5maO9NsvcrKccXNDO3DMmwV+hT4b3Mo+7Jcnn1skwirb8VpIsU+BZi5ss+aCgPcjK5weS5JEqzKc7UZJMzyTVCyGE0G19X5L8EKzpPJ/N0THW+RDens7Pn3FeptPP5/WYJPnAKhlG0bZTJKnguP4kSRlWRv4pSXat6DUanJVPgPbI7D5DCCF0SztJkt1mft/Pzm7Jz8xJklFO77B60c//5QcfN2Z6H4vkV7N5q+BaSzX8UZKsVdA5y5omeTvDPbJWNk0yqoL7tM8Yuj7F9zK7yxBCCN3UdyXJnnO8OrxVx9i+bS7ON19+24fxtsr0LpbyutwGq8MzjaNtQ42XvF9gJ+E1mY0D+tIfJMlvKtb+Vvl6Y7Z/ekIIIXRL27f7QdtgA5caNzMN+sIVNtFDH8Ms5au+btt84jHKqpnewyrelySPFzR+qXqOkCTHFXhPzZJP9c408vl9Jplk6Qq1v0Mm6w+FEEII2EaS/KTd9wfa030d7vj17yJmOpXTN/Ljl+6tYIdNKfp7SzLJggWdtZ1pkuSaDDvCmLGH3N8r1Pr3JClGAYUQQshCriti306OWtIJ3mgzAbrL4EzjX9J4uR3m+2UaR3t656fpX1LwmZvlK3D3Z7rMQE//lqQKrfa9YyZrX4cQQgjYIj8pvnMNNnKJu13rMr93ul84xF4Zd9SwtiS5uUZ3vuvpr/muwiWKOHut/GKTL2RaZ9skP8qqEr/TO1dhzlkIIYTQps0lyf5Zh1G0XAr0i6zDaFODJknyiZWKbGFEflD621bI8D6uk6SKrNu8yyxLMoQQQhWUb1fwUP9yO8UXs4Fn6MxI+2KcLb1cZAtv2sDTWMKj1s/sPg4zESdWYMew3DpSKbM7CyF0O5EChS/lUqD6/TPRUrPxb+JITLSNp0po5SMbuwvD3FXUxiXl8K4zMdgpZW85UqAQQpXV4sdFyEouhajfKtB4yHTAcHtym6Ie66ES2/nCNm5B/yK2WS2XM/wPPy5wccfO5X4WtWR2XyGEbidSoPCleq8CjQbDsg6jDQPBqDK0NM1jmPF7lYWJjkSPsm+BElWgEEKV1e/HXSi/eq8CjUEtp0ATytJWbr5bdikQ1/onvjnLVirlEClQCKHKIgUKX8p9rGY9tb14U00w96dAub+zWaZAHGA6zizrOlCRAoUQqixSoPClMRJ2reMkaAyGZh1EG8qZAuWqdNmmQC+5CAs7toxtRgoUQqiySIHCl/7reqyQ8T7vpRitNqtAA1DeFCjrYcPH+RSHWa5sLcZw6BBClUUKFGZ1tCk4qUa3GO1craZAc1tHGKOdgD5+W7YWowoUQqiySIHCrN5yPuat0RWWOzcag2twQPfc1hEGTf6NbW1ZpvYiBQohVFmkQGF2p/gIB2a29F5pxqAh481a25JLgSaWpa1aSYGaHSDh/DLtXx8dYSGEKosUKMxuvJPRx2lZB1KUWl0ZaCCmm1qWtmpjLBA87Hos44CytBZVoBBClUUKFObU5EXsaMOsAylCraZAAzDNoLK0VRtjgXIONwEnWKQMbUUKFEKoskiBwpyaHQ3OrcM/HWNQiylQX/T3kMXK0FatdIQxY8ewQX5dhrYiBQohVFmvrAMINeg2d9rC6nZ3ZdahFChXBRqadRit7ONWS1rVY/bxiXn0Rn/90MdA9DIIDfnIh+jBbEf1NWDmUQugVlIgzrC3Je2tyRMlthRjgUIIIdSAlUyTjMoP460f20qSn2YdRhsW9rhUxq/5s76hmXaSJE+WXDPcT5JsnvXthBC6j/rr6gjV8LJLMNzhWQdSoDGoxY4wPrSJvxV1ZovRRhvtLW9603M+Q+1UgbjeXVjL7iW2Ex1hIYQqi46w0Lbj/cAQR7vMu1mHUoBa7QiDiXZ2gPlMxHTj0WIsZmxMMt50TDQFk03CNF+00c4V9lRLKRCH+rdeznBT/n6Kk/vnWKRAIYQQMnesJLk06zAKMlyS/CHrMCrqKkkyT9ZhzOZ3kmRkSW0cJEk2yfpWQgghhH7ekjRbM+tACjBAkvw16zAq6mpJ0j/rMGYzzCeSKZYvoY2DJcnGWd9KCKH7iLFAoT2THYseZdwFqvJy3Ui1OBaofGppUvwMox2PPs4qoY0YCxRCCKFmNHhYkmyfdSAF+FDywlw9xu06Saq5O+zpWUkqYUHNw0o8P4QQChRVoNC+5HAJZ5VpF6hqGIOVPeZrWQdSMbVYBaLZL8GmRbeQqwLFukAhhKqJFCh05HH/h6X9POtAuuxcE7Gmp5ykT9bBVERPpBrsMHpQM75e9PnRERZCCKGmfMUEyefmyzqQLlvKPfnlA1+wdtbBVMCtkmlZB9GmFyUfF332kZLkm1nfRAih+4gqUOjYu87DMMdlHUiXvWVzjcZjZY84r+5WuO5MT7XXDZbzJBawRJFnx7pAIYQQaswgH0imWi7rQAqyqJvytaDX57K1Zu6STMg6iDbltrjYqcizj5Ek62R9EyGE7iOqQKEz452I3s7IOpCCvG97PzYGS7vH+x53g3Md7gfWs7jeWYdXgh5qddDwkyh+NFAMhw4hhFBzenpekmyWdSAFW8Tf29xktNlrWYdWtPul/F5otaaPyZL7ijz7F5JUwnDqEEIIoQI2lSTP1WXV8Adu8ZxPWqVBtbXFRNc9KOW3Sq09T0rGFfmn5DhJslbWtxBCCCHM7h+S5EdZh1GC/paziT390hOSVNJmDll6uKR5V5V1oSRZoahzfyVJdbUdSwghhG5hBVMlHxqUdSBlcLgklbCIX7b+Jfkw6yDa8SNJskdR5x4vSVbP+hZCCN1HPXZshCy84mIs5IisAymD98DwrMMoUu1Oii9tQHQsjRhCqLJIgUJXnWAMjrR41oGULFKgSnnZeJEChRDqRKRAoas+dSr6OyXrQEqWS4EWzTqMItXupHhaPIfVilp0IJZGDCFUWaRAoevO8zr2qPuJy7nxTFEFqoQn0c/KRZwZ6wKFEKosUqDQdVP9Ag3Oy39c1afF3AzezzqQItV+ClRcV1h0hIUQQqhpD0qSHbMOo2hDPCdJ7q7bfeRfkfwn6yDatbQkubiIM0+VJCtlfQMhhBBC21bXLHlD36wDKUr/fAr3RN0ujMhrkpeyDqJdDT6V/LuIM0+TJCtmfQMhhO6jV9YBhDrzrKvtboQDnJV1KAXr6Sob4HXb+CLrYEq4i1roCBtmWDvvvGRDX7WyiZ228c5s9xEdYSGEEGrcV0yUjDZ/1oEUqMHFkuQ9S2YdSknekjybdRCuanPvtcK+lpmtxZF1vWZ3CKEOxXDoUKh3nYWhrjEg61AKcrJ9MM7W3s46lJLURhVo4zK0MXsSHTPCQghVFh1hoXAj7W0xm7ndNsZnHUwX/cxxmGpHz2UdSol6Kn+i0LvV2KiBrYaLD51lHuDChuMp9xZ5vVVspe0UKDrCQggh1LTlvCtJ/mVo1qF0yfamS5rtlHUgZfCh5F8lt3JHGTqyit80d0dJshfo6fvO9rCJkmTprB9vCCGE0LGlvCVJnjZf1qF0amOTJMmBWQdSFp9IHi65lWfKkAKNKPrqG0mSw0BP08rSZgghFCg6wkJx3rKhey1rDffb3EdZh9OBVdyoH070u6xDKYseShkL1E9/sCDGumuOd6e0msc13vTZvm82Lv+rqd4sOorPMKMjrNlHhpvuSU94PL95SQghVEE9r/IbsraIe6yEV2xWwx9dr1kWTX6WdSBlMk0vE9pIOgfrOccrPQ3usKW7bJHRPSzsA4w1Va/85PqPLJxRLCGEEEIRFvCsJHndElmH0q7PJc+3Sg/q15QydGHlvq7K7B56a5kjluaitlYNIYQSREdYKMUnNnWnr1vag77l9azDaVMffFQD08hLNSQ/6mqaPib5ALQY2+q4ySa1em1sqzlk0413f2b3Ms0bephoirGmGWeKifqbllk8IYQQQhHmcZ8k+bCo/cErb4rktqyDKIOfzVIzuSfrYEIIof7F0oihVF/Y1n1YyL2+lnUwbehFResLDVVaIvKTqlwlhBC6jegIC6WbYBs32NKC7reFp7IOZzY99VDZFGgpb/jcKP8zynse8FCFrvMxeNC/qNEuxxBCCKEb6uvvkmSMb2Ydymz6SZJrKniFb882rLdSCRArSJIzKngnIYTQrURHWCiPKXb2fxjizrLsH1UuuXlGlawC5Tb7/Dw/4HgtfSt0nVxH2AIVvJMQQuhWoiMslMs0u5liT/O4zXfdmXU4eeVPgQYabLDBhhhmsMG2A+t73ZkO1s+xPjBUP/0NdoXHy3bd0abrFSlQCCGEUIt6aJIkk/OJQfYWkiR/LFt7S7e5ws50fbF9q9d3L+u9fCiVMaUKIYRuLjrCQjm1+Jnz0Nf1ds46GJS/CrRYm6++awoerfA+55/IbWwRQgihDKIjLJRXcojJjtbbNfr5c9bhlJgCLeaBOV4ZCG70rHHGGmec0cb5HHxib0wyzhRrG4nj/dDnXnZau1fYxDUmmLE7V25Zw0kmY6IpmGAqvjAtf+3oCAshhBBq2An5TQ9+mnUglpMkI4s8u4fxbXZ8rd/pmTvNcvQjHRy3VsHbWlRnFaIQQpjrRRUoVMJJJhmphyb9Mt6fvdgq0KIWAf+zEp6dY4OJtzs9/yOPmtd8FiBfI2pb7r1xPsUQPTC0k82LF/BOlZ5dCCHM1SIFCpVxhknO0+B8/ZyZYRzFpkCHOXyW73YpeDHCh6yHeX2G/jZDf/3y7w3Jj8HraXC+Y+1me8xx/jA0GIoehpix63svg4zJ7FmGEEIIoUt+qlmSHJ9hDF+XJL8o+Lw/zdb59L0ir75MFzu3/pHhEwohhG4qqkChci422WV6Okl/x5alxcG2MN70/Hej8/+fbnz+V1/ukv5FvvJTbBVoGDg2P8drVJHxztvF4+Yry9MJIYRQgIbSmwihA7u4Sm+c59AyTBkfOjPtKcxEUzpMlFqnU1tZzBcGlRjvEn5g1hQtN9cLxmkGLcZikpdLfjYhhBBCqCnbmZxfnrAcq1B9WPAMquK//pf1owshhFA50REWKu1mO/ib/hr185N87aN4r1hIiwNn1mf6zpwkPlCf/K9mHW7c/lEzZl59edSciqs4hRBCCCHkbZJfX+ev+bE5hZvfuW72oimSZPGKRNnXsPzXYkYYYXh2DyyEEEIIc4f1jJEkN86swhRmqdm6qDbP+nZCCCGEELrm6z6TJLfpX8TZ80mSsf7pUsdZLuubCSGEEELoqlV9JEnuzS8IWIjekuSGrG8hhBBCCKFwKxglSR5udwhy+yZK7sr6BkIIIcwtYl2gUF3LusfieMKOJrR71Jcr93zpAwt7wjeyvoEQQgghhGIs6Y1OV+T5fRvnvSr5T9bBhxBCmFuUY7G6EArxto282skxy7fx2jiK6D4LIYQQ2hRLI4bqG2UjZ87cN31Om5rPCm28HilQCCGEMoqxQKHWXGcnyVutXl/YAEnvkteXDiGEEEQVKNSeV9FgRJvvNRgc21aEEEIoh/8HBsflxoIJyHYAAAAldEVYdGRhdGU6Y3JlYXRlADIwMjItMDItMDVUMTQ6MzI6MjUrMDA6MDD8nWGTAAAAJXRFWHRkYXRlOm1vZGlmeQAyMDIyLTAyLTA1VDE0OjMyOjI1KzAwOjAwjcDZLwAAAABJRU5ErkJggg==;" vertex="1" parent="1">
          <mxGeometry width="1153" height="1024" as="geometry" />
        </mxCell>
      </root>
    </mxGraphModel>
  </diagram>
</mxfile>
